<?xml version="1.0" encoding="utf-8"?>
<svg xmlns="http://www.w3.org/2000/svg" xmlns:xlink="http://www.w3.org/1999/xlink" width="600" height="400" viewBox="0 0 2400 1600">
<defs>
  <clipPath id="clip060">
    <rect x="0" y="0" width="2400" height="1600"/>
  </clipPath>
</defs>
<path clip-path="url(#clip060)" d="M0 1600 L2400 1600 L2400 0 L0 0  Z" fill="#ffffff" fill-rule="evenodd" fill-opacity="1"/>
<defs>
  <clipPath id="clip061">
    <rect x="480" y="0" width="1681" height="1600"/>
  </clipPath>
</defs>
<path clip-path="url(#clip060)" d="M276.876 1410.9 L2352.76 1410.9 L2352.76 47.2441 L276.876 47.2441  Z" fill="#ffffff" fill-rule="evenodd" fill-opacity="1"/>
<defs>
  <clipPath id="clip062">
    <rect x="276" y="47" width="2077" height="1365"/>
  </clipPath>
</defs>
<polyline clip-path="url(#clip062)" style="stroke:#000000; stroke-linecap:round; stroke-linejoin:round; stroke-width:2; stroke-opacity:0.1; fill:none" points="335.627,1410.9 335.627,47.2441 "/>
<polyline clip-path="url(#clip062)" style="stroke:#000000; stroke-linecap:round; stroke-linejoin:round; stroke-width:2; stroke-opacity:0.1; fill:none" points="825.221,1410.9 825.221,47.2441 "/>
<polyline clip-path="url(#clip062)" style="stroke:#000000; stroke-linecap:round; stroke-linejoin:round; stroke-width:2; stroke-opacity:0.1; fill:none" points="1314.82,1410.9 1314.82,47.2441 "/>
<polyline clip-path="url(#clip062)" style="stroke:#000000; stroke-linecap:round; stroke-linejoin:round; stroke-width:2; stroke-opacity:0.1; fill:none" points="1804.41,1410.9 1804.41,47.2441 "/>
<polyline clip-path="url(#clip062)" style="stroke:#000000; stroke-linecap:round; stroke-linejoin:round; stroke-width:2; stroke-opacity:0.1; fill:none" points="2294,1410.9 2294,47.2441 "/>
<polyline clip-path="url(#clip062)" style="stroke:#000000; stroke-linecap:round; stroke-linejoin:round; stroke-width:2; stroke-opacity:0.1; fill:none" points="276.876,975.472 2352.76,975.472 "/>
<polyline clip-path="url(#clip062)" style="stroke:#000000; stroke-linecap:round; stroke-linejoin:round; stroke-width:2; stroke-opacity:0.1; fill:none" points="276.876,528.195 2352.76,528.195 "/>
<polyline clip-path="url(#clip062)" style="stroke:#000000; stroke-linecap:round; stroke-linejoin:round; stroke-width:2; stroke-opacity:0.1; fill:none" points="276.876,80.9177 2352.76,80.9177 "/>
<polyline clip-path="url(#clip060)" style="stroke:#000000; stroke-linecap:round; stroke-linejoin:round; stroke-width:4; stroke-opacity:1; fill:none" points="276.876,1410.9 2352.76,1410.9 "/>
<polyline clip-path="url(#clip060)" style="stroke:#000000; stroke-linecap:round; stroke-linejoin:round; stroke-width:4; stroke-opacity:1; fill:none" points="335.627,1410.9 335.627,1392 "/>
<polyline clip-path="url(#clip060)" style="stroke:#000000; stroke-linecap:round; stroke-linejoin:round; stroke-width:4; stroke-opacity:1; fill:none" points="825.221,1410.9 825.221,1392 "/>
<polyline clip-path="url(#clip060)" style="stroke:#000000; stroke-linecap:round; stroke-linejoin:round; stroke-width:4; stroke-opacity:1; fill:none" points="1314.82,1410.9 1314.82,1392 "/>
<polyline clip-path="url(#clip060)" style="stroke:#000000; stroke-linecap:round; stroke-linejoin:round; stroke-width:4; stroke-opacity:1; fill:none" points="1804.41,1410.9 1804.41,1392 "/>
<polyline clip-path="url(#clip060)" style="stroke:#000000; stroke-linecap:round; stroke-linejoin:round; stroke-width:4; stroke-opacity:1; fill:none" points="2294,1410.9 2294,1392 "/>
<path clip-path="url(#clip060)" d="M300.61 1485.02 L308.249 1485.02 L308.249 1458.66 L299.938 1460.32 L299.938 1456.06 L308.202 1454.4 L312.878 1454.4 L312.878 1485.02 L320.517 1485.02 L320.517 1488.96 L300.61 1488.96 L300.61 1485.02 Z" fill="#000000" fill-rule="nonzero" fill-opacity="1" /><path clip-path="url(#clip060)" d="M339.961 1457.48 Q336.35 1457.48 334.522 1461.04 Q332.716 1464.58 332.716 1471.71 Q332.716 1478.82 334.522 1482.38 Q336.35 1485.92 339.961 1485.92 Q343.596 1485.92 345.401 1482.38 Q347.23 1478.82 347.23 1471.71 Q347.23 1464.58 345.401 1461.04 Q343.596 1457.48 339.961 1457.48 M339.961 1453.77 Q345.771 1453.77 348.827 1458.38 Q351.906 1462.96 351.906 1471.71 Q351.906 1480.44 348.827 1485.04 Q345.771 1489.63 339.961 1489.63 Q334.151 1489.63 331.072 1485.04 Q328.017 1480.44 328.017 1471.71 Q328.017 1462.96 331.072 1458.38 Q334.151 1453.77 339.961 1453.77 Z" fill="#000000" fill-rule="nonzero" fill-opacity="1" /><path clip-path="url(#clip060)" d="M361.61 1435.97 Q358.676 1435.97 357.191 1438.86 Q355.724 1441.74 355.724 1447.53 Q355.724 1453.31 357.191 1456.2 Q358.676 1459.08 361.61 1459.08 Q364.563 1459.08 366.03 1456.2 Q367.516 1453.31 367.516 1447.53 Q367.516 1441.74 366.03 1438.86 Q364.563 1435.97 361.61 1435.97 M361.61 1432.96 Q366.331 1432.96 368.814 1436.7 Q371.315 1440.43 371.315 1447.53 Q371.315 1454.62 368.814 1458.37 Q366.331 1462.09 361.61 1462.09 Q356.89 1462.09 354.388 1458.37 Q351.906 1454.62 351.906 1447.53 Q351.906 1440.43 354.388 1436.7 Q356.89 1432.96 361.61 1432.96 Z" fill="#000000" fill-rule="nonzero" fill-opacity="1" /><path clip-path="url(#clip060)" d="M791.549 1485.02 L799.188 1485.02 L799.188 1458.66 L790.878 1460.32 L790.878 1456.06 L799.141 1454.4 L803.817 1454.4 L803.817 1485.02 L811.456 1485.02 L811.456 1488.96 L791.549 1488.96 L791.549 1485.02 Z" fill="#000000" fill-rule="nonzero" fill-opacity="1" /><path clip-path="url(#clip060)" d="M830.9 1457.48 Q827.289 1457.48 825.461 1461.04 Q823.655 1464.58 823.655 1471.71 Q823.655 1478.82 825.461 1482.38 Q827.289 1485.92 830.9 1485.92 Q834.535 1485.92 836.34 1482.38 Q838.169 1478.82 838.169 1471.71 Q838.169 1464.58 836.34 1461.04 Q834.535 1457.48 830.9 1457.48 M830.9 1453.77 Q836.711 1453.77 839.766 1458.38 Q842.845 1462.96 842.845 1471.71 Q842.845 1480.44 839.766 1485.04 Q836.711 1489.63 830.9 1489.63 Q825.09 1489.63 822.012 1485.04 Q818.956 1480.44 818.956 1471.71 Q818.956 1462.96 822.012 1458.38 Q825.09 1453.77 830.9 1453.77 Z" fill="#000000" fill-rule="nonzero" fill-opacity="1" /><path clip-path="url(#clip060)" d="M843.39 1458.35 L849.597 1458.35 L849.597 1436.93 L842.845 1438.28 L842.845 1434.82 L849.559 1433.47 L853.358 1433.47 L853.358 1458.35 L859.565 1458.35 L859.565 1461.55 L843.39 1461.55 L843.39 1458.35 Z" fill="#000000" fill-rule="nonzero" fill-opacity="1" /><path clip-path="url(#clip060)" d="M1280.59 1485.02 L1288.23 1485.02 L1288.23 1458.66 L1279.92 1460.32 L1279.92 1456.06 L1288.18 1454.4 L1292.86 1454.4 L1292.86 1485.02 L1300.5 1485.02 L1300.5 1488.96 L1280.59 1488.96 L1280.59 1485.02 Z" fill="#000000" fill-rule="nonzero" fill-opacity="1" /><path clip-path="url(#clip060)" d="M1319.94 1457.48 Q1316.33 1457.48 1314.5 1461.04 Q1312.69 1464.58 1312.69 1471.71 Q1312.69 1478.82 1314.5 1482.38 Q1316.33 1485.92 1319.94 1485.92 Q1323.57 1485.92 1325.38 1482.38 Q1327.21 1478.82 1327.21 1471.71 Q1327.21 1464.58 1325.38 1461.04 Q1323.57 1457.48 1319.94 1457.48 M1319.94 1453.77 Q1325.75 1453.77 1328.81 1458.38 Q1331.88 1462.96 1331.88 1471.71 Q1331.88 1480.44 1328.81 1485.04 Q1325.75 1489.63 1319.94 1489.63 Q1314.13 1489.63 1311.05 1485.04 Q1308 1480.44 1308 1471.71 Q1308 1462.96 1311.05 1458.38 Q1314.13 1453.77 1319.94 1453.77 Z" fill="#000000" fill-rule="nonzero" fill-opacity="1" /><path clip-path="url(#clip060)" d="M1336.45 1458.35 L1349.71 1458.35 L1349.71 1461.55 L1331.88 1461.55 L1331.88 1458.35 Q1334.05 1456.11 1337.77 1452.35 Q1341.51 1448.57 1342.47 1447.48 Q1344.3 1445.43 1345.01 1444.02 Q1345.75 1442.59 1345.75 1441.22 Q1345.75 1438.98 1344.17 1437.57 Q1342.6 1436.16 1340.08 1436.16 Q1338.3 1436.16 1336.3 1436.78 Q1334.33 1437.4 1332.07 1438.66 L1332.07 1434.82 Q1334.37 1433.9 1336.36 1433.43 Q1338.35 1432.96 1340.01 1432.96 Q1344.37 1432.96 1346.97 1435.14 Q1349.56 1437.32 1349.56 1440.97 Q1349.56 1442.7 1348.91 1444.26 Q1348.27 1445.8 1346.55 1447.91 Q1346.08 1448.46 1343.56 1451.07 Q1341.04 1453.67 1336.45 1458.35 Z" fill="#000000" fill-rule="nonzero" fill-opacity="1" /><path clip-path="url(#clip060)" d="M1769.85 1485.02 L1777.49 1485.02 L1777.49 1458.66 L1769.18 1460.32 L1769.18 1456.06 L1777.45 1454.4 L1782.12 1454.4 L1782.12 1485.02 L1789.76 1485.02 L1789.76 1488.96 L1769.85 1488.96 L1769.85 1485.02 Z" fill="#000000" fill-rule="nonzero" fill-opacity="1" /><path clip-path="url(#clip060)" d="M1809.21 1457.48 Q1805.59 1457.48 1803.77 1461.04 Q1801.96 1464.58 1801.96 1471.71 Q1801.96 1478.82 1803.77 1482.38 Q1805.59 1485.92 1809.21 1485.92 Q1812.84 1485.92 1814.65 1482.38 Q1816.47 1478.82 1816.47 1471.71 Q1816.47 1464.58 1814.65 1461.04 Q1812.84 1457.48 1809.21 1457.48 M1809.21 1453.77 Q1815.02 1453.77 1818.07 1458.38 Q1821.15 1462.96 1821.15 1471.71 Q1821.15 1480.44 1818.07 1485.04 Q1815.02 1489.63 1809.21 1489.63 Q1803.4 1489.63 1800.32 1485.04 Q1797.26 1480.44 1797.26 1471.71 Q1797.26 1462.96 1800.32 1458.38 Q1803.4 1453.77 1809.21 1453.77 Z" fill="#000000" fill-rule="nonzero" fill-opacity="1" /><path clip-path="url(#clip060)" d="M1833.85 1446.41 Q1836.57 1446.99 1838.1 1448.83 Q1839.64 1450.68 1839.64 1453.38 Q1839.64 1457.54 1836.78 1459.82 Q1833.92 1462.09 1828.65 1462.09 Q1826.89 1462.09 1825.01 1461.73 Q1823.14 1461.4 1821.15 1460.7 L1821.15 1457.03 Q1822.73 1457.95 1824.61 1458.42 Q1826.49 1458.89 1828.54 1458.89 Q1832.11 1458.89 1833.98 1457.48 Q1835.86 1456.07 1835.86 1453.38 Q1835.86 1450.9 1834.11 1449.51 Q1832.38 1448.1 1829.27 1448.1 L1826 1448.1 L1826 1444.98 L1829.43 1444.98 Q1832.23 1444.98 1833.71 1443.87 Q1835.2 1442.74 1835.2 1440.63 Q1835.2 1438.47 1833.66 1437.32 Q1832.13 1436.16 1829.27 1436.16 Q1827.71 1436.16 1825.93 1436.49 Q1824.14 1436.83 1822 1437.55 L1822 1434.16 Q1824.16 1433.56 1826.04 1433.26 Q1827.94 1432.96 1829.61 1432.96 Q1833.94 1432.96 1836.46 1434.93 Q1838.98 1436.89 1838.98 1440.24 Q1838.98 1442.57 1837.64 1444.19 Q1836.31 1445.79 1833.85 1446.41 Z" fill="#000000" fill-rule="nonzero" fill-opacity="1" /><path clip-path="url(#clip060)" d="M2258.46 1485.02 L2266.1 1485.02 L2266.1 1458.66 L2257.79 1460.32 L2257.79 1456.06 L2266.05 1454.4 L2270.73 1454.4 L2270.73 1485.02 L2278.37 1485.02 L2278.37 1488.96 L2258.46 1488.96 L2258.46 1485.02 Z" fill="#000000" fill-rule="nonzero" fill-opacity="1" /><path clip-path="url(#clip060)" d="M2297.81 1457.48 Q2294.2 1457.48 2292.37 1461.04 Q2290.57 1464.58 2290.57 1471.71 Q2290.57 1478.82 2292.37 1482.38 Q2294.2 1485.92 2297.81 1485.92 Q2301.45 1485.92 2303.25 1482.38 Q2305.08 1478.82 2305.08 1471.71 Q2305.08 1464.58 2303.25 1461.04 Q2301.45 1457.48 2297.81 1457.48 M2297.81 1453.77 Q2303.62 1453.77 2306.68 1458.38 Q2309.76 1462.96 2309.76 1471.71 Q2309.76 1480.44 2306.68 1485.04 Q2303.62 1489.63 2297.81 1489.63 Q2292 1489.63 2288.92 1485.04 Q2285.87 1480.44 2285.87 1471.71 Q2285.87 1462.96 2288.92 1458.38 Q2292 1453.77 2297.81 1453.77 Z" fill="#000000" fill-rule="nonzero" fill-opacity="1" /><path clip-path="url(#clip060)" d="M2322.43 1436.78 L2312.84 1451.77 L2322.43 1451.77 L2322.43 1436.78 M2321.44 1433.47 L2326.21 1433.47 L2326.21 1451.77 L2330.22 1451.77 L2330.22 1454.93 L2326.21 1454.93 L2326.21 1461.55 L2322.43 1461.55 L2322.43 1454.93 L2309.76 1454.93 L2309.76 1451.26 L2321.44 1433.47 Z" fill="#000000" fill-rule="nonzero" fill-opacity="1" /><path clip-path="url(#clip060)" d="M1075.04 1526.67 L1102.34 1526.67 L1102.34 1532.08 L1081.46 1532.08 L1081.46 1546.08 L1100.31 1546.08 L1100.31 1551.49 L1081.46 1551.49 L1081.46 1574.19 L1075.04 1574.19 L1075.04 1526.67 Z" fill="#000000" fill-rule="nonzero" fill-opacity="1" /><path clip-path="url(#clip060)" d="M1128.19 1544.01 Q1127.2 1543.44 1126.02 1543.18 Q1124.88 1542.9 1123.48 1542.9 Q1118.51 1542.9 1115.84 1546.14 Q1113.2 1549.36 1113.2 1555.41 L1113.2 1574.19 L1107.31 1574.19 L1107.31 1538.54 L1113.2 1538.54 L1113.2 1544.08 Q1115.04 1540.83 1118 1539.27 Q1120.96 1537.68 1125.2 1537.68 Q1125.8 1537.68 1126.53 1537.77 Q1127.27 1537.84 1128.16 1538 L1128.19 1544.01 Z" fill="#000000" fill-rule="nonzero" fill-opacity="1" /><path clip-path="url(#clip060)" d="M1163.39 1554.9 L1163.39 1557.76 L1136.46 1557.76 Q1136.85 1563.81 1140.09 1566.99 Q1143.37 1570.14 1149.2 1570.14 Q1152.57 1570.14 1155.72 1569.32 Q1158.9 1568.49 1162.02 1566.83 L1162.02 1572.37 Q1158.87 1573.71 1155.56 1574.41 Q1152.25 1575.11 1148.85 1575.11 Q1140.32 1575.11 1135.32 1570.14 Q1130.35 1565.18 1130.35 1556.71 Q1130.35 1547.96 1135.06 1542.83 Q1139.81 1537.68 1147.83 1537.68 Q1155.02 1537.68 1159.19 1542.33 Q1163.39 1546.94 1163.39 1554.9 M1157.54 1553.18 Q1157.47 1548.37 1154.83 1545.51 Q1152.22 1542.64 1147.89 1542.64 Q1142.99 1542.64 1140.03 1545.41 Q1137.1 1548.18 1136.66 1553.21 L1157.54 1553.18 Z" fill="#000000" fill-rule="nonzero" fill-opacity="1" /><path clip-path="url(#clip060)" d="M1176.5 1556.39 Q1176.5 1562.85 1179.15 1566.55 Q1181.82 1570.21 1186.47 1570.21 Q1191.11 1570.21 1193.79 1566.55 Q1196.46 1562.85 1196.46 1556.39 Q1196.46 1549.93 1193.79 1546.27 Q1191.11 1542.58 1186.47 1542.58 Q1181.82 1542.58 1179.15 1546.27 Q1176.5 1549.93 1176.5 1556.39 M1196.46 1568.84 Q1194.62 1572.02 1191.78 1573.58 Q1188.98 1575.11 1185.03 1575.11 Q1178.57 1575.11 1174.5 1569.95 Q1170.46 1564.8 1170.46 1556.39 Q1170.46 1547.99 1174.5 1542.83 Q1178.57 1537.68 1185.03 1537.68 Q1188.98 1537.68 1191.78 1539.24 Q1194.62 1540.77 1196.46 1543.95 L1196.46 1538.54 L1202.32 1538.54 L1202.32 1587.74 L1196.46 1587.74 L1196.46 1568.84 Z" fill="#000000" fill-rule="nonzero" fill-opacity="1" /><path clip-path="url(#clip060)" d="M1213.78 1560.12 L1213.78 1538.54 L1219.63 1538.54 L1219.63 1559.89 Q1219.63 1564.96 1221.61 1567.5 Q1223.58 1570.02 1227.53 1570.02 Q1232.27 1570.02 1235.01 1566.99 Q1237.77 1563.97 1237.77 1558.75 L1237.77 1538.54 L1243.63 1538.54 L1243.63 1574.19 L1237.77 1574.19 L1237.77 1568.71 Q1235.64 1571.96 1232.81 1573.55 Q1230.01 1575.11 1226.28 1575.11 Q1220.14 1575.11 1216.96 1571.29 Q1213.78 1567.47 1213.78 1560.12 M1228.51 1537.68 L1228.51 1537.68 Z" fill="#000000" fill-rule="nonzero" fill-opacity="1" /><path clip-path="url(#clip060)" d="M1286.19 1554.9 L1286.19 1557.76 L1259.26 1557.76 Q1259.64 1563.81 1262.89 1566.99 Q1266.17 1570.14 1271.99 1570.14 Q1275.36 1570.14 1278.52 1569.32 Q1281.7 1568.49 1284.82 1566.83 L1284.82 1572.37 Q1281.67 1573.71 1278.36 1574.41 Q1275.05 1575.11 1271.64 1575.11 Q1263.11 1575.11 1258.11 1570.14 Q1253.15 1565.18 1253.15 1556.71 Q1253.15 1547.96 1257.86 1542.83 Q1262.6 1537.68 1270.62 1537.68 Q1277.82 1537.68 1281.98 1542.33 Q1286.19 1546.94 1286.19 1554.9 M1280.33 1553.18 Q1280.27 1548.37 1277.62 1545.51 Q1275.01 1542.64 1270.69 1542.64 Q1265.78 1542.64 1262.82 1545.41 Q1259.9 1548.18 1259.45 1553.21 L1280.33 1553.18 Z" fill="#000000" fill-rule="nonzero" fill-opacity="1" /><path clip-path="url(#clip060)" d="M1325.43 1552.67 L1325.43 1574.19 L1319.57 1574.19 L1319.57 1552.86 Q1319.57 1547.8 1317.6 1545.29 Q1315.63 1542.77 1311.68 1542.77 Q1306.94 1542.77 1304.2 1545.79 Q1301.46 1548.82 1301.46 1554.04 L1301.46 1574.19 L1295.58 1574.19 L1295.58 1538.54 L1301.46 1538.54 L1301.46 1544.08 Q1303.56 1540.86 1306.4 1539.27 Q1309.26 1537.68 1312.99 1537.68 Q1319.13 1537.68 1322.28 1541.5 Q1325.43 1545.29 1325.43 1552.67 Z" fill="#000000" fill-rule="nonzero" fill-opacity="1" /><path clip-path="url(#clip060)" d="M1362.77 1539.91 L1362.77 1545.38 Q1360.28 1544.01 1357.77 1543.34 Q1355.29 1542.64 1352.74 1542.64 Q1347.04 1542.64 1343.89 1546.27 Q1340.74 1549.87 1340.74 1556.39 Q1340.74 1562.92 1343.89 1566.55 Q1347.04 1570.14 1352.74 1570.14 Q1355.29 1570.14 1357.77 1569.47 Q1360.28 1568.77 1362.77 1567.41 L1362.77 1572.82 Q1360.31 1573.96 1357.67 1574.54 Q1355.06 1575.11 1352.1 1575.11 Q1344.05 1575.11 1339.31 1570.05 Q1334.57 1564.99 1334.57 1556.39 Q1334.57 1547.67 1339.34 1542.68 Q1344.15 1537.68 1352.48 1537.68 Q1355.19 1537.68 1357.77 1538.25 Q1360.35 1538.79 1362.77 1539.91 Z" fill="#000000" fill-rule="nonzero" fill-opacity="1" /><path clip-path="url(#clip060)" d="M1387.78 1577.5 Q1385.3 1583.86 1382.94 1585.8 Q1380.59 1587.74 1376.64 1587.74 L1371.96 1587.74 L1371.96 1582.84 L1375.4 1582.84 Q1377.82 1582.84 1379.16 1581.7 Q1380.49 1580.55 1382.12 1576.29 L1383.17 1573.61 L1368.75 1538.54 L1374.96 1538.54 L1386.1 1566.42 L1397.24 1538.54 L1403.44 1538.54 L1387.78 1577.5 Z" fill="#000000" fill-rule="nonzero" fill-opacity="1" /><path clip-path="url(#clip060)" d="M1431.71 1524.66 L1445.2 1524.66 L1445.2 1529.21 L1437.56 1529.21 L1437.56 1578.23 L1445.2 1578.23 L1445.2 1582.78 L1431.71 1582.78 L1431.71 1524.66 Z" fill="#000000" fill-rule="nonzero" fill-opacity="1" /><path clip-path="url(#clip060)" d="M1457.93 1526.67 L1464.36 1526.67 L1464.36 1546.14 L1487.72 1546.14 L1487.72 1526.67 L1494.15 1526.67 L1494.15 1574.19 L1487.72 1574.19 L1487.72 1551.56 L1464.36 1551.56 L1464.36 1574.19 L1457.93 1574.19 L1457.93 1526.67 Z" fill="#000000" fill-rule="nonzero" fill-opacity="1" /><path clip-path="url(#clip060)" d="M1504.15 1538.54 L1531.97 1538.54 L1531.97 1543.88 L1509.94 1569.51 L1531.97 1569.51 L1531.97 1574.19 L1503.35 1574.19 L1503.35 1568.84 L1525.38 1543.22 L1504.15 1543.22 L1504.15 1538.54 Z" fill="#000000" fill-rule="nonzero" fill-opacity="1" /><path clip-path="url(#clip060)" d="M1554.6 1524.66 L1554.6 1582.78 L1541.1 1582.78 L1541.1 1578.23 L1548.71 1578.23 L1548.71 1529.21 L1541.1 1529.21 L1541.1 1524.66 L1554.6 1524.66 Z" fill="#000000" fill-rule="nonzero" fill-opacity="1" /><polyline clip-path="url(#clip060)" style="stroke:#000000; stroke-linecap:round; stroke-linejoin:round; stroke-width:4; stroke-opacity:1; fill:none" points="276.876,1410.9 276.876,47.2441 "/>
<polyline clip-path="url(#clip060)" style="stroke:#000000; stroke-linecap:round; stroke-linejoin:round; stroke-width:4; stroke-opacity:1; fill:none" points="276.876,975.472 295.773,975.472 "/>
<polyline clip-path="url(#clip060)" style="stroke:#000000; stroke-linecap:round; stroke-linejoin:round; stroke-width:4; stroke-opacity:1; fill:none" points="276.876,528.195 295.773,528.195 "/>
<polyline clip-path="url(#clip060)" style="stroke:#000000; stroke-linecap:round; stroke-linejoin:round; stroke-width:4; stroke-opacity:1; fill:none" points="276.876,80.9177 295.773,80.9177 "/>
<path clip-path="url(#clip060)" d="M114.931 995.265 L122.57 995.265 L122.57 968.899 L114.26 970.566 L114.26 966.306 L122.524 964.64 L127.2 964.64 L127.2 995.265 L134.839 995.265 L134.839 999.2 L114.931 999.2 L114.931 995.265 Z" fill="#000000" fill-rule="nonzero" fill-opacity="1" /><path clip-path="url(#clip060)" d="M154.283 967.718 Q150.672 967.718 148.843 971.283 Q147.038 974.825 147.038 981.954 Q147.038 989.061 148.843 992.626 Q150.672 996.167 154.283 996.167 Q157.917 996.167 159.723 992.626 Q161.552 989.061 161.552 981.954 Q161.552 974.825 159.723 971.283 Q157.917 967.718 154.283 967.718 M154.283 964.015 Q160.093 964.015 163.149 968.621 Q166.227 973.205 166.227 981.954 Q166.227 990.681 163.149 995.288 Q160.093 999.871 154.283 999.871 Q148.473 999.871 145.394 995.288 Q142.339 990.681 142.339 981.954 Q142.339 973.205 145.394 968.621 Q148.473 964.015 154.283 964.015 Z" fill="#000000" fill-rule="nonzero" fill-opacity="1" /><path clip-path="url(#clip060)" d="M166.227 958.116 L190.339 958.116 L190.339 961.313 L166.227 961.313 L166.227 958.116 Z" fill="#000000" fill-rule="nonzero" fill-opacity="1" /><path clip-path="url(#clip060)" d="M199.197 968.592 L205.404 968.592 L205.404 947.17 L198.652 948.524 L198.652 945.064 L205.366 943.709 L209.166 943.709 L209.166 968.592 L215.372 968.592 L215.372 971.789 L199.197 971.789 L199.197 968.592 Z" fill="#000000" fill-rule="nonzero" fill-opacity="1" /><path clip-path="url(#clip060)" d="M231.171 946.211 Q228.237 946.211 226.751 949.107 Q225.284 951.985 225.284 957.778 Q225.284 963.552 226.751 966.448 Q228.237 969.326 231.171 969.326 Q234.124 969.326 235.591 966.448 Q237.076 963.552 237.076 957.778 Q237.076 951.985 235.591 949.107 Q234.124 946.211 231.171 946.211 M231.171 943.202 Q235.891 943.202 238.374 946.944 Q240.876 950.668 240.876 957.778 Q240.876 964.868 238.374 968.611 Q235.891 972.335 231.171 972.335 Q226.45 972.335 223.949 968.611 Q221.466 964.868 221.466 957.778 Q221.466 950.668 223.949 946.944 Q226.45 943.202 231.171 943.202 Z" fill="#000000" fill-rule="nonzero" fill-opacity="1" /><path clip-path="url(#clip060)" d="M140.247 547.987 L147.886 547.987 L147.886 521.622 L139.575 523.288 L139.575 519.029 L147.839 517.363 L152.515 517.363 L152.515 547.987 L160.154 547.987 L160.154 551.923 L140.247 551.923 L140.247 547.987 Z" fill="#000000" fill-rule="nonzero" fill-opacity="1" /><path clip-path="url(#clip060)" d="M179.598 520.441 Q175.987 520.441 174.159 524.006 Q172.353 527.548 172.353 534.677 Q172.353 541.784 174.159 545.348 Q175.987 548.89 179.598 548.89 Q183.233 548.89 185.038 545.348 Q186.867 541.784 186.867 534.677 Q186.867 527.548 185.038 524.006 Q183.233 520.441 179.598 520.441 M179.598 516.738 Q185.409 516.738 188.464 521.344 Q191.543 525.927 191.543 534.677 Q191.543 543.404 188.464 548.011 Q185.409 552.594 179.598 552.594 Q173.788 552.594 170.71 548.011 Q167.654 543.404 167.654 534.677 Q167.654 525.927 170.71 521.344 Q173.788 516.738 179.598 516.738 Z" fill="#000000" fill-rule="nonzero" fill-opacity="1" /><path clip-path="url(#clip060)" d="M191.543 510.839 L215.654 510.839 L215.654 514.036 L191.543 514.036 L191.543 510.839 Z" fill="#000000" fill-rule="nonzero" fill-opacity="1" /><path clip-path="url(#clip060)" d="M223.892 496.432 L238.807 496.432 L238.807 499.629 L227.372 499.629 L227.372 506.513 Q228.199 506.231 229.027 506.099 Q229.854 505.949 230.682 505.949 Q235.384 505.949 238.13 508.526 Q240.876 511.102 240.876 515.503 Q240.876 520.036 238.054 522.556 Q235.233 525.058 230.099 525.058 Q228.331 525.058 226.488 524.757 Q224.663 524.456 222.707 523.854 L222.707 520.036 Q224.4 520.957 226.205 521.409 Q228.011 521.86 230.023 521.86 Q233.277 521.86 235.177 520.149 Q237.076 518.437 237.076 515.503 Q237.076 512.569 235.177 510.858 Q233.277 509.146 230.023 509.146 Q228.5 509.146 226.977 509.485 Q225.472 509.823 223.892 510.538 L223.892 496.432 Z" fill="#000000" fill-rule="nonzero" fill-opacity="1" /><path clip-path="url(#clip060)" d="M170.17 100.71 L177.809 100.71 L177.809 74.3445 L169.499 76.0112 L169.499 71.752 L177.762 70.0853 L182.438 70.0853 L182.438 100.71 L190.077 100.71 L190.077 104.645 L170.17 104.645 L170.17 100.71 Z" fill="#000000" fill-rule="nonzero" fill-opacity="1" /><path clip-path="url(#clip060)" d="M209.522 73.164 Q205.91 73.164 204.082 76.7288 Q202.276 80.2704 202.276 87.4 Q202.276 94.5065 204.082 98.0713 Q205.91 101.613 209.522 101.613 Q213.156 101.613 214.961 98.0713 Q216.79 94.5065 216.79 87.4 Q216.79 80.2704 214.961 76.7288 Q213.156 73.164 209.522 73.164 M209.522 69.4603 Q215.332 69.4603 218.387 74.0668 Q221.466 78.6501 221.466 87.4 Q221.466 96.1268 218.387 100.733 Q215.332 105.317 209.522 105.317 Q203.711 105.317 200.633 100.733 Q197.577 96.1268 197.577 87.4 Q197.577 78.6501 200.633 74.0668 Q203.711 69.4603 209.522 69.4603 Z" fill="#000000" fill-rule="nonzero" fill-opacity="1" /><path clip-path="url(#clip060)" d="M231.171 51.6563 Q228.237 51.6563 226.751 54.5527 Q225.284 57.4303 225.284 63.2231 Q225.284 68.9971 226.751 71.8935 Q228.237 74.7711 231.171 74.7711 Q234.124 74.7711 235.591 71.8935 Q237.076 68.9971 237.076 63.2231 Q237.076 57.4303 235.591 54.5527 Q234.124 51.6563 231.171 51.6563 M231.171 48.6471 Q235.891 48.6471 238.374 52.3898 Q240.876 56.1138 240.876 63.2231 Q240.876 70.3136 238.374 74.0564 Q235.891 77.7803 231.171 77.7803 Q226.45 77.7803 223.949 74.0564 Q221.466 70.3136 221.466 63.2231 Q221.466 56.1138 223.949 52.3898 Q226.45 48.6471 231.171 48.6471 Z" fill="#000000" fill-rule="nonzero" fill-opacity="1" /><path clip-path="url(#clip060)" d="M16.4842 896.807 L16.4842 887.226 L48.8219 875.1 L16.4842 862.909 L16.4842 853.329 L64.0042 853.329 L64.0042 859.599 L22.277 859.599 L54.8694 871.853 L54.8694 878.314 L22.277 890.568 L64.0042 890.568 L64.0042 896.807 L16.4842 896.807 Z" fill="#000000" fill-rule="nonzero" fill-opacity="1" /><path clip-path="url(#clip060)" d="M46.0847 824.62 Q46.0847 831.717 47.7079 834.455 Q49.3312 837.192 53.2461 837.192 Q56.3653 837.192 58.2114 835.155 Q60.0256 833.086 60.0256 829.553 Q60.0256 824.683 56.5881 821.755 Q53.1188 818.795 47.3897 818.795 L46.0847 818.795 L46.0847 824.62 M43.6657 812.939 L64.0042 812.939 L64.0042 818.795 L58.5933 818.795 Q61.8398 820.8 63.3994 823.792 Q64.9272 826.784 64.9272 831.113 Q64.9272 836.587 61.8716 839.834 Q58.7843 843.048 53.6281 843.048 Q47.6125 843.048 44.5569 839.038 Q41.5014 834.996 41.5014 827.007 L41.5014 818.795 L40.9285 818.795 Q36.8862 818.795 34.6901 821.469 Q32.4621 824.11 32.4621 828.916 Q32.4621 831.972 33.1941 834.868 Q33.9262 837.765 35.3903 840.438 L29.9795 840.438 Q28.7381 837.224 28.1334 834.2 Q27.4968 831.176 27.4968 828.312 Q27.4968 820.577 31.5072 816.758 Q35.5176 812.939 43.6657 812.939 Z" fill="#000000" fill-rule="nonzero" fill-opacity="1" /><path clip-path="url(#clip060)" d="M45.7664 777.418 Q39.4007 777.418 35.8996 780.06 Q32.3984 782.67 32.3984 787.412 Q32.3984 792.123 35.8996 794.764 Q39.4007 797.374 45.7664 797.374 Q52.1003 797.374 55.6014 794.764 Q59.1026 792.123 59.1026 787.412 Q59.1026 782.67 55.6014 780.06 Q52.1003 777.418 45.7664 777.418 M59.58 771.561 Q68.683 771.561 73.1071 775.604 Q77.5631 779.646 77.5631 787.985 Q77.5631 791.072 77.0857 793.81 Q76.6401 796.547 75.6852 799.125 L69.9879 799.125 Q71.3884 796.547 72.0568 794.032 Q72.7252 791.518 72.7252 788.908 Q72.7252 783.147 69.7015 780.282 Q66.7096 777.418 60.6303 777.418 L57.7339 777.418 Q60.885 779.232 62.4446 782.065 Q64.0042 784.898 64.0042 788.844 Q64.0042 795.401 59.0071 799.411 Q54.01 803.422 45.7664 803.422 Q37.491 803.422 32.4939 799.411 Q27.4968 795.401 27.4968 788.844 Q27.4968 784.898 29.0564 782.065 Q30.616 779.232 33.7671 777.418 L28.3562 777.418 L28.3562 771.561 L59.58 771.561 Z" fill="#000000" fill-rule="nonzero" fill-opacity="1" /><path clip-path="url(#clip060)" d="M42.4881 729.866 L64.0042 729.866 L64.0042 735.723 L42.679 735.723 Q37.6183 735.723 35.1038 737.696 Q32.5894 739.669 32.5894 743.616 Q32.5894 748.358 35.6131 751.096 Q38.6368 753.833 43.8567 753.833 L64.0042 753.833 L64.0042 759.721 L28.3562 759.721 L28.3562 753.833 L33.8944 753.833 Q30.6797 751.732 29.0883 748.9 Q27.4968 746.035 27.4968 742.311 Q27.4968 736.168 31.3163 733.017 Q35.1038 729.866 42.4881 729.866 Z" fill="#000000" fill-rule="nonzero" fill-opacity="1" /><path clip-path="url(#clip060)" d="M28.3562 718.185 L28.3562 712.329 L64.0042 712.329 L64.0042 718.185 L28.3562 718.185 M14.479 718.185 L14.479 712.329 L21.895 712.329 L21.895 718.185 L14.479 718.185 Z" fill="#000000" fill-rule="nonzero" fill-opacity="1" /><path clip-path="url(#clip060)" d="M18.2347 694.282 L28.3562 694.282 L28.3562 682.219 L32.9077 682.219 L32.9077 694.282 L52.2594 694.282 Q56.6199 694.282 57.8613 693.104 Q59.1026 691.895 59.1026 688.234 L59.1026 682.219 L64.0042 682.219 L64.0042 688.234 Q64.0042 695.014 61.4897 697.592 Q58.9434 700.17 52.2594 700.17 L32.9077 700.17 L32.9077 704.467 L28.3562 704.467 L28.3562 700.17 L18.2347 700.17 L18.2347 694.282 Z" fill="#000000" fill-rule="nonzero" fill-opacity="1" /><path clip-path="url(#clip060)" d="M49.9359 675.121 L28.3562 675.121 L28.3562 669.265 L49.7131 669.265 Q54.7739 669.265 57.3202 667.291 Q59.8346 665.318 59.8346 661.371 Q59.8346 656.629 56.8109 653.891 Q53.7872 651.122 48.5673 651.122 L28.3562 651.122 L28.3562 645.266 L64.0042 645.266 L64.0042 651.122 L58.5296 651.122 Q61.7762 653.255 63.3676 656.088 Q64.9272 658.888 64.9272 662.612 Q64.9272 668.755 61.1078 671.938 Q57.2883 675.121 49.9359 675.121 M27.4968 660.384 L27.4968 660.384 Z" fill="#000000" fill-rule="nonzero" fill-opacity="1" /><path clip-path="url(#clip060)" d="M33.7671 609.745 L14.479 609.745 L14.479 603.889 L64.0042 603.889 L64.0042 609.745 L58.657 609.745 Q61.8398 611.591 63.3994 614.424 Q64.9272 617.225 64.9272 621.172 Q64.9272 627.633 59.771 631.707 Q54.6147 635.749 46.212 635.749 Q37.8093 635.749 32.6531 631.707 Q27.4968 627.633 27.4968 621.172 Q27.4968 617.225 29.0564 614.424 Q30.5842 611.591 33.7671 609.745 M46.212 629.702 Q52.6732 629.702 56.3653 627.06 Q60.0256 624.386 60.0256 619.739 Q60.0256 615.092 56.3653 612.419 Q52.6732 609.745 46.212 609.745 Q39.7508 609.745 36.0905 612.419 Q32.3984 615.092 32.3984 619.739 Q32.3984 624.386 36.0905 627.06 Q39.7508 629.702 46.212 629.702 Z" fill="#000000" fill-rule="nonzero" fill-opacity="1" /><path clip-path="url(#clip060)" d="M44.7161 561.334 L47.5806 561.334 L47.5806 588.261 Q53.6281 587.879 56.8109 584.632 Q59.9619 581.354 59.9619 575.53 Q59.9619 572.156 59.1344 569.005 Q58.3069 565.822 56.6518 562.703 L62.1899 562.703 Q63.5267 565.854 64.227 569.164 Q64.9272 572.474 64.9272 575.88 Q64.9272 584.41 59.9619 589.407 Q54.9967 594.372 46.5303 594.372 Q37.7774 594.372 32.6531 589.661 Q27.4968 584.919 27.4968 576.898 Q27.4968 569.705 32.1438 565.535 Q36.7589 561.334 44.7161 561.334 M42.9973 567.19 Q38.1912 567.254 35.3266 569.896 Q32.4621 572.506 32.4621 576.834 Q32.4621 581.736 35.2312 584.696 Q38.0002 587.624 43.0292 588.07 L42.9973 567.19 Z" fill="#000000" fill-rule="nonzero" fill-opacity="1" /><polyline clip-path="url(#clip062)" style="stroke:#0000ff; stroke-linecap:round; stroke-linejoin:round; stroke-width:4; stroke-opacity:1; fill:none" points="335.627,103.538 355.211,104.792 374.794,106.057 394.378,107.312 413.962,108.541 433.546,109.725 453.13,110.852 472.713,111.909 492.297,112.888 511.881,113.784 531.465,114.594 551.048,115.319 570.632,115.962 590.216,116.527 609.8,117.021 629.384,117.448 648.967,117.817 668.551,118.133 688.135,118.404 707.719,118.634 727.302,118.83 746.886,118.996 766.47,119.137 786.054,119.258 805.637,119.36 825.221,119.448 844.805,119.524 864.389,119.59 883.973,119.648 903.556,119.7 923.14,119.746 942.724,119.788 962.308,119.827 981.891,119.861 1001.48,119.889 1021.06,119.909 1040.64,119.913 1060.23,119.892 1079.81,119.826 1099.39,119.681 1118.98,119.395 1138.56,118.858 1158.15,117.871 1177.73,116.078 1197.31,112.899 1216.9,107.568 1236.48,99.6881 1256.06,90.866 1275.65,85.838 1295.23,86.9636 1314.82,90.8226 1334.4,94.6096 1353.98,97.6199 1373.57,99.8952 1393.15,101.606 1412.73,102.903 1432.32,103.898 1451.9,104.671 1471.49,105.277 1491.07,105.758 1510.65,106.142 1530.24,106.451 1549.82,106.7 1569.4,106.903 1588.99,107.069 1608.57,107.205 1628.16,107.316 1647.74,107.407 1667.32,107.483 1686.91,107.545 1706.49,107.596 1726.08,107.639 1745.66,107.674 1765.24,107.703 1784.83,107.728 1804.41,107.748 1823.99,107.764 1843.58,107.778 1863.16,107.79 1882.75,107.799 1902.33,107.807 1921.91,107.814 1941.5,107.819 1961.08,107.824 1980.66,107.828 2000.25,107.831 2019.83,107.834 2039.42,107.836 2059,107.838 2078.58,107.839 2098.17,107.84 2117.75,107.841 2137.33,107.842 2156.92,107.843 2176.5,107.844 2196.09,107.844 2215.67,107.844 2235.25,107.845 2254.84,107.845 2274.42,107.845 2294,107.845 "/>
<polyline clip-path="url(#clip062)" style="stroke:#ff8c00; stroke-linecap:round; stroke-linejoin:round; stroke-width:4; stroke-opacity:1; fill:none" points="335.627,103.538 355.211,104.792 374.794,106.057 394.378,107.312 413.962,108.541 433.546,109.725 453.13,110.852 472.713,111.909 492.297,112.888 511.881,113.784 531.465,114.594 551.048,115.319 570.632,115.962 590.216,116.527 609.8,117.021 629.384,117.448 648.967,117.817 668.551,118.133 688.135,118.404 707.719,118.634 727.302,118.83 746.886,118.996 766.47,119.137 786.054,119.258 805.637,119.36 825.221,119.448 844.805,119.524 864.389,119.59 883.973,119.648 903.556,119.7 923.14,119.746 942.724,119.788 962.308,119.827 981.891,119.861 1001.48,119.889 1021.06,119.909 1040.64,119.913 1060.23,119.892 1079.81,119.826 1099.39,119.681 1118.98,119.395 1138.56,118.858 1158.15,117.871 1177.73,116.078 1197.31,112.899 1216.9,107.568 1236.48,99.6881 1256.06,90.866 1275.65,85.838 1295.23,86.9636 1314.82,90.8226 1334.4,94.6096 1353.98,97.6199 1373.57,99.8952 1393.15,101.606 1412.73,102.903 1432.32,103.898 1451.9,104.671 1471.49,105.277 1491.07,105.758 1510.65,106.142 1530.24,106.451 1549.82,106.7 1569.4,106.903 1588.99,107.069 1608.57,107.205 1628.16,107.316 1647.74,107.407 1667.32,107.483 1686.91,107.545 1706.49,107.596 1726.08,107.639 1745.66,107.674 1765.24,107.703 1784.83,107.728 1804.41,107.748 1823.99,107.764 1843.58,107.778 1863.16,107.79 1882.75,107.799 1902.33,107.807 1921.91,107.814 1941.5,107.819 1961.08,107.824 1980.66,107.828 2000.25,107.831 2019.83,107.834 2039.42,107.836 2059,107.838 2078.58,107.839 2098.17,107.84 2117.75,107.841 2137.33,107.842 2156.92,107.843 2176.5,107.844 2196.09,107.844 2215.67,107.844 2235.25,107.845 2254.84,107.845 2274.42,107.845 2294,107.845 "/>
<polyline clip-path="url(#clip062)" style="stroke:#008000; stroke-linecap:round; stroke-linejoin:round; stroke-width:4; stroke-opacity:1; fill:none" points="335.627,1252.56 355.211,1257.88 374.794,1263.74 394.378,1270.04 413.962,1276.83 433.546,1284.02 453.13,1291.7 472.713,1299.67 492.297,1307.49 511.881,1314.72 531.465,1320.76 551.048,1324.32 570.632,1325.33 590.216,1324.46 609.8,1322.59 629.384,1320.36 648.967,1318.35 668.551,1316.33 688.135,1314.72 707.719,1313.36 727.302,1311.88 746.886,1310.88 766.47,1309.98 786.054,1309.27 805.637,1308.47 825.221,1307.89 844.805,1307.48 864.389,1306.95 883.973,1306.37 903.556,1306.15 923.14,1305.54 942.724,1305.08 962.308,1304.54 981.891,1303.92 1001.48,1303.39 1021.06,1302.54 1040.64,1301.73 1060.23,1300.72 1079.81,1299.37 1099.39,1297.96 1118.98,1295.91 1138.56,1293.7 1158.15,1290.7 1177.73,1287.12 1197.31,1282.54 1216.9,1276.78 1236.48,1269.42 1256.06,1261.55 1275.65,1258.68 1295.23,1265.41 1314.82,1276.92 1334.4,1288.59 1353.98,1299.15 1373.57,1308.49 1393.15,1316.57 1412.73,1323.71 1432.32,1330.1 1451.9,1335.65 1471.49,1340.7 1491.07,1344.87 1510.65,1349.14 1530.24,1352.08 1549.82,1355.44 1569.4,1358 1588.99,1360.47 1608.57,1362.03 1628.16,1363.53 1647.74,1364.92 1667.32,1366.28 1686.91,1367.6 1706.49,1367.86 1726.08,1368.08 1745.66,1369.31 1765.24,1369.46 1784.83,1369.58 1804.41,1370.78 1823.99,1370.87 1843.58,1372.08 1863.16,1370.99 1882.75,1371.03 1902.33,1371.07 1921.91,1371.09 1941.5,1371.11 1961.08,1372.29 1980.66,1372.3 2000.25,1372.3 2019.83,1372.3 2039.42,1371.14 2059,1372.29 2078.58,1372.27 2098.17,1372.25 2117.75,1372.22 2137.33,1372.19 2156.92,1372.14 2176.5,1372.09 2196.09,1372.02 2215.67,1371.94 2235.25,1371.85 2254.84,1371.73 2274.42,1371.59 2294,1371.43 "/>
<path clip-path="url(#clip060)" d="M1862.27 852.285 L2283.56 852.285 L2283.56 644.925 L1862.27 644.925  Z" fill="#ffffff" fill-rule="evenodd" fill-opacity="1"/>
<polyline clip-path="url(#clip060)" style="stroke:#000000; stroke-linecap:round; stroke-linejoin:round; stroke-width:4; stroke-opacity:1; fill:none" points="1862.27,852.285 2283.56,852.285 2283.56,644.925 1862.27,644.925 1862.27,852.285 "/>
<polyline clip-path="url(#clip060)" style="stroke:#0000ff; stroke-linecap:round; stroke-linejoin:round; stroke-width:4; stroke-opacity:1; fill:none" points="1885.33,696.765 2023.73,696.765 "/>
<path clip-path="url(#clip060)" d="M2063.3 678.027 L2063.3 681.569 L2059.22 681.569 Q2056.93 681.569 2056.03 682.495 Q2055.15 683.421 2055.15 685.828 L2055.15 688.12 L2062.16 688.12 L2062.16 691.43 L2055.15 691.43 L2055.15 714.045 L2050.87 714.045 L2050.87 691.43 L2046.79 691.43 L2046.79 688.12 L2050.87 688.12 L2050.87 686.314 Q2050.87 681.985 2052.88 680.018 Q2054.89 678.027 2059.27 678.027 L2063.3 678.027 Z" fill="#000000" fill-rule="nonzero" fill-opacity="1" /><path clip-path="url(#clip060)" d="M2077.09 678.073 Q2073.99 683.397 2072.49 688.606 Q2070.98 693.814 2070.98 699.161 Q2070.98 704.508 2072.49 709.763 Q2074.01 714.995 2077.09 720.295 L2073.39 720.295 Q2069.92 714.856 2068.18 709.601 Q2066.47 704.346 2066.47 699.161 Q2066.47 693.999 2068.18 688.768 Q2069.89 683.536 2073.39 678.073 L2077.09 678.073 Z" fill="#000000" fill-rule="nonzero" fill-opacity="1" /><path clip-path="url(#clip060)" d="M2101.88 688.884 L2101.88 692.911 Q2100.08 691.985 2098.13 691.522 Q2096.19 691.059 2094.11 691.059 Q2090.94 691.059 2089.34 692.032 Q2087.76 693.004 2087.76 694.948 Q2087.76 696.43 2088.9 697.286 Q2090.03 698.12 2093.46 698.883 L2094.92 699.208 Q2099.45 700.18 2101.35 701.962 Q2103.27 703.721 2103.27 706.893 Q2103.27 710.504 2100.4 712.61 Q2097.56 714.717 2092.56 714.717 Q2090.47 714.717 2088.2 714.3 Q2085.96 713.907 2083.46 713.096 L2083.46 708.698 Q2085.82 709.925 2088.11 710.55 Q2090.4 711.152 2092.65 711.152 Q2095.66 711.152 2097.28 710.133 Q2098.9 709.092 2098.9 707.217 Q2098.9 705.481 2097.72 704.555 Q2096.56 703.629 2092.6 702.772 L2091.12 702.425 Q2087.16 701.592 2085.4 699.879 Q2083.64 698.143 2083.64 695.134 Q2083.64 691.476 2086.24 689.485 Q2088.83 687.495 2093.6 687.495 Q2095.96 687.495 2098.04 687.842 Q2100.13 688.189 2101.88 688.884 Z" fill="#000000" fill-rule="nonzero" fill-opacity="1" /><path clip-path="url(#clip060)" d="M2109.38 678.073 L2113.09 678.073 Q2116.56 683.536 2118.27 688.768 Q2120.01 693.999 2120.01 699.161 Q2120.01 704.346 2118.27 709.601 Q2116.56 714.856 2113.09 720.295 L2109.38 720.295 Q2112.46 714.995 2113.97 709.763 Q2115.5 704.508 2115.5 699.161 Q2115.5 693.814 2113.97 688.606 Q2112.46 683.397 2109.38 678.073 Z" fill="#000000" fill-rule="nonzero" fill-opacity="1" /><polyline clip-path="url(#clip060)" style="stroke:#ff8c00; stroke-linecap:round; stroke-linejoin:round; stroke-width:4; stroke-opacity:1; fill:none" points="1885.33,748.605 2023.73,748.605 "/>
<path clip-path="url(#clip060)" d="M2063.3 729.867 L2063.3 733.409 L2059.22 733.409 Q2056.93 733.409 2056.03 734.335 Q2055.15 735.261 2055.15 737.668 L2055.15 739.96 L2062.16 739.96 L2062.16 743.27 L2055.15 743.27 L2055.15 765.885 L2050.87 765.885 L2050.87 743.27 L2046.79 743.27 L2046.79 739.96 L2050.87 739.96 L2050.87 738.154 Q2050.87 733.825 2052.88 731.858 Q2054.89 729.867 2059.27 729.867 L2063.3 729.867 Z" fill="#000000" fill-rule="nonzero" fill-opacity="1" /><path clip-path="url(#clip060)" d="M2066.86 739.96 L2071.12 739.96 L2071.12 765.885 L2066.86 765.885 L2066.86 739.96 M2066.86 729.867 L2071.12 729.867 L2071.12 735.261 L2066.86 735.261 L2066.86 729.867 Z" fill="#000000" fill-rule="nonzero" fill-opacity="1" /><path clip-path="url(#clip060)" d="M2084.25 732.599 L2084.25 739.96 L2093.02 739.96 L2093.02 743.27 L2084.25 743.27 L2084.25 757.344 Q2084.25 760.515 2085.1 761.418 Q2085.98 762.321 2088.64 762.321 L2093.02 762.321 L2093.02 765.885 L2088.64 765.885 Q2083.71 765.885 2081.84 764.057 Q2079.96 762.205 2079.96 757.344 L2079.96 743.27 L2076.84 743.27 L2076.84 739.96 L2079.96 739.96 L2079.96 732.599 L2084.25 732.599 Z" fill="#000000" fill-rule="nonzero" fill-opacity="1" /><path clip-path="url(#clip060)" d="M2102.83 732.599 L2102.83 739.96 L2111.61 739.96 L2111.61 743.27 L2102.83 743.27 L2102.83 757.344 Q2102.83 760.515 2103.69 761.418 Q2104.57 762.321 2107.23 762.321 L2111.61 762.321 L2111.61 765.885 L2107.23 765.885 Q2102.3 765.885 2100.43 764.057 Q2098.55 762.205 2098.55 757.344 L2098.55 743.27 L2095.43 743.27 L2095.43 739.96 L2098.55 739.96 L2098.55 732.599 L2102.83 732.599 Z" fill="#000000" fill-rule="nonzero" fill-opacity="1" /><path clip-path="url(#clip060)" d="M2139.38 751.858 L2139.38 753.941 L2119.8 753.941 Q2120.08 758.339 2122.44 760.654 Q2124.82 762.946 2129.06 762.946 Q2131.51 762.946 2133.81 762.344 Q2136.12 761.742 2138.39 760.538 L2138.39 764.566 Q2136.1 765.538 2133.69 766.047 Q2131.28 766.557 2128.81 766.557 Q2122.6 766.557 2118.97 762.946 Q2115.36 759.335 2115.36 753.177 Q2115.36 746.811 2118.78 743.085 Q2122.23 739.335 2128.06 739.335 Q2133.3 739.335 2136.33 742.714 Q2139.38 746.071 2139.38 751.858 M2135.12 750.608 Q2135.08 747.112 2133.16 745.029 Q2131.26 742.946 2128.11 742.946 Q2124.55 742.946 2122.39 744.96 Q2120.26 746.974 2119.94 750.631 L2135.12 750.608 Z" fill="#000000" fill-rule="nonzero" fill-opacity="1" /><path clip-path="url(#clip060)" d="M2163.43 743.895 L2163.43 729.867 L2167.69 729.867 L2167.69 765.885 L2163.43 765.885 L2163.43 761.997 Q2162.09 764.311 2160.03 765.446 Q2158 766.557 2155.12 766.557 Q2150.43 766.557 2147.46 762.807 Q2144.52 759.057 2144.52 752.946 Q2144.52 746.835 2147.46 743.085 Q2150.43 739.335 2155.12 739.335 Q2158 739.335 2160.03 740.469 Q2162.09 741.58 2163.43 743.895 M2148.92 752.946 Q2148.92 757.645 2150.84 760.33 Q2152.79 762.992 2156.17 762.992 Q2159.55 762.992 2161.49 760.33 Q2163.43 757.645 2163.43 752.946 Q2163.43 748.247 2161.49 745.585 Q2159.55 742.899 2156.17 742.899 Q2152.79 742.899 2150.84 745.585 Q2148.92 748.247 2148.92 752.946 Z" fill="#000000" fill-rule="nonzero" fill-opacity="1" /><polyline clip-path="url(#clip060)" style="stroke:#008000; stroke-linecap:round; stroke-linejoin:round; stroke-width:4; stroke-opacity:1; fill:none" points="1885.33,800.445 2023.73,800.445 "/>
<path clip-path="url(#clip060)" d="M2065.7 795.735 L2065.7 781.707 L2069.96 781.707 L2069.96 817.725 L2065.7 817.725 L2065.7 813.837 Q2064.36 816.151 2062.3 817.286 Q2060.26 818.397 2057.39 818.397 Q2052.69 818.397 2049.73 814.647 Q2046.79 810.897 2046.79 804.786 Q2046.79 798.675 2049.73 794.925 Q2052.69 791.175 2057.39 791.175 Q2060.26 791.175 2062.3 792.309 Q2064.36 793.42 2065.7 795.735 M2051.19 804.786 Q2051.19 809.485 2053.11 812.17 Q2055.06 814.832 2058.44 814.832 Q2061.82 814.832 2063.76 812.17 Q2065.7 809.485 2065.7 804.786 Q2065.7 800.087 2063.76 797.425 Q2061.82 794.739 2058.44 794.739 Q2055.06 794.739 2053.11 797.425 Q2051.19 800.087 2051.19 804.786 Z" fill="#000000" fill-rule="nonzero" fill-opacity="1" /><path clip-path="url(#clip060)" d="M2100.91 803.698 L2100.91 805.781 L2081.33 805.781 Q2081.61 810.179 2083.97 812.494 Q2086.35 814.786 2090.59 814.786 Q2093.04 814.786 2095.33 814.184 Q2097.65 813.582 2099.92 812.378 L2099.92 816.406 Q2097.63 817.378 2095.22 817.887 Q2092.81 818.397 2090.33 818.397 Q2084.13 818.397 2080.5 814.786 Q2076.88 811.175 2076.88 805.017 Q2076.88 798.651 2080.31 794.925 Q2083.76 791.175 2089.59 791.175 Q2094.82 791.175 2097.86 794.554 Q2100.91 797.911 2100.91 803.698 M2096.65 802.448 Q2096.61 798.952 2094.69 796.869 Q2092.79 794.786 2089.64 794.786 Q2086.07 794.786 2083.92 796.8 Q2081.79 798.814 2081.47 802.471 L2096.65 802.448 Z" fill="#000000" fill-rule="nonzero" fill-opacity="1" /><path clip-path="url(#clip060)" d="M2104.85 791.8 L2109.36 791.8 L2117.46 813.559 L2125.56 791.8 L2130.08 791.8 L2120.36 817.725 L2114.57 817.725 L2104.85 791.8 Z" fill="#000000" fill-rule="nonzero" fill-opacity="1" /><path clip-path="url(#clip060)" d="M2135.96 791.8 L2140.22 791.8 L2140.22 817.725 L2135.96 817.725 L2135.96 791.8 M2135.96 781.707 L2140.22 781.707 L2140.22 787.101 L2135.96 787.101 L2135.96 781.707 Z" fill="#000000" fill-rule="nonzero" fill-opacity="1" /><path clip-path="url(#clip060)" d="M2160.91 804.693 Q2155.75 804.693 2153.76 805.874 Q2151.77 807.054 2151.77 809.901 Q2151.77 812.17 2153.25 813.513 Q2154.75 814.832 2157.32 814.832 Q2160.87 814.832 2163 812.332 Q2165.15 809.809 2165.15 805.642 L2165.15 804.693 L2160.91 804.693 M2169.41 802.934 L2169.41 817.725 L2165.15 817.725 L2165.15 813.79 Q2163.69 816.151 2161.51 817.286 Q2159.34 818.397 2156.19 818.397 Q2152.21 818.397 2149.85 816.175 Q2147.51 813.929 2147.51 810.179 Q2147.51 805.804 2150.43 803.582 Q2153.37 801.36 2159.18 801.36 L2165.15 801.36 L2165.15 800.943 Q2165.15 798.003 2163.2 796.406 Q2161.28 794.786 2157.79 794.786 Q2155.56 794.786 2153.46 795.318 Q2151.35 795.851 2149.41 796.915 L2149.41 792.98 Q2151.75 792.077 2153.94 791.638 Q2156.14 791.175 2158.23 791.175 Q2163.85 791.175 2166.63 794.091 Q2169.41 797.008 2169.41 802.934 Z" fill="#000000" fill-rule="nonzero" fill-opacity="1" /><path clip-path="url(#clip060)" d="M2182.39 784.439 L2182.39 791.8 L2191.17 791.8 L2191.17 795.11 L2182.39 795.11 L2182.39 809.184 Q2182.39 812.355 2183.25 813.258 Q2184.13 814.161 2186.79 814.161 L2191.17 814.161 L2191.17 817.725 L2186.79 817.725 Q2181.86 817.725 2179.99 815.897 Q2178.11 814.045 2178.11 809.184 L2178.11 795.11 L2174.99 795.11 L2174.99 791.8 L2178.11 791.8 L2178.11 784.439 L2182.39 784.439 Z" fill="#000000" fill-rule="nonzero" fill-opacity="1" /><path clip-path="url(#clip060)" d="M2196.77 791.8 L2201.03 791.8 L2201.03 817.725 L2196.77 817.725 L2196.77 791.8 M2196.77 781.707 L2201.03 781.707 L2201.03 787.101 L2196.77 787.101 L2196.77 781.707 Z" fill="#000000" fill-rule="nonzero" fill-opacity="1" /><path clip-path="url(#clip060)" d="M2219.99 794.786 Q2216.56 794.786 2214.57 797.471 Q2212.58 800.133 2212.58 804.786 Q2212.58 809.438 2214.55 812.124 Q2216.54 814.786 2219.99 814.786 Q2223.39 814.786 2225.38 812.1 Q2227.37 809.415 2227.37 804.786 Q2227.37 800.179 2225.38 797.494 Q2223.39 794.786 2219.99 794.786 M2219.99 791.175 Q2225.54 791.175 2228.71 794.786 Q2231.88 798.397 2231.88 804.786 Q2231.88 811.151 2228.71 814.786 Q2225.54 818.397 2219.99 818.397 Q2214.41 818.397 2211.24 814.786 Q2208.09 811.151 2208.09 804.786 Q2208.09 798.397 2211.24 794.786 Q2214.41 791.175 2219.99 791.175 Z" fill="#000000" fill-rule="nonzero" fill-opacity="1" /><path clip-path="url(#clip060)" d="M2260.49 802.077 L2260.49 817.725 L2256.24 817.725 L2256.24 802.216 Q2256.24 798.536 2254.8 796.707 Q2253.36 794.878 2250.49 794.878 Q2247.05 794.878 2245.05 797.077 Q2243.06 799.276 2243.06 803.073 L2243.06 817.725 L2238.78 817.725 L2238.78 791.8 L2243.06 791.8 L2243.06 795.827 Q2244.59 793.489 2246.65 792.332 Q2248.74 791.175 2251.44 791.175 Q2255.91 791.175 2258.2 793.952 Q2260.49 796.707 2260.49 802.077 Z" fill="#000000" fill-rule="nonzero" fill-opacity="1" /></svg>
