<?xml version="1.0" encoding="utf-8"?>
<svg xmlns="http://www.w3.org/2000/svg" xmlns:xlink="http://www.w3.org/1999/xlink" width="600" height="400" viewBox="0 0 2400 1600">
<defs>
  <clipPath id="clip090">
    <rect x="0" y="0" width="2400" height="1600"/>
  </clipPath>
</defs>
<path clip-path="url(#clip090)" d="M0 1600 L2400 1600 L2400 0 L0 0  Z" fill="#ffffff" fill-rule="evenodd" fill-opacity="1"/>
<defs>
  <clipPath id="clip091">
    <rect x="480" y="0" width="1681" height="1600"/>
  </clipPath>
</defs>
<path clip-path="url(#clip090)" d="M276.876 1410.9 L2352.76 1410.9 L2352.76 47.2441 L276.876 47.2441  Z" fill="#ffffff" fill-rule="evenodd" fill-opacity="1"/>
<defs>
  <clipPath id="clip092">
    <rect x="276" y="47" width="2077" height="1365"/>
  </clipPath>
</defs>
<polyline clip-path="url(#clip092)" style="stroke:#000000; stroke-linecap:round; stroke-linejoin:round; stroke-width:2; stroke-opacity:0.1; fill:none" points="335.627,1410.9 335.627,47.2441 "/>
<polyline clip-path="url(#clip092)" style="stroke:#000000; stroke-linecap:round; stroke-linejoin:round; stroke-width:2; stroke-opacity:0.1; fill:none" points="825.221,1410.9 825.221,47.2441 "/>
<polyline clip-path="url(#clip092)" style="stroke:#000000; stroke-linecap:round; stroke-linejoin:round; stroke-width:2; stroke-opacity:0.1; fill:none" points="1314.82,1410.9 1314.82,47.2441 "/>
<polyline clip-path="url(#clip092)" style="stroke:#000000; stroke-linecap:round; stroke-linejoin:round; stroke-width:2; stroke-opacity:0.1; fill:none" points="1804.41,1410.9 1804.41,47.2441 "/>
<polyline clip-path="url(#clip092)" style="stroke:#000000; stroke-linecap:round; stroke-linejoin:round; stroke-width:2; stroke-opacity:0.1; fill:none" points="2294,1410.9 2294,47.2441 "/>
<polyline clip-path="url(#clip092)" style="stroke:#000000; stroke-linecap:round; stroke-linejoin:round; stroke-width:2; stroke-opacity:0.1; fill:none" points="276.876,1073.93 2352.76,1073.93 "/>
<polyline clip-path="url(#clip092)" style="stroke:#000000; stroke-linecap:round; stroke-linejoin:round; stroke-width:2; stroke-opacity:0.1; fill:none" points="276.876,672.705 2352.76,672.705 "/>
<polyline clip-path="url(#clip092)" style="stroke:#000000; stroke-linecap:round; stroke-linejoin:round; stroke-width:2; stroke-opacity:0.1; fill:none" points="276.876,271.479 2352.76,271.479 "/>
<polyline clip-path="url(#clip090)" style="stroke:#000000; stroke-linecap:round; stroke-linejoin:round; stroke-width:4; stroke-opacity:1; fill:none" points="276.876,1410.9 2352.76,1410.9 "/>
<polyline clip-path="url(#clip090)" style="stroke:#000000; stroke-linecap:round; stroke-linejoin:round; stroke-width:4; stroke-opacity:1; fill:none" points="335.627,1410.9 335.627,1392 "/>
<polyline clip-path="url(#clip090)" style="stroke:#000000; stroke-linecap:round; stroke-linejoin:round; stroke-width:4; stroke-opacity:1; fill:none" points="825.221,1410.9 825.221,1392 "/>
<polyline clip-path="url(#clip090)" style="stroke:#000000; stroke-linecap:round; stroke-linejoin:round; stroke-width:4; stroke-opacity:1; fill:none" points="1314.82,1410.9 1314.82,1392 "/>
<polyline clip-path="url(#clip090)" style="stroke:#000000; stroke-linecap:round; stroke-linejoin:round; stroke-width:4; stroke-opacity:1; fill:none" points="1804.41,1410.9 1804.41,1392 "/>
<polyline clip-path="url(#clip090)" style="stroke:#000000; stroke-linecap:round; stroke-linejoin:round; stroke-width:4; stroke-opacity:1; fill:none" points="2294,1410.9 2294,1392 "/>
<path clip-path="url(#clip090)" d="M335.627 1441.82 Q332.016 1441.82 330.187 1445.38 Q328.382 1448.92 328.382 1456.05 Q328.382 1463.16 330.187 1466.72 Q332.016 1470.26 335.627 1470.26 Q339.261 1470.26 341.067 1466.72 Q342.895 1463.16 342.895 1456.05 Q342.895 1448.92 341.067 1445.38 Q339.261 1441.82 335.627 1441.82 M335.627 1438.11 Q341.437 1438.11 344.493 1442.72 Q347.571 1447.3 347.571 1456.05 Q347.571 1464.78 344.493 1469.38 Q341.437 1473.97 335.627 1473.97 Q329.817 1473.97 326.738 1469.38 Q323.682 1464.78 323.682 1456.05 Q323.682 1447.3 326.738 1442.72 Q329.817 1438.11 335.627 1438.11 Z" fill="#000000" fill-rule="nonzero" fill-opacity="1" /><path clip-path="url(#clip090)" d="M721.125 1485.02 L737.444 1485.02 L737.444 1488.96 L715.5 1488.96 L715.5 1485.02 Q718.162 1482.27 722.745 1477.64 Q727.351 1472.98 728.532 1471.64 Q730.777 1469.12 731.657 1467.38 Q732.56 1465.62 732.56 1463.93 Q732.56 1461.18 730.615 1459.44 Q728.694 1457.71 725.592 1457.71 Q723.393 1457.71 720.939 1458.47 Q718.509 1459.23 715.731 1460.79 L715.731 1456.06 Q718.555 1454.93 721.009 1454.35 Q723.463 1453.77 725.5 1453.77 Q730.87 1453.77 734.064 1456.46 Q737.259 1459.14 737.259 1463.63 Q737.259 1465.76 736.449 1467.68 Q735.662 1469.58 733.555 1472.17 Q732.976 1472.85 729.875 1476.06 Q726.773 1479.26 721.125 1485.02 Z" fill="#000000" fill-rule="nonzero" fill-opacity="1" /><path clip-path="url(#clip090)" d="M747.259 1483.08 L752.143 1483.08 L752.143 1488.96 L747.259 1488.96 L747.259 1483.08 Z" fill="#000000" fill-rule="nonzero" fill-opacity="1" /><path clip-path="url(#clip090)" d="M762.374 1454.4 L780.731 1454.4 L780.731 1458.33 L766.657 1458.33 L766.657 1466.8 Q767.675 1466.46 768.694 1466.29 Q769.712 1466.11 770.731 1466.11 Q776.518 1466.11 779.897 1469.28 Q783.277 1472.45 783.277 1477.87 Q783.277 1483.45 779.805 1486.55 Q776.333 1489.63 770.013 1489.63 Q767.837 1489.63 765.569 1489.26 Q763.323 1488.89 760.916 1488.15 L760.916 1483.45 Q762.999 1484.58 765.222 1485.14 Q767.444 1485.69 769.921 1485.69 Q773.925 1485.69 776.263 1483.59 Q778.601 1481.48 778.601 1477.87 Q778.601 1474.26 776.263 1472.15 Q773.925 1470.04 769.921 1470.04 Q768.046 1470.04 766.171 1470.46 Q764.319 1470.88 762.374 1471.76 L762.374 1454.4 Z" fill="#000000" fill-rule="nonzero" fill-opacity="1" /><path clip-path="url(#clip090)" d="M802.49 1457.48 Q798.879 1457.48 797.05 1461.04 Q795.245 1464.58 795.245 1471.71 Q795.245 1478.82 797.05 1482.38 Q798.879 1485.92 802.49 1485.92 Q806.124 1485.92 807.93 1482.38 Q809.758 1478.82 809.758 1471.71 Q809.758 1464.58 807.93 1461.04 Q806.124 1457.48 802.49 1457.48 M802.49 1453.77 Q808.3 1453.77 811.356 1458.38 Q814.434 1462.96 814.434 1471.71 Q814.434 1480.44 811.356 1485.04 Q808.3 1489.63 802.49 1489.63 Q796.68 1489.63 793.601 1485.04 Q790.546 1480.44 790.546 1471.71 Q790.546 1462.96 793.601 1458.38 Q796.68 1453.77 802.49 1453.77 Z" fill="#000000" fill-rule="nonzero" fill-opacity="1" /><path clip-path="url(#clip090)" d="M850.823 1463.49 L840.244 1474.12 L850.823 1484.7 L848.068 1487.5 L837.443 1476.87 L826.818 1487.5 L824.087 1484.7 L834.643 1474.12 L824.087 1463.49 L826.818 1460.69 L837.443 1471.32 L848.068 1460.69 L850.823 1463.49 Z" fill="#000000" fill-rule="nonzero" fill-opacity="1" /><path clip-path="url(#clip090)" d="M863.184 1485.02 L870.823 1485.02 L870.823 1458.66 L862.513 1460.32 L862.513 1456.06 L870.777 1454.4 L875.452 1454.4 L875.452 1485.02 L883.091 1485.02 L883.091 1488.96 L863.184 1488.96 L863.184 1485.02 Z" fill="#000000" fill-rule="nonzero" fill-opacity="1" /><path clip-path="url(#clip090)" d="M902.536 1457.48 Q898.925 1457.48 897.096 1461.04 Q895.29 1464.58 895.29 1471.71 Q895.29 1478.82 897.096 1482.38 Q898.925 1485.92 902.536 1485.92 Q906.17 1485.92 907.975 1482.38 Q909.804 1478.82 909.804 1471.71 Q909.804 1464.58 907.975 1461.04 Q906.17 1457.48 902.536 1457.48 M902.536 1453.77 Q908.346 1453.77 911.401 1458.38 Q914.48 1462.96 914.48 1471.71 Q914.48 1480.44 911.401 1485.04 Q908.346 1489.63 902.536 1489.63 Q896.726 1489.63 893.647 1485.04 Q890.591 1480.44 890.591 1471.71 Q890.591 1462.96 893.647 1458.38 Q896.726 1453.77 902.536 1453.77 Z" fill="#000000" fill-rule="nonzero" fill-opacity="1" /><path clip-path="url(#clip090)" d="M927.156 1436.78 L917.565 1451.77 L927.156 1451.77 L927.156 1436.78 M926.16 1433.47 L930.937 1433.47 L930.937 1451.77 L934.943 1451.77 L934.943 1454.93 L930.937 1454.93 L930.937 1461.55 L927.156 1461.55 L927.156 1454.93 L914.48 1454.93 L914.48 1451.26 L926.16 1433.47 Z" fill="#000000" fill-rule="nonzero" fill-opacity="1" /><path clip-path="url(#clip090)" d="M1206.64 1454.4 L1225 1454.4 L1225 1458.33 L1210.93 1458.33 L1210.93 1466.8 Q1211.95 1466.46 1212.96 1466.29 Q1213.98 1466.11 1215 1466.11 Q1220.79 1466.11 1224.17 1469.28 Q1227.55 1472.45 1227.55 1477.87 Q1227.55 1483.45 1224.08 1486.55 Q1220.6 1489.63 1214.28 1489.63 Q1212.11 1489.63 1209.84 1489.26 Q1207.59 1488.89 1205.19 1488.15 L1205.19 1483.45 Q1207.27 1484.58 1209.49 1485.14 Q1211.71 1485.69 1214.19 1485.69 Q1218.2 1485.69 1220.53 1483.59 Q1222.87 1481.48 1222.87 1477.87 Q1222.87 1474.26 1220.53 1472.15 Q1218.2 1470.04 1214.19 1470.04 Q1212.32 1470.04 1210.44 1470.46 Q1208.59 1470.88 1206.64 1471.76 L1206.64 1454.4 Z" fill="#000000" fill-rule="nonzero" fill-opacity="1" /><path clip-path="url(#clip090)" d="M1236.76 1483.08 L1241.64 1483.08 L1241.64 1488.96 L1236.76 1488.96 L1236.76 1483.08 Z" fill="#000000" fill-rule="nonzero" fill-opacity="1" /><path clip-path="url(#clip090)" d="M1261.83 1457.48 Q1258.22 1457.48 1256.39 1461.04 Q1254.58 1464.58 1254.58 1471.71 Q1254.58 1478.82 1256.39 1482.38 Q1258.22 1485.92 1261.83 1485.92 Q1265.46 1485.92 1267.27 1482.38 Q1269.1 1478.82 1269.1 1471.71 Q1269.1 1464.58 1267.27 1461.04 Q1265.46 1457.48 1261.83 1457.48 M1261.83 1453.77 Q1267.64 1453.77 1270.7 1458.38 Q1273.77 1462.96 1273.77 1471.71 Q1273.77 1480.44 1270.7 1485.04 Q1267.64 1489.63 1261.83 1489.63 Q1256.02 1489.63 1252.94 1485.04 Q1249.89 1480.44 1249.89 1471.71 Q1249.89 1462.96 1252.94 1458.38 Q1256.02 1453.77 1261.83 1453.77 Z" fill="#000000" fill-rule="nonzero" fill-opacity="1" /><path clip-path="url(#clip090)" d="M1291.99 1457.48 Q1288.38 1457.48 1286.55 1461.04 Q1284.75 1464.58 1284.75 1471.71 Q1284.75 1478.82 1286.55 1482.38 Q1288.38 1485.92 1291.99 1485.92 Q1295.63 1485.92 1297.43 1482.38 Q1299.26 1478.82 1299.26 1471.71 Q1299.26 1464.58 1297.43 1461.04 Q1295.63 1457.48 1291.99 1457.48 M1291.99 1453.77 Q1297.8 1453.77 1300.86 1458.38 Q1303.94 1462.96 1303.94 1471.71 Q1303.94 1480.44 1300.86 1485.04 Q1297.8 1489.63 1291.99 1489.63 Q1286.18 1489.63 1283.1 1485.04 Q1280.05 1480.44 1280.05 1471.71 Q1280.05 1462.96 1283.1 1458.38 Q1286.18 1453.77 1291.99 1453.77 Z" fill="#000000" fill-rule="nonzero" fill-opacity="1" /><path clip-path="url(#clip090)" d="M1340.32 1463.49 L1329.75 1474.12 L1340.32 1484.7 L1337.57 1487.5 L1326.95 1476.87 L1316.32 1487.5 L1313.59 1484.7 L1324.14 1474.12 L1313.59 1463.49 L1316.32 1460.69 L1326.95 1471.32 L1337.57 1460.69 L1340.32 1463.49 Z" fill="#000000" fill-rule="nonzero" fill-opacity="1" /><path clip-path="url(#clip090)" d="M1352.69 1485.02 L1360.32 1485.02 L1360.32 1458.66 L1352.01 1460.32 L1352.01 1456.06 L1360.28 1454.4 L1364.95 1454.4 L1364.95 1485.02 L1372.59 1485.02 L1372.59 1488.96 L1352.69 1488.96 L1352.69 1485.02 Z" fill="#000000" fill-rule="nonzero" fill-opacity="1" /><path clip-path="url(#clip090)" d="M1392.04 1457.48 Q1388.43 1457.48 1386.6 1461.04 Q1384.79 1464.58 1384.79 1471.71 Q1384.79 1478.82 1386.6 1482.38 Q1388.43 1485.92 1392.04 1485.92 Q1395.67 1485.92 1397.48 1482.38 Q1399.31 1478.82 1399.31 1471.71 Q1399.31 1464.58 1397.48 1461.04 Q1395.67 1457.48 1392.04 1457.48 M1392.04 1453.77 Q1397.85 1453.77 1400.9 1458.38 Q1403.98 1462.96 1403.98 1471.71 Q1403.98 1480.44 1400.9 1485.04 Q1397.85 1489.63 1392.04 1489.63 Q1386.23 1489.63 1383.15 1485.04 Q1380.09 1480.44 1380.09 1471.71 Q1380.09 1462.96 1383.15 1458.38 Q1386.23 1453.77 1392.04 1453.77 Z" fill="#000000" fill-rule="nonzero" fill-opacity="1" /><path clip-path="url(#clip090)" d="M1416.66 1436.78 L1407.07 1451.77 L1416.66 1451.77 L1416.66 1436.78 M1415.66 1433.47 L1420.44 1433.47 L1420.44 1451.77 L1424.44 1451.77 L1424.44 1454.93 L1420.44 1454.93 L1420.44 1461.55 L1416.66 1461.55 L1416.66 1454.93 L1403.98 1454.93 L1403.98 1451.26 L1415.66 1433.47 Z" fill="#000000" fill-rule="nonzero" fill-opacity="1" /><path clip-path="url(#clip090)" d="M1694.9 1454.4 L1717.12 1454.4 L1717.12 1456.39 L1704.57 1488.96 L1699.69 1488.96 L1711.49 1458.33 L1694.9 1458.33 L1694.9 1454.4 Z" fill="#000000" fill-rule="nonzero" fill-opacity="1" /><path clip-path="url(#clip090)" d="M1726.24 1483.08 L1731.12 1483.08 L1731.12 1488.96 L1726.24 1488.96 L1726.24 1483.08 Z" fill="#000000" fill-rule="nonzero" fill-opacity="1" /><path clip-path="url(#clip090)" d="M1741.35 1454.4 L1759.71 1454.4 L1759.71 1458.33 L1745.64 1458.33 L1745.64 1466.8 Q1746.66 1466.46 1747.67 1466.29 Q1748.69 1466.11 1749.71 1466.11 Q1755.5 1466.11 1758.88 1469.28 Q1762.26 1472.45 1762.26 1477.87 Q1762.26 1483.45 1758.79 1486.55 Q1755.31 1489.63 1748.99 1489.63 Q1746.82 1489.63 1744.55 1489.26 Q1742.3 1488.89 1739.9 1488.15 L1739.9 1483.45 Q1741.98 1484.58 1744.2 1485.14 Q1746.42 1485.69 1748.9 1485.69 Q1752.91 1485.69 1755.24 1483.59 Q1757.58 1481.48 1757.58 1477.87 Q1757.58 1474.26 1755.24 1472.15 Q1752.91 1470.04 1748.9 1470.04 Q1747.03 1470.04 1745.15 1470.46 Q1743.3 1470.88 1741.35 1471.76 L1741.35 1454.4 Z" fill="#000000" fill-rule="nonzero" fill-opacity="1" /><path clip-path="url(#clip090)" d="M1781.47 1457.48 Q1777.86 1457.48 1776.03 1461.04 Q1774.23 1464.58 1774.23 1471.71 Q1774.23 1478.82 1776.03 1482.38 Q1777.86 1485.92 1781.47 1485.92 Q1785.1 1485.92 1786.91 1482.38 Q1788.74 1478.82 1788.74 1471.71 Q1788.74 1464.58 1786.91 1461.04 Q1785.1 1457.48 1781.47 1457.48 M1781.47 1453.77 Q1787.28 1453.77 1790.34 1458.38 Q1793.41 1462.96 1793.41 1471.71 Q1793.41 1480.44 1790.34 1485.04 Q1787.28 1489.63 1781.47 1489.63 Q1775.66 1489.63 1772.58 1485.04 Q1769.53 1480.44 1769.53 1471.71 Q1769.53 1462.96 1772.58 1458.38 Q1775.66 1453.77 1781.47 1453.77 Z" fill="#000000" fill-rule="nonzero" fill-opacity="1" /><path clip-path="url(#clip090)" d="M1829.8 1463.49 L1819.22 1474.12 L1829.8 1484.7 L1827.05 1487.5 L1816.42 1476.87 L1805.8 1487.5 L1803.07 1484.7 L1813.62 1474.12 L1803.07 1463.49 L1805.8 1460.69 L1816.42 1471.32 L1827.05 1460.69 L1829.8 1463.49 Z" fill="#000000" fill-rule="nonzero" fill-opacity="1" /><path clip-path="url(#clip090)" d="M1842.16 1485.02 L1849.8 1485.02 L1849.8 1458.66 L1841.49 1460.32 L1841.49 1456.06 L1849.76 1454.4 L1854.43 1454.4 L1854.43 1485.02 L1862.07 1485.02 L1862.07 1488.96 L1842.16 1488.96 L1842.16 1485.02 Z" fill="#000000" fill-rule="nonzero" fill-opacity="1" /><path clip-path="url(#clip090)" d="M1881.52 1457.48 Q1877.91 1457.48 1876.08 1461.04 Q1874.27 1464.58 1874.27 1471.71 Q1874.27 1478.82 1876.08 1482.38 Q1877.91 1485.92 1881.52 1485.92 Q1885.15 1485.92 1886.96 1482.38 Q1888.78 1478.82 1888.78 1471.71 Q1888.78 1464.58 1886.96 1461.04 Q1885.15 1457.48 1881.52 1457.48 M1881.52 1453.77 Q1887.33 1453.77 1890.38 1458.38 Q1893.46 1462.96 1893.46 1471.71 Q1893.46 1480.44 1890.38 1485.04 Q1887.33 1489.63 1881.52 1489.63 Q1875.71 1489.63 1872.63 1485.04 Q1869.57 1480.44 1869.57 1471.71 Q1869.57 1462.96 1872.63 1458.38 Q1875.71 1453.77 1881.52 1453.77 Z" fill="#000000" fill-rule="nonzero" fill-opacity="1" /><path clip-path="url(#clip090)" d="M1906.14 1436.78 L1896.55 1451.77 L1906.14 1451.77 L1906.14 1436.78 M1905.14 1433.47 L1909.92 1433.47 L1909.92 1451.77 L1913.92 1451.77 L1913.92 1454.93 L1909.92 1454.93 L1909.92 1461.55 L1906.14 1461.55 L1906.14 1454.93 L1893.46 1454.93 L1893.46 1451.26 L1905.14 1433.47 Z" fill="#000000" fill-rule="nonzero" fill-opacity="1" /><path clip-path="url(#clip090)" d="M2186.97 1485.02 L2194.61 1485.02 L2194.61 1458.66 L2186.3 1460.32 L2186.3 1456.06 L2194.56 1454.4 L2199.24 1454.4 L2199.24 1485.02 L2206.88 1485.02 L2206.88 1488.96 L2186.97 1488.96 L2186.97 1485.02 Z" fill="#000000" fill-rule="nonzero" fill-opacity="1" /><path clip-path="url(#clip090)" d="M2216.32 1483.08 L2221.21 1483.08 L2221.21 1488.96 L2216.32 1488.96 L2216.32 1483.08 Z" fill="#000000" fill-rule="nonzero" fill-opacity="1" /><path clip-path="url(#clip090)" d="M2241.39 1457.48 Q2237.78 1457.48 2235.95 1461.04 Q2234.15 1464.58 2234.15 1471.71 Q2234.15 1478.82 2235.95 1482.38 Q2237.78 1485.92 2241.39 1485.92 Q2245.02 1485.92 2246.83 1482.38 Q2248.66 1478.82 2248.66 1471.71 Q2248.66 1464.58 2246.83 1461.04 Q2245.02 1457.48 2241.39 1457.48 M2241.39 1453.77 Q2247.2 1453.77 2250.26 1458.38 Q2253.33 1462.96 2253.33 1471.71 Q2253.33 1480.44 2250.26 1485.04 Q2247.2 1489.63 2241.39 1489.63 Q2235.58 1489.63 2232.5 1485.04 Q2229.45 1480.44 2229.45 1471.71 Q2229.45 1462.96 2232.5 1458.38 Q2235.58 1453.77 2241.39 1453.77 Z" fill="#000000" fill-rule="nonzero" fill-opacity="1" /><path clip-path="url(#clip090)" d="M2271.55 1457.48 Q2267.94 1457.48 2266.11 1461.04 Q2264.31 1464.58 2264.31 1471.71 Q2264.31 1478.82 2266.11 1482.38 Q2267.94 1485.92 2271.55 1485.92 Q2275.19 1485.92 2276.99 1482.38 Q2278.82 1478.82 2278.82 1471.71 Q2278.82 1464.58 2276.99 1461.04 Q2275.19 1457.48 2271.55 1457.48 M2271.55 1453.77 Q2277.36 1453.77 2280.42 1458.38 Q2283.5 1462.96 2283.5 1471.71 Q2283.5 1480.44 2280.42 1485.04 Q2277.36 1489.63 2271.55 1489.63 Q2265.74 1489.63 2262.66 1485.04 Q2259.61 1480.44 2259.61 1471.71 Q2259.61 1462.96 2262.66 1458.38 Q2265.74 1453.77 2271.55 1453.77 Z" fill="#000000" fill-rule="nonzero" fill-opacity="1" /><path clip-path="url(#clip090)" d="M2319.89 1463.49 L2309.31 1474.12 L2319.89 1484.7 L2317.13 1487.5 L2306.51 1476.87 L2295.88 1487.5 L2293.15 1484.7 L2303.71 1474.12 L2293.15 1463.49 L2295.88 1460.69 L2306.51 1471.32 L2317.13 1460.69 L2319.89 1463.49 Z" fill="#000000" fill-rule="nonzero" fill-opacity="1" /><path clip-path="url(#clip090)" d="M2332.25 1485.02 L2339.89 1485.02 L2339.89 1458.66 L2331.58 1460.32 L2331.58 1456.06 L2339.84 1454.4 L2344.52 1454.4 L2344.52 1485.02 L2352.15 1485.02 L2352.15 1488.96 L2332.25 1488.96 L2332.25 1485.02 Z" fill="#000000" fill-rule="nonzero" fill-opacity="1" /><path clip-path="url(#clip090)" d="M2371.6 1457.48 Q2367.99 1457.48 2366.16 1461.04 Q2364.35 1464.58 2364.35 1471.71 Q2364.35 1478.82 2366.16 1482.38 Q2367.99 1485.92 2371.6 1485.92 Q2375.23 1485.92 2377.04 1482.38 Q2378.87 1478.82 2378.87 1471.71 Q2378.87 1464.58 2377.04 1461.04 Q2375.23 1457.48 2371.6 1457.48 M2371.6 1453.77 Q2377.41 1453.77 2380.46 1458.38 Q2383.54 1462.96 2383.54 1471.71 Q2383.54 1480.44 2380.46 1485.04 Q2377.41 1489.63 2371.6 1489.63 Q2365.79 1489.63 2362.71 1485.04 Q2359.65 1480.44 2359.65 1471.71 Q2359.65 1462.96 2362.71 1458.38 Q2365.79 1453.77 2371.6 1453.77 Z" fill="#000000" fill-rule="nonzero" fill-opacity="1" /><path clip-path="url(#clip090)" d="M2384.73 1433.47 L2399.64 1433.47 L2399.64 1436.66 L2388.21 1436.66 L2388.21 1443.55 Q2389.03 1443.27 2389.86 1443.13 Q2390.69 1442.98 2391.52 1442.98 Q2396.22 1442.98 2398.96 1445.56 Q2401.71 1448.14 2401.71 1452.54 Q2401.71 1457.07 2398.89 1459.59 Q2396.07 1462.09 2390.93 1462.09 Q2389.17 1462.09 2387.32 1461.79 Q2385.5 1461.49 2383.54 1460.89 L2383.54 1457.07 Q2385.24 1457.99 2387.04 1458.44 Q2388.85 1458.89 2390.86 1458.89 Q2394.11 1458.89 2396.01 1457.18 Q2397.91 1455.47 2397.91 1452.54 Q2397.91 1449.6 2396.01 1447.89 Q2394.11 1446.18 2390.86 1446.18 Q2389.34 1446.18 2387.81 1446.52 Q2386.31 1446.86 2384.73 1447.57 L2384.73 1433.47 Z" fill="#000000" fill-rule="nonzero" fill-opacity="1" /><path clip-path="url(#clip090)" d="M1075.04 1526.67 L1102.34 1526.67 L1102.34 1532.08 L1081.46 1532.08 L1081.46 1546.08 L1100.31 1546.08 L1100.31 1551.49 L1081.46 1551.49 L1081.46 1574.19 L1075.04 1574.19 L1075.04 1526.67 Z" fill="#000000" fill-rule="nonzero" fill-opacity="1" /><path clip-path="url(#clip090)" d="M1128.19 1544.01 Q1127.2 1543.44 1126.02 1543.18 Q1124.88 1542.9 1123.48 1542.9 Q1118.51 1542.9 1115.84 1546.14 Q1113.2 1549.36 1113.2 1555.41 L1113.2 1574.19 L1107.31 1574.19 L1107.31 1538.54 L1113.2 1538.54 L1113.2 1544.08 Q1115.04 1540.83 1118 1539.27 Q1120.96 1537.68 1125.2 1537.68 Q1125.8 1537.68 1126.53 1537.77 Q1127.27 1537.84 1128.16 1538 L1128.19 1544.01 Z" fill="#000000" fill-rule="nonzero" fill-opacity="1" /><path clip-path="url(#clip090)" d="M1163.39 1554.9 L1163.39 1557.76 L1136.46 1557.76 Q1136.85 1563.81 1140.09 1566.99 Q1143.37 1570.14 1149.2 1570.14 Q1152.57 1570.14 1155.72 1569.32 Q1158.9 1568.49 1162.02 1566.83 L1162.02 1572.37 Q1158.87 1573.71 1155.56 1574.41 Q1152.25 1575.11 1148.85 1575.11 Q1140.32 1575.11 1135.32 1570.14 Q1130.35 1565.18 1130.35 1556.71 Q1130.35 1547.96 1135.06 1542.83 Q1139.81 1537.68 1147.83 1537.68 Q1155.02 1537.68 1159.19 1542.33 Q1163.39 1546.94 1163.39 1554.9 M1157.54 1553.18 Q1157.47 1548.37 1154.83 1545.51 Q1152.22 1542.64 1147.89 1542.64 Q1142.99 1542.64 1140.03 1545.41 Q1137.1 1548.18 1136.66 1553.21 L1157.54 1553.18 Z" fill="#000000" fill-rule="nonzero" fill-opacity="1" /><path clip-path="url(#clip090)" d="M1176.5 1556.39 Q1176.5 1562.85 1179.15 1566.55 Q1181.82 1570.21 1186.47 1570.21 Q1191.11 1570.21 1193.79 1566.55 Q1196.46 1562.85 1196.46 1556.39 Q1196.46 1549.93 1193.79 1546.27 Q1191.11 1542.58 1186.47 1542.58 Q1181.82 1542.58 1179.15 1546.27 Q1176.5 1549.93 1176.5 1556.39 M1196.46 1568.84 Q1194.62 1572.02 1191.78 1573.58 Q1188.98 1575.11 1185.03 1575.11 Q1178.57 1575.11 1174.5 1569.95 Q1170.46 1564.8 1170.46 1556.39 Q1170.46 1547.99 1174.5 1542.83 Q1178.57 1537.68 1185.03 1537.68 Q1188.98 1537.68 1191.78 1539.24 Q1194.62 1540.77 1196.46 1543.95 L1196.46 1538.54 L1202.32 1538.54 L1202.32 1587.74 L1196.46 1587.74 L1196.46 1568.84 Z" fill="#000000" fill-rule="nonzero" fill-opacity="1" /><path clip-path="url(#clip090)" d="M1213.78 1560.12 L1213.78 1538.54 L1219.63 1538.54 L1219.63 1559.89 Q1219.63 1564.96 1221.61 1567.5 Q1223.58 1570.02 1227.53 1570.02 Q1232.27 1570.02 1235.01 1566.99 Q1237.77 1563.97 1237.77 1558.75 L1237.77 1538.54 L1243.63 1538.54 L1243.63 1574.19 L1237.77 1574.19 L1237.77 1568.71 Q1235.64 1571.96 1232.81 1573.55 Q1230.01 1575.11 1226.28 1575.11 Q1220.14 1575.11 1216.96 1571.29 Q1213.78 1567.47 1213.78 1560.12 M1228.51 1537.68 L1228.51 1537.68 Z" fill="#000000" fill-rule="nonzero" fill-opacity="1" /><path clip-path="url(#clip090)" d="M1286.19 1554.9 L1286.19 1557.76 L1259.26 1557.76 Q1259.64 1563.81 1262.89 1566.99 Q1266.17 1570.14 1271.99 1570.14 Q1275.36 1570.14 1278.52 1569.32 Q1281.7 1568.49 1284.82 1566.83 L1284.82 1572.37 Q1281.67 1573.71 1278.36 1574.41 Q1275.05 1575.11 1271.64 1575.11 Q1263.11 1575.11 1258.11 1570.14 Q1253.15 1565.18 1253.15 1556.71 Q1253.15 1547.96 1257.86 1542.83 Q1262.6 1537.68 1270.62 1537.68 Q1277.82 1537.68 1281.98 1542.33 Q1286.19 1546.94 1286.19 1554.9 M1280.33 1553.18 Q1280.27 1548.37 1277.62 1545.51 Q1275.01 1542.64 1270.69 1542.64 Q1265.78 1542.64 1262.82 1545.41 Q1259.9 1548.18 1259.45 1553.21 L1280.33 1553.18 Z" fill="#000000" fill-rule="nonzero" fill-opacity="1" /><path clip-path="url(#clip090)" d="M1325.43 1552.67 L1325.43 1574.19 L1319.57 1574.19 L1319.57 1552.86 Q1319.57 1547.8 1317.6 1545.29 Q1315.63 1542.77 1311.68 1542.77 Q1306.94 1542.77 1304.2 1545.79 Q1301.46 1548.82 1301.46 1554.04 L1301.46 1574.19 L1295.58 1574.19 L1295.58 1538.54 L1301.46 1538.54 L1301.46 1544.08 Q1303.56 1540.86 1306.4 1539.27 Q1309.26 1537.68 1312.99 1537.68 Q1319.13 1537.68 1322.28 1541.5 Q1325.43 1545.29 1325.43 1552.67 Z" fill="#000000" fill-rule="nonzero" fill-opacity="1" /><path clip-path="url(#clip090)" d="M1362.77 1539.91 L1362.77 1545.38 Q1360.28 1544.01 1357.77 1543.34 Q1355.29 1542.64 1352.74 1542.64 Q1347.04 1542.64 1343.89 1546.27 Q1340.74 1549.87 1340.74 1556.39 Q1340.74 1562.92 1343.89 1566.55 Q1347.04 1570.14 1352.74 1570.14 Q1355.29 1570.14 1357.77 1569.47 Q1360.28 1568.77 1362.77 1567.41 L1362.77 1572.82 Q1360.31 1573.96 1357.67 1574.54 Q1355.06 1575.11 1352.1 1575.11 Q1344.05 1575.11 1339.31 1570.05 Q1334.57 1564.99 1334.57 1556.39 Q1334.57 1547.67 1339.34 1542.68 Q1344.15 1537.68 1352.48 1537.68 Q1355.19 1537.68 1357.77 1538.25 Q1360.35 1538.79 1362.77 1539.91 Z" fill="#000000" fill-rule="nonzero" fill-opacity="1" /><path clip-path="url(#clip090)" d="M1387.78 1577.5 Q1385.3 1583.86 1382.94 1585.8 Q1380.59 1587.74 1376.64 1587.74 L1371.96 1587.74 L1371.96 1582.84 L1375.4 1582.84 Q1377.82 1582.84 1379.16 1581.7 Q1380.49 1580.55 1382.12 1576.29 L1383.17 1573.61 L1368.75 1538.54 L1374.96 1538.54 L1386.1 1566.42 L1397.24 1538.54 L1403.44 1538.54 L1387.78 1577.5 Z" fill="#000000" fill-rule="nonzero" fill-opacity="1" /><path clip-path="url(#clip090)" d="M1431.71 1524.66 L1445.2 1524.66 L1445.2 1529.21 L1437.56 1529.21 L1437.56 1578.23 L1445.2 1578.23 L1445.2 1582.78 L1431.71 1582.78 L1431.71 1524.66 Z" fill="#000000" fill-rule="nonzero" fill-opacity="1" /><path clip-path="url(#clip090)" d="M1457.93 1526.67 L1464.36 1526.67 L1464.36 1546.14 L1487.72 1546.14 L1487.72 1526.67 L1494.15 1526.67 L1494.15 1574.19 L1487.72 1574.19 L1487.72 1551.56 L1464.36 1551.56 L1464.36 1574.19 L1457.93 1574.19 L1457.93 1526.67 Z" fill="#000000" fill-rule="nonzero" fill-opacity="1" /><path clip-path="url(#clip090)" d="M1504.15 1538.54 L1531.97 1538.54 L1531.97 1543.88 L1509.94 1569.51 L1531.97 1569.51 L1531.97 1574.19 L1503.35 1574.19 L1503.35 1568.84 L1525.38 1543.22 L1504.15 1543.22 L1504.15 1538.54 Z" fill="#000000" fill-rule="nonzero" fill-opacity="1" /><path clip-path="url(#clip090)" d="M1554.6 1524.66 L1554.6 1582.78 L1541.1 1582.78 L1541.1 1578.23 L1548.71 1578.23 L1548.71 1529.21 L1541.1 1529.21 L1541.1 1524.66 L1554.6 1524.66 Z" fill="#000000" fill-rule="nonzero" fill-opacity="1" /><polyline clip-path="url(#clip090)" style="stroke:#000000; stroke-linecap:round; stroke-linejoin:round; stroke-width:4; stroke-opacity:1; fill:none" points="276.876,1410.9 276.876,47.2441 "/>
<polyline clip-path="url(#clip090)" style="stroke:#000000; stroke-linecap:round; stroke-linejoin:round; stroke-width:4; stroke-opacity:1; fill:none" points="276.876,1073.93 295.773,1073.93 "/>
<polyline clip-path="url(#clip090)" style="stroke:#000000; stroke-linecap:round; stroke-linejoin:round; stroke-width:4; stroke-opacity:1; fill:none" points="276.876,672.705 295.773,672.705 "/>
<polyline clip-path="url(#clip090)" style="stroke:#000000; stroke-linecap:round; stroke-linejoin:round; stroke-width:4; stroke-opacity:1; fill:none" points="276.876,271.479 295.773,271.479 "/>
<path clip-path="url(#clip090)" d="M114.931 1093.72 L122.57 1093.72 L122.57 1067.36 L114.26 1069.02 L114.26 1064.77 L122.524 1063.1 L127.2 1063.1 L127.2 1093.72 L134.839 1093.72 L134.839 1097.66 L114.931 1097.66 L114.931 1093.72 Z" fill="#000000" fill-rule="nonzero" fill-opacity="1" /><path clip-path="url(#clip090)" d="M154.283 1066.18 Q150.672 1066.18 148.843 1069.74 Q147.038 1073.28 147.038 1080.41 Q147.038 1087.52 148.843 1091.08 Q150.672 1094.63 154.283 1094.63 Q157.917 1094.63 159.723 1091.08 Q161.552 1087.52 161.552 1080.41 Q161.552 1073.28 159.723 1069.74 Q157.917 1066.18 154.283 1066.18 M154.283 1062.47 Q160.093 1062.47 163.149 1067.08 Q166.227 1071.66 166.227 1080.41 Q166.227 1089.14 163.149 1093.75 Q160.093 1098.33 154.283 1098.33 Q148.473 1098.33 145.394 1093.75 Q142.339 1089.14 142.339 1080.41 Q142.339 1071.66 145.394 1067.08 Q148.473 1062.47 154.283 1062.47 Z" fill="#000000" fill-rule="nonzero" fill-opacity="1" /><path clip-path="url(#clip090)" d="M166.227 1056.58 L190.339 1056.58 L190.339 1059.77 L166.227 1059.77 L166.227 1056.58 Z" fill="#000000" fill-rule="nonzero" fill-opacity="1" /><path clip-path="url(#clip090)" d="M199.197 1067.05 L205.404 1067.05 L205.404 1045.63 L198.652 1046.98 L198.652 1043.52 L205.366 1042.17 L209.166 1042.17 L209.166 1067.05 L215.372 1067.05 L215.372 1070.25 L199.197 1070.25 L199.197 1067.05 Z" fill="#000000" fill-rule="nonzero" fill-opacity="1" /><path clip-path="url(#clip090)" d="M231.171 1044.67 Q228.237 1044.67 226.751 1047.57 Q225.284 1050.44 225.284 1056.24 Q225.284 1062.01 226.751 1064.91 Q228.237 1067.78 231.171 1067.78 Q234.124 1067.78 235.591 1064.91 Q237.076 1062.01 237.076 1056.24 Q237.076 1050.44 235.591 1047.57 Q234.124 1044.67 231.171 1044.67 M231.171 1041.66 Q235.891 1041.66 238.374 1045.4 Q240.876 1049.13 240.876 1056.24 Q240.876 1063.33 238.374 1067.07 Q235.891 1070.79 231.171 1070.79 Q226.45 1070.79 223.949 1067.07 Q221.466 1063.33 221.466 1056.24 Q221.466 1049.13 223.949 1045.4 Q226.45 1041.66 231.171 1041.66 Z" fill="#000000" fill-rule="nonzero" fill-opacity="1" /><path clip-path="url(#clip090)" d="M140.247 692.497 L147.886 692.497 L147.886 666.132 L139.575 667.799 L139.575 663.539 L147.839 661.873 L152.515 661.873 L152.515 692.497 L160.154 692.497 L160.154 696.433 L140.247 696.433 L140.247 692.497 Z" fill="#000000" fill-rule="nonzero" fill-opacity="1" /><path clip-path="url(#clip090)" d="M179.598 664.951 Q175.987 664.951 174.159 668.516 Q172.353 672.058 172.353 679.187 Q172.353 686.294 174.159 689.859 Q175.987 693.4 179.598 693.4 Q183.233 693.4 185.038 689.859 Q186.867 686.294 186.867 679.187 Q186.867 672.058 185.038 668.516 Q183.233 664.951 179.598 664.951 M179.598 661.248 Q185.409 661.248 188.464 665.854 Q191.543 670.437 191.543 679.187 Q191.543 687.914 188.464 692.521 Q185.409 697.104 179.598 697.104 Q173.788 697.104 170.71 692.521 Q167.654 687.914 167.654 679.187 Q167.654 670.437 170.71 665.854 Q173.788 661.248 179.598 661.248 Z" fill="#000000" fill-rule="nonzero" fill-opacity="1" /><path clip-path="url(#clip090)" d="M191.543 655.349 L215.654 655.349 L215.654 658.546 L191.543 658.546 L191.543 655.349 Z" fill="#000000" fill-rule="nonzero" fill-opacity="1" /><path clip-path="url(#clip090)" d="M223.892 640.942 L238.807 640.942 L238.807 644.14 L227.372 644.14 L227.372 651.023 Q228.199 650.741 229.027 650.609 Q229.854 650.459 230.682 650.459 Q235.384 650.459 238.13 653.036 Q240.876 655.612 240.876 660.013 Q240.876 664.546 238.054 667.066 Q235.233 669.568 230.099 669.568 Q228.331 669.568 226.488 669.267 Q224.663 668.966 222.707 668.364 L222.707 664.546 Q224.4 665.468 226.205 665.919 Q228.011 666.37 230.023 666.37 Q233.277 666.37 235.177 664.659 Q237.076 662.947 237.076 660.013 Q237.076 657.079 235.177 655.368 Q233.277 653.656 230.023 653.656 Q228.5 653.656 226.977 653.995 Q225.472 654.333 223.892 655.048 L223.892 640.942 Z" fill="#000000" fill-rule="nonzero" fill-opacity="1" /><path clip-path="url(#clip090)" d="M170.17 291.271 L177.809 291.271 L177.809 264.905 L169.499 266.572 L169.499 262.313 L177.762 260.646 L182.438 260.646 L182.438 291.271 L190.077 291.271 L190.077 295.206 L170.17 295.206 L170.17 291.271 Z" fill="#000000" fill-rule="nonzero" fill-opacity="1" /><path clip-path="url(#clip090)" d="M209.522 263.725 Q205.91 263.725 204.082 267.29 Q202.276 270.831 202.276 277.961 Q202.276 285.067 204.082 288.632 Q205.91 292.174 209.522 292.174 Q213.156 292.174 214.961 288.632 Q216.79 285.067 216.79 277.961 Q216.79 270.831 214.961 267.29 Q213.156 263.725 209.522 263.725 M209.522 260.021 Q215.332 260.021 218.387 264.628 Q221.466 269.211 221.466 277.961 Q221.466 286.688 218.387 291.294 Q215.332 295.878 209.522 295.878 Q203.711 295.878 200.633 291.294 Q197.577 286.688 197.577 277.961 Q197.577 269.211 200.633 264.628 Q203.711 260.021 209.522 260.021 Z" fill="#000000" fill-rule="nonzero" fill-opacity="1" /><path clip-path="url(#clip090)" d="M231.171 242.217 Q228.237 242.217 226.751 245.114 Q225.284 247.991 225.284 253.784 Q225.284 259.558 226.751 262.454 Q228.237 265.332 231.171 265.332 Q234.124 265.332 235.591 262.454 Q237.076 259.558 237.076 253.784 Q237.076 247.991 235.591 245.114 Q234.124 242.217 231.171 242.217 M231.171 239.208 Q235.891 239.208 238.374 242.951 Q240.876 246.675 240.876 253.784 Q240.876 260.875 238.374 264.617 Q235.891 268.341 231.171 268.341 Q226.45 268.341 223.949 264.617 Q221.466 260.875 221.466 253.784 Q221.466 246.675 223.949 242.951 Q226.45 239.208 231.171 239.208 Z" fill="#000000" fill-rule="nonzero" fill-opacity="1" /><path clip-path="url(#clip090)" d="M16.4842 896.807 L16.4842 887.226 L48.8219 875.1 L16.4842 862.909 L16.4842 853.329 L64.0042 853.329 L64.0042 859.599 L22.277 859.599 L54.8694 871.853 L54.8694 878.314 L22.277 890.568 L64.0042 890.568 L64.0042 896.807 L16.4842 896.807 Z" fill="#000000" fill-rule="nonzero" fill-opacity="1" /><path clip-path="url(#clip090)" d="M46.0847 824.62 Q46.0847 831.717 47.7079 834.455 Q49.3312 837.192 53.2461 837.192 Q56.3653 837.192 58.2114 835.155 Q60.0256 833.086 60.0256 829.553 Q60.0256 824.683 56.5881 821.755 Q53.1188 818.795 47.3897 818.795 L46.0847 818.795 L46.0847 824.62 M43.6657 812.939 L64.0042 812.939 L64.0042 818.795 L58.5933 818.795 Q61.8398 820.8 63.3994 823.792 Q64.9272 826.784 64.9272 831.113 Q64.9272 836.587 61.8716 839.834 Q58.7843 843.048 53.6281 843.048 Q47.6125 843.048 44.5569 839.038 Q41.5014 834.996 41.5014 827.007 L41.5014 818.795 L40.9285 818.795 Q36.8862 818.795 34.6901 821.469 Q32.4621 824.11 32.4621 828.916 Q32.4621 831.972 33.1941 834.868 Q33.9262 837.765 35.3903 840.438 L29.9795 840.438 Q28.7381 837.224 28.1334 834.2 Q27.4968 831.176 27.4968 828.312 Q27.4968 820.577 31.5072 816.758 Q35.5176 812.939 43.6657 812.939 Z" fill="#000000" fill-rule="nonzero" fill-opacity="1" /><path clip-path="url(#clip090)" d="M45.7664 777.418 Q39.4007 777.418 35.8996 780.06 Q32.3984 782.67 32.3984 787.412 Q32.3984 792.123 35.8996 794.764 Q39.4007 797.374 45.7664 797.374 Q52.1003 797.374 55.6014 794.764 Q59.1026 792.123 59.1026 787.412 Q59.1026 782.67 55.6014 780.06 Q52.1003 777.418 45.7664 777.418 M59.58 771.561 Q68.683 771.561 73.1071 775.604 Q77.5631 779.646 77.5631 787.985 Q77.5631 791.072 77.0857 793.81 Q76.6401 796.547 75.6852 799.125 L69.9879 799.125 Q71.3884 796.547 72.0568 794.032 Q72.7252 791.518 72.7252 788.908 Q72.7252 783.147 69.7015 780.282 Q66.7096 777.418 60.6303 777.418 L57.7339 777.418 Q60.885 779.232 62.4446 782.065 Q64.0042 784.898 64.0042 788.844 Q64.0042 795.401 59.0071 799.411 Q54.01 803.422 45.7664 803.422 Q37.491 803.422 32.4939 799.411 Q27.4968 795.401 27.4968 788.844 Q27.4968 784.898 29.0564 782.065 Q30.616 779.232 33.7671 777.418 L28.3562 777.418 L28.3562 771.561 L59.58 771.561 Z" fill="#000000" fill-rule="nonzero" fill-opacity="1" /><path clip-path="url(#clip090)" d="M42.4881 729.866 L64.0042 729.866 L64.0042 735.723 L42.679 735.723 Q37.6183 735.723 35.1038 737.696 Q32.5894 739.669 32.5894 743.616 Q32.5894 748.358 35.6131 751.096 Q38.6368 753.833 43.8567 753.833 L64.0042 753.833 L64.0042 759.721 L28.3562 759.721 L28.3562 753.833 L33.8944 753.833 Q30.6797 751.732 29.0883 748.9 Q27.4968 746.035 27.4968 742.311 Q27.4968 736.168 31.3163 733.017 Q35.1038 729.866 42.4881 729.866 Z" fill="#000000" fill-rule="nonzero" fill-opacity="1" /><path clip-path="url(#clip090)" d="M28.3562 718.185 L28.3562 712.329 L64.0042 712.329 L64.0042 718.185 L28.3562 718.185 M14.479 718.185 L14.479 712.329 L21.895 712.329 L21.895 718.185 L14.479 718.185 Z" fill="#000000" fill-rule="nonzero" fill-opacity="1" /><path clip-path="url(#clip090)" d="M18.2347 694.282 L28.3562 694.282 L28.3562 682.219 L32.9077 682.219 L32.9077 694.282 L52.2594 694.282 Q56.6199 694.282 57.8613 693.104 Q59.1026 691.895 59.1026 688.234 L59.1026 682.219 L64.0042 682.219 L64.0042 688.234 Q64.0042 695.014 61.4897 697.592 Q58.9434 700.17 52.2594 700.17 L32.9077 700.17 L32.9077 704.467 L28.3562 704.467 L28.3562 700.17 L18.2347 700.17 L18.2347 694.282 Z" fill="#000000" fill-rule="nonzero" fill-opacity="1" /><path clip-path="url(#clip090)" d="M49.9359 675.121 L28.3562 675.121 L28.3562 669.265 L49.7131 669.265 Q54.7739 669.265 57.3202 667.291 Q59.8346 665.318 59.8346 661.371 Q59.8346 656.629 56.8109 653.891 Q53.7872 651.122 48.5673 651.122 L28.3562 651.122 L28.3562 645.266 L64.0042 645.266 L64.0042 651.122 L58.5296 651.122 Q61.7762 653.255 63.3676 656.088 Q64.9272 658.888 64.9272 662.612 Q64.9272 668.755 61.1078 671.938 Q57.2883 675.121 49.9359 675.121 M27.4968 660.384 L27.4968 660.384 Z" fill="#000000" fill-rule="nonzero" fill-opacity="1" /><path clip-path="url(#clip090)" d="M33.7671 609.745 L14.479 609.745 L14.479 603.889 L64.0042 603.889 L64.0042 609.745 L58.657 609.745 Q61.8398 611.591 63.3994 614.424 Q64.9272 617.225 64.9272 621.172 Q64.9272 627.633 59.771 631.707 Q54.6147 635.749 46.212 635.749 Q37.8093 635.749 32.6531 631.707 Q27.4968 627.633 27.4968 621.172 Q27.4968 617.225 29.0564 614.424 Q30.5842 611.591 33.7671 609.745 M46.212 629.702 Q52.6732 629.702 56.3653 627.06 Q60.0256 624.386 60.0256 619.739 Q60.0256 615.092 56.3653 612.419 Q52.6732 609.745 46.212 609.745 Q39.7508 609.745 36.0905 612.419 Q32.3984 615.092 32.3984 619.739 Q32.3984 624.386 36.0905 627.06 Q39.7508 629.702 46.212 629.702 Z" fill="#000000" fill-rule="nonzero" fill-opacity="1" /><path clip-path="url(#clip090)" d="M44.7161 561.334 L47.5806 561.334 L47.5806 588.261 Q53.6281 587.879 56.8109 584.632 Q59.9619 581.354 59.9619 575.53 Q59.9619 572.156 59.1344 569.005 Q58.3069 565.822 56.6518 562.703 L62.1899 562.703 Q63.5267 565.854 64.227 569.164 Q64.9272 572.474 64.9272 575.88 Q64.9272 584.41 59.9619 589.407 Q54.9967 594.372 46.5303 594.372 Q37.7774 594.372 32.6531 589.661 Q27.4968 584.919 27.4968 576.898 Q27.4968 569.705 32.1438 565.535 Q36.7589 561.334 44.7161 561.334 M42.9973 567.19 Q38.1912 567.254 35.3266 569.896 Q32.4621 572.506 32.4621 576.834 Q32.4621 581.736 35.2312 584.696 Q38.0002 587.624 43.0292 588.07 L42.9973 567.19 Z" fill="#000000" fill-rule="nonzero" fill-opacity="1" /><polyline clip-path="url(#clip092)" style="stroke:#0000ff; stroke-linecap:round; stroke-linejoin:round; stroke-width:4; stroke-opacity:1; fill:none" points="335.627,169.09 345.468,169.045 355.309,168.899 365.15,168.627 374.991,168.181 384.832,167.474 394.673,166.344 404.515,164.437 414.356,160.802 424.197,151.66 434.038,124.788 443.879,211.061 453.72,189.87 463.561,183.286 473.402,180.13 483.243,178.175 493.084,176.754 502.925,175.591 512.767,174.55 522.608,173.547 532.449,172.521 542.29,171.418 552.131,170.179 561.972,168.726 571.813,166.948 581.654,164.662 591.495,161.536 601.336,156.886 611.177,148.996 621.019,131.749 630.86,103.696 640.701,169.924 650.542,209.053 660.383,210.578 670.224,201.229 680.065,195.104 689.906,191.076 699.747,188.213 709.588,186.037 719.43,184.294 729.271,182.839 739.112,181.581 748.953,180.461 758.794,179.44 768.635,178.491 778.476,177.591 788.317,176.726 798.158,175.883 807.999,175.051 817.84,174.223 827.682,173.391 837.523,172.548 847.364,171.689 857.205,170.807 867.046,169.898 876.887,168.956 886.728,167.977 896.569,166.955 906.41,165.888 916.251,164.773 926.092,163.611 935.934,162.407 945.775,161.174 955.616,159.936 965.457,158.738 975.298,157.654 985.139,156.797 994.98,156.326 1004.82,156.428 1014.66,157.277 1024.5,158.946 1034.34,161.331 1044.19,164.139 1054.03,166.951 1063.87,169.337 1073.71,170.968 1083.55,171.676 1093.39,171.461 1103.23,170.428 1113.07,168.71 1122.91,166.421 1132.76,163.622 1142.6,160.318 1152.44,156.449 1162.28,151.879 1172.12,146.357 1181.96,139.418 1191.8,130.093 1201.64,115.864 1211.48,88.475 1221.33,85.838 1231.17,118.328 1241.01,136.017 1250.85,148.123 1260.69,157.465 1270.53,165.051 1280.37,171.307 1290.21,176.433 1300.05,180.532 1309.9,183.68 1319.74,185.958 1329.58,187.465 1339.42,188.319 1349.26,188.641 1359.1,188.548 1368.94,188.14 1378.78,187.498 1388.62,186.685 1398.47,185.749 1408.31,184.722 1418.15,183.63 1427.99,182.487 1437.83,181.305 1447.67,180.089 1457.51,178.844 1467.35,177.568 1477.19,176.262 1487.03,174.923 1496.88,173.547 1506.72,172.129 1516.56,170.663 1526.4,169.14 1536.24,167.553 1546.08,165.891 1555.92,164.142 1565.76,162.289 1575.6,160.317 1585.45,158.202 1595.29,155.917 1605.13,153.427 1614.97,150.687 1624.81,147.636 1634.65,144.192 1644.49,140.237 1654.33,135.597 1664.17,129.999 1674.02,122.993 1683.86,113.802 1693.7,101.316 1703.54,88.4751 1713.38,97.9724 1723.22,120.423 1733.06,141.652 1742.9,157.601 1752.74,151.052 1762.59,137.352 1772.43,133.221 1782.27,136.993 1792.11,143.203 1801.95,149.509 1811.79,155.375 1821.63,160.758 1831.47,165.712 1841.31,170.298 1851.16,174.556 1861,178.505 1870.84,182.135 1880.68,185.413 1890.52,188.277 1900.36,190.641 1910.2,192.404 1920.04,193.468 1929.88,193.763 1939.73,193.264 1949.57,192.002 1959.41,190.05 1969.25,187.507 1979.09,184.47 1988.93,181.021 1998.77,177.22 2008.61,173.104 2018.45,168.695 2028.3,163.998 2038.14,159.022 2047.98,153.79 2057.82,148.376 2067.66,142.961 2077.5,137.92 2087.34,133.88 2097.18,131.581 2107.02,131.425 2116.86,133.131 2126.71,135.982 2136.55,139.306 2146.39,142.678 2156.23,145.887 2166.07,148.849 2175.91,151.543 2185.75,153.976 2195.59,156.169 2205.43,158.144 2215.28,159.924 2225.12,161.53 2234.96,162.98 2244.8,164.292 2254.64,165.48 2264.48,166.556 2274.32,167.533 2284.16,168.419 2294,169.224 "/>
<polyline clip-path="url(#clip092)" style="stroke:#ff8c00; stroke-linecap:round; stroke-linejoin:round; stroke-width:4; stroke-opacity:1; fill:none" points="335.627,169.09 345.468,169.045 355.309,168.899 365.15,168.627 374.991,168.181 384.832,167.474 394.673,166.344 404.515,164.437 414.356,160.802 424.197,151.66 434.038,124.788 443.879,211.061 453.72,189.87 463.561,183.286 473.402,180.13 483.243,178.175 493.084,176.754 502.925,175.591 512.767,174.55 522.608,173.547 532.449,172.521 542.29,171.418 552.131,170.179 561.972,168.726 571.813,166.948 581.654,164.662 591.495,161.536 601.336,156.886 611.177,148.996 621.019,131.749 630.86,103.696 640.701,169.924 650.542,209.053 660.383,210.578 670.224,201.229 680.065,195.104 689.906,191.076 699.747,188.213 709.588,186.037 719.43,184.294 729.271,182.839 739.112,181.581 748.953,180.461 758.794,179.44 768.635,178.491 778.476,177.591 788.317,176.726 798.158,175.883 807.999,175.051 817.84,174.223 827.682,173.391 837.523,172.548 847.364,171.689 857.205,170.807 867.046,169.898 876.887,168.956 886.728,167.977 896.569,166.955 906.41,165.888 916.251,164.773 926.092,163.611 935.934,162.407 945.775,161.174 955.616,159.936 965.457,158.738 975.298,157.654 985.139,156.797 994.98,156.326 1004.82,156.428 1014.66,157.277 1024.5,158.946 1034.34,161.331 1044.19,164.139 1054.03,166.951 1063.87,169.337 1073.71,170.968 1083.55,171.676 1093.39,171.461 1103.23,170.428 1113.07,168.71 1122.91,166.421 1132.76,163.622 1142.6,160.318 1152.44,156.449 1162.28,151.879 1172.12,146.357 1181.96,139.418 1191.8,130.093 1201.64,115.864 1211.48,88.475 1221.33,85.838 1231.17,118.328 1241.01,136.017 1250.85,148.123 1260.69,157.465 1270.53,165.051 1280.37,171.307 1290.21,176.433 1300.05,180.532 1309.9,183.68 1319.74,185.958 1329.58,187.465 1339.42,188.319 1349.26,188.641 1359.1,188.548 1368.94,188.14 1378.78,187.498 1388.62,186.685 1398.47,185.749 1408.31,184.722 1418.15,183.63 1427.99,182.487 1437.83,181.305 1447.67,180.089 1457.51,178.844 1467.35,177.568 1477.19,176.262 1487.03,174.923 1496.88,173.547 1506.72,172.129 1516.56,170.663 1526.4,169.14 1536.24,167.553 1546.08,165.891 1555.92,164.142 1565.76,162.289 1575.6,160.317 1585.45,158.202 1595.29,155.917 1605.13,153.427 1614.97,150.687 1624.81,147.636 1634.65,144.192 1644.49,140.237 1654.33,135.597 1664.17,129.999 1674.02,122.993 1683.86,113.802 1693.7,101.316 1703.54,88.4751 1713.38,97.9724 1723.22,120.423 1733.06,141.652 1742.9,157.601 1752.74,151.052 1762.59,137.352 1772.43,133.221 1782.27,136.993 1792.11,143.203 1801.95,149.509 1811.79,155.375 1821.63,160.758 1831.47,165.712 1841.31,170.298 1851.16,174.556 1861,178.505 1870.84,182.135 1880.68,185.413 1890.52,188.277 1900.36,190.641 1910.2,192.404 1920.04,193.468 1929.88,193.763 1939.73,193.264 1949.57,192.002 1959.41,190.05 1969.25,187.507 1979.09,184.47 1988.93,181.021 1998.77,177.22 2008.61,173.104 2018.45,168.695 2028.3,163.998 2038.14,159.022 2047.98,153.79 2057.82,148.376 2067.66,142.961 2077.5,137.92 2087.34,133.88 2097.18,131.581 2107.02,131.425 2116.86,133.131 2126.71,135.982 2136.55,139.306 2146.39,142.678 2156.23,145.887 2166.07,148.849 2175.91,151.543 2185.75,153.976 2195.59,156.169 2205.43,158.144 2215.28,159.924 2225.12,161.53 2234.96,162.98 2244.8,164.292 2254.64,165.48 2264.48,166.556 2274.32,167.533 2284.16,168.419 2294,169.224 "/>
<polyline clip-path="url(#clip092)" style="stroke:#008000; stroke-linecap:round; stroke-linejoin:round; stroke-width:4; stroke-opacity:1; fill:none" points="335.627,1309.12 345.468,1308.83 355.309,1309.82 365.15,1308.81 374.991,1309.61 384.832,1307.53 394.673,1304.68 404.515,1299.83 414.356,1291.34 424.197,1272.89 434.038,1273.78 443.879,1301.1 453.72,1339.31 463.561,1360.18 473.402,1341.58 483.243,1328.91 493.084,1320.47 502.925,1311.71 512.767,1304.8 522.608,1298.72 532.449,1292.23 542.29,1285.48 552.131,1278.97 561.972,1272.05 571.813,1264.61 581.654,1256.2 591.495,1246.09 601.336,1233.55 611.177,1216.23 621.019,1186.1 630.86,1190.62 640.701,1206.86 650.542,1223.54 660.383,1234.59 670.224,1242.63 680.065,1249.09 689.906,1254.24 699.747,1258.55 709.588,1262.53 719.43,1265.77 729.271,1268.87 739.112,1271.6 748.953,1274.19 758.794,1276.05 768.635,1278.51 778.476,1280.76 788.317,1282.79 798.158,1285.33 807.999,1287.66 817.84,1289.47 827.682,1290.97 837.523,1293.08 847.364,1294.89 857.205,1298.26 867.046,1299.46 876.887,1303.96 886.728,1304.31 896.569,1306.52 906.41,1310.59 916.251,1314.11 926.092,1319.14 935.934,1326.58 945.775,1334.08 955.616,1349.23 965.457,1363.16 975.298,1372.3 985.139,1353.56 994.98,1333.17 1004.82,1315.9 1014.66,1310.09 1024.5,1303.79 1034.34,1297.84 1044.19,1294.09 1054.03,1292.36 1063.87,1289.11 1073.71,1287.52 1083.55,1285.65 1093.39,1284.85 1103.23,1281.96 1113.07,1280.51 1122.91,1278.74 1132.76,1276.42 1142.6,1273.74 1152.44,1271.42 1162.28,1268.53 1172.12,1265.09 1181.96,1260.51 1191.8,1255.39 1201.64,1236.45 1211.48,1185.42 1221.33,1210.56 1231.17,1239.31 1241.01,1240.74 1250.85,1246.12 1260.69,1251.52 1270.53,1256.1 1280.37,1260.34 1290.21,1263.28 1300.05,1266.1 1309.9,1268.77 1319.74,1270.15 1329.58,1271.97 1339.42,1272.87 1349.26,1273.91 1359.1,1274.78 1368.94,1275.17 1378.78,1275.48 1388.62,1275.45 1398.47,1275.2 1408.31,1275.36 1418.15,1275.1 1427.99,1274.86 1437.83,1274.27 1447.67,1273.89 1457.51,1273.13 1467.35,1272.51 1477.19,1271.58 1487.03,1270.72 1496.88,1269.44 1506.72,1268.54 1516.56,1267.22 1526.4,1265.84 1536.24,1264.74 1546.08,1262.82 1555.92,1260.99 1565.76,1259.23 1575.6,1257.41 1585.45,1255.18 1595.29,1252.76 1605.13,1250 1614.97,1247.24 1624.81,1244.13 1634.65,1240.06 1644.49,1235.97 1654.33,1230.51 1664.17,1225.13 1674.02,1216.89 1683.86,1207.59 1693.7,1196.02 1703.54,1187.74 1713.38,1189.45 1723.22,1203.79 1733.06,1217.64 1742.9,1228.17 1752.74,1233.33 1762.59,1230.58 1772.43,1229.35 1782.27,1232.87 1792.11,1238.2 1801.95,1242.83 1811.79,1247.3 1821.63,1251.38 1831.47,1254.68 1841.31,1257.76 1851.16,1260.54 1861,1262.71 1870.84,1264.83 1880.68,1266.62 1890.52,1268.29 1900.36,1269.51 1910.2,1271.01 1920.04,1272.13 1929.88,1272.73 1939.73,1273.72 1949.57,1273.73 1959.41,1274.24 1969.25,1274.6 1979.09,1274.83 1988.93,1274.89 1998.77,1274.54 2008.61,1273.38 2018.45,1273.42 2028.3,1271.18 2038.14,1270.5 2047.98,1269.37 2057.82,1268.02 2067.66,1266.84 2077.5,1265.79 2087.34,1266.96 2097.18,1267.52 2107.02,1270.27 2116.86,1272.63 2126.71,1273.37 2136.55,1277.03 2146.39,1276.89 2156.23,1278.07 2166.07,1278.24 2175.91,1278.86 2185.75,1279.67 2195.59,1279.75 2205.43,1279.63 2215.28,1279.65 2225.12,1279.72 2234.96,1279.81 2244.8,1279.75 2254.64,1279.86 2264.48,1279.65 2274.32,1279.62 2284.16,1279.08 2294,1279.23 "/>
<path clip-path="url(#clip090)" d="M1862.27 852.285 L2283.56 852.285 L2283.56 644.925 L1862.27 644.925  Z" fill="#ffffff" fill-rule="evenodd" fill-opacity="1"/>
<polyline clip-path="url(#clip090)" style="stroke:#000000; stroke-linecap:round; stroke-linejoin:round; stroke-width:4; stroke-opacity:1; fill:none" points="1862.27,852.285 2283.56,852.285 2283.56,644.925 1862.27,644.925 1862.27,852.285 "/>
<polyline clip-path="url(#clip090)" style="stroke:#0000ff; stroke-linecap:round; stroke-linejoin:round; stroke-width:4; stroke-opacity:1; fill:none" points="1885.33,696.765 2023.73,696.765 "/>
<path clip-path="url(#clip090)" d="M2063.3 678.027 L2063.3 681.569 L2059.22 681.569 Q2056.93 681.569 2056.03 682.495 Q2055.15 683.421 2055.15 685.828 L2055.15 688.12 L2062.16 688.12 L2062.16 691.43 L2055.15 691.43 L2055.15 714.045 L2050.87 714.045 L2050.87 691.43 L2046.79 691.43 L2046.79 688.12 L2050.87 688.12 L2050.87 686.314 Q2050.87 681.985 2052.88 680.018 Q2054.89 678.027 2059.27 678.027 L2063.3 678.027 Z" fill="#000000" fill-rule="nonzero" fill-opacity="1" /><path clip-path="url(#clip090)" d="M2077.09 678.073 Q2073.99 683.397 2072.49 688.606 Q2070.98 693.814 2070.98 699.161 Q2070.98 704.508 2072.49 709.763 Q2074.01 714.995 2077.09 720.295 L2073.39 720.295 Q2069.92 714.856 2068.18 709.601 Q2066.47 704.346 2066.47 699.161 Q2066.47 693.999 2068.18 688.768 Q2069.89 683.536 2073.39 678.073 L2077.09 678.073 Z" fill="#000000" fill-rule="nonzero" fill-opacity="1" /><path clip-path="url(#clip090)" d="M2101.88 688.884 L2101.88 692.911 Q2100.08 691.985 2098.13 691.522 Q2096.19 691.059 2094.11 691.059 Q2090.94 691.059 2089.34 692.032 Q2087.76 693.004 2087.76 694.948 Q2087.76 696.43 2088.9 697.286 Q2090.03 698.12 2093.46 698.883 L2094.92 699.208 Q2099.45 700.18 2101.35 701.962 Q2103.27 703.721 2103.27 706.893 Q2103.27 710.504 2100.4 712.61 Q2097.56 714.717 2092.56 714.717 Q2090.47 714.717 2088.2 714.3 Q2085.96 713.907 2083.46 713.096 L2083.46 708.698 Q2085.82 709.925 2088.11 710.55 Q2090.4 711.152 2092.65 711.152 Q2095.66 711.152 2097.28 710.133 Q2098.9 709.092 2098.9 707.217 Q2098.9 705.481 2097.72 704.555 Q2096.56 703.629 2092.6 702.772 L2091.12 702.425 Q2087.16 701.592 2085.4 699.879 Q2083.64 698.143 2083.64 695.134 Q2083.64 691.476 2086.24 689.485 Q2088.83 687.495 2093.6 687.495 Q2095.96 687.495 2098.04 687.842 Q2100.13 688.189 2101.88 688.884 Z" fill="#000000" fill-rule="nonzero" fill-opacity="1" /><path clip-path="url(#clip090)" d="M2109.38 678.073 L2113.09 678.073 Q2116.56 683.536 2118.27 688.768 Q2120.01 693.999 2120.01 699.161 Q2120.01 704.346 2118.27 709.601 Q2116.56 714.856 2113.09 720.295 L2109.38 720.295 Q2112.46 714.995 2113.97 709.763 Q2115.5 704.508 2115.5 699.161 Q2115.5 693.814 2113.97 688.606 Q2112.46 683.397 2109.38 678.073 Z" fill="#000000" fill-rule="nonzero" fill-opacity="1" /><polyline clip-path="url(#clip090)" style="stroke:#ff8c00; stroke-linecap:round; stroke-linejoin:round; stroke-width:4; stroke-opacity:1; fill:none" points="1885.33,748.605 2023.73,748.605 "/>
<path clip-path="url(#clip090)" d="M2063.3 729.867 L2063.3 733.409 L2059.22 733.409 Q2056.93 733.409 2056.03 734.335 Q2055.15 735.261 2055.15 737.668 L2055.15 739.96 L2062.16 739.96 L2062.16 743.27 L2055.15 743.27 L2055.15 765.885 L2050.87 765.885 L2050.87 743.27 L2046.79 743.27 L2046.79 739.96 L2050.87 739.96 L2050.87 738.154 Q2050.87 733.825 2052.88 731.858 Q2054.89 729.867 2059.27 729.867 L2063.3 729.867 Z" fill="#000000" fill-rule="nonzero" fill-opacity="1" /><path clip-path="url(#clip090)" d="M2066.86 739.96 L2071.12 739.96 L2071.12 765.885 L2066.86 765.885 L2066.86 739.96 M2066.86 729.867 L2071.12 729.867 L2071.12 735.261 L2066.86 735.261 L2066.86 729.867 Z" fill="#000000" fill-rule="nonzero" fill-opacity="1" /><path clip-path="url(#clip090)" d="M2084.25 732.599 L2084.25 739.96 L2093.02 739.96 L2093.02 743.27 L2084.25 743.27 L2084.25 757.344 Q2084.25 760.515 2085.1 761.418 Q2085.98 762.321 2088.64 762.321 L2093.02 762.321 L2093.02 765.885 L2088.64 765.885 Q2083.71 765.885 2081.84 764.057 Q2079.96 762.205 2079.96 757.344 L2079.96 743.27 L2076.84 743.27 L2076.84 739.96 L2079.96 739.96 L2079.96 732.599 L2084.25 732.599 Z" fill="#000000" fill-rule="nonzero" fill-opacity="1" /><path clip-path="url(#clip090)" d="M2102.83 732.599 L2102.83 739.96 L2111.61 739.96 L2111.61 743.27 L2102.83 743.27 L2102.83 757.344 Q2102.83 760.515 2103.69 761.418 Q2104.57 762.321 2107.23 762.321 L2111.61 762.321 L2111.61 765.885 L2107.23 765.885 Q2102.3 765.885 2100.43 764.057 Q2098.55 762.205 2098.55 757.344 L2098.55 743.27 L2095.43 743.27 L2095.43 739.96 L2098.55 739.96 L2098.55 732.599 L2102.83 732.599 Z" fill="#000000" fill-rule="nonzero" fill-opacity="1" /><path clip-path="url(#clip090)" d="M2139.38 751.858 L2139.38 753.941 L2119.8 753.941 Q2120.08 758.339 2122.44 760.654 Q2124.82 762.946 2129.06 762.946 Q2131.51 762.946 2133.81 762.344 Q2136.12 761.742 2138.39 760.538 L2138.39 764.566 Q2136.1 765.538 2133.69 766.047 Q2131.28 766.557 2128.81 766.557 Q2122.6 766.557 2118.97 762.946 Q2115.36 759.335 2115.36 753.177 Q2115.36 746.811 2118.78 743.085 Q2122.23 739.335 2128.06 739.335 Q2133.3 739.335 2136.33 742.714 Q2139.38 746.071 2139.38 751.858 M2135.12 750.608 Q2135.08 747.112 2133.16 745.029 Q2131.26 742.946 2128.11 742.946 Q2124.55 742.946 2122.39 744.96 Q2120.26 746.974 2119.94 750.631 L2135.12 750.608 Z" fill="#000000" fill-rule="nonzero" fill-opacity="1" /><path clip-path="url(#clip090)" d="M2163.43 743.895 L2163.43 729.867 L2167.69 729.867 L2167.69 765.885 L2163.43 765.885 L2163.43 761.997 Q2162.09 764.311 2160.03 765.446 Q2158 766.557 2155.12 766.557 Q2150.43 766.557 2147.46 762.807 Q2144.52 759.057 2144.52 752.946 Q2144.52 746.835 2147.46 743.085 Q2150.43 739.335 2155.12 739.335 Q2158 739.335 2160.03 740.469 Q2162.09 741.58 2163.43 743.895 M2148.92 752.946 Q2148.92 757.645 2150.84 760.33 Q2152.79 762.992 2156.17 762.992 Q2159.55 762.992 2161.49 760.33 Q2163.43 757.645 2163.43 752.946 Q2163.43 748.247 2161.49 745.585 Q2159.55 742.899 2156.17 742.899 Q2152.79 742.899 2150.84 745.585 Q2148.92 748.247 2148.92 752.946 Z" fill="#000000" fill-rule="nonzero" fill-opacity="1" /><polyline clip-path="url(#clip090)" style="stroke:#008000; stroke-linecap:round; stroke-linejoin:round; stroke-width:4; stroke-opacity:1; fill:none" points="1885.33,800.445 2023.73,800.445 "/>
<path clip-path="url(#clip090)" d="M2065.7 795.735 L2065.7 781.707 L2069.96 781.707 L2069.96 817.725 L2065.7 817.725 L2065.7 813.837 Q2064.36 816.151 2062.3 817.286 Q2060.26 818.397 2057.39 818.397 Q2052.69 818.397 2049.73 814.647 Q2046.79 810.897 2046.79 804.786 Q2046.79 798.675 2049.73 794.925 Q2052.69 791.175 2057.39 791.175 Q2060.26 791.175 2062.3 792.309 Q2064.36 793.42 2065.7 795.735 M2051.19 804.786 Q2051.19 809.485 2053.11 812.17 Q2055.06 814.832 2058.44 814.832 Q2061.82 814.832 2063.76 812.17 Q2065.7 809.485 2065.7 804.786 Q2065.7 800.087 2063.76 797.425 Q2061.82 794.739 2058.44 794.739 Q2055.06 794.739 2053.11 797.425 Q2051.19 800.087 2051.19 804.786 Z" fill="#000000" fill-rule="nonzero" fill-opacity="1" /><path clip-path="url(#clip090)" d="M2100.91 803.698 L2100.91 805.781 L2081.33 805.781 Q2081.61 810.179 2083.97 812.494 Q2086.35 814.786 2090.59 814.786 Q2093.04 814.786 2095.33 814.184 Q2097.65 813.582 2099.92 812.378 L2099.92 816.406 Q2097.63 817.378 2095.22 817.887 Q2092.81 818.397 2090.33 818.397 Q2084.13 818.397 2080.5 814.786 Q2076.88 811.175 2076.88 805.017 Q2076.88 798.651 2080.31 794.925 Q2083.76 791.175 2089.59 791.175 Q2094.82 791.175 2097.86 794.554 Q2100.91 797.911 2100.91 803.698 M2096.65 802.448 Q2096.61 798.952 2094.69 796.869 Q2092.79 794.786 2089.64 794.786 Q2086.07 794.786 2083.92 796.8 Q2081.79 798.814 2081.47 802.471 L2096.65 802.448 Z" fill="#000000" fill-rule="nonzero" fill-opacity="1" /><path clip-path="url(#clip090)" d="M2104.85 791.8 L2109.36 791.8 L2117.46 813.559 L2125.56 791.8 L2130.08 791.8 L2120.36 817.725 L2114.57 817.725 L2104.85 791.8 Z" fill="#000000" fill-rule="nonzero" fill-opacity="1" /><path clip-path="url(#clip090)" d="M2135.96 791.8 L2140.22 791.8 L2140.22 817.725 L2135.96 817.725 L2135.96 791.8 M2135.96 781.707 L2140.22 781.707 L2140.22 787.101 L2135.96 787.101 L2135.96 781.707 Z" fill="#000000" fill-rule="nonzero" fill-opacity="1" /><path clip-path="url(#clip090)" d="M2160.91 804.693 Q2155.75 804.693 2153.76 805.874 Q2151.77 807.054 2151.77 809.901 Q2151.77 812.17 2153.25 813.513 Q2154.75 814.832 2157.32 814.832 Q2160.87 814.832 2163 812.332 Q2165.15 809.809 2165.15 805.642 L2165.15 804.693 L2160.91 804.693 M2169.41 802.934 L2169.41 817.725 L2165.15 817.725 L2165.15 813.79 Q2163.69 816.151 2161.51 817.286 Q2159.34 818.397 2156.19 818.397 Q2152.21 818.397 2149.85 816.175 Q2147.51 813.929 2147.51 810.179 Q2147.51 805.804 2150.43 803.582 Q2153.37 801.36 2159.18 801.36 L2165.15 801.36 L2165.15 800.943 Q2165.15 798.003 2163.2 796.406 Q2161.28 794.786 2157.79 794.786 Q2155.56 794.786 2153.46 795.318 Q2151.35 795.851 2149.41 796.915 L2149.41 792.98 Q2151.75 792.077 2153.94 791.638 Q2156.14 791.175 2158.23 791.175 Q2163.85 791.175 2166.63 794.091 Q2169.41 797.008 2169.41 802.934 Z" fill="#000000" fill-rule="nonzero" fill-opacity="1" /><path clip-path="url(#clip090)" d="M2182.39 784.439 L2182.39 791.8 L2191.17 791.8 L2191.17 795.11 L2182.39 795.11 L2182.39 809.184 Q2182.39 812.355 2183.25 813.258 Q2184.13 814.161 2186.79 814.161 L2191.17 814.161 L2191.17 817.725 L2186.79 817.725 Q2181.86 817.725 2179.99 815.897 Q2178.11 814.045 2178.11 809.184 L2178.11 795.11 L2174.99 795.11 L2174.99 791.8 L2178.11 791.8 L2178.11 784.439 L2182.39 784.439 Z" fill="#000000" fill-rule="nonzero" fill-opacity="1" /><path clip-path="url(#clip090)" d="M2196.77 791.8 L2201.03 791.8 L2201.03 817.725 L2196.77 817.725 L2196.77 791.8 M2196.77 781.707 L2201.03 781.707 L2201.03 787.101 L2196.77 787.101 L2196.77 781.707 Z" fill="#000000" fill-rule="nonzero" fill-opacity="1" /><path clip-path="url(#clip090)" d="M2219.99 794.786 Q2216.56 794.786 2214.57 797.471 Q2212.58 800.133 2212.58 804.786 Q2212.58 809.438 2214.55 812.124 Q2216.54 814.786 2219.99 814.786 Q2223.39 814.786 2225.38 812.1 Q2227.37 809.415 2227.37 804.786 Q2227.37 800.179 2225.38 797.494 Q2223.39 794.786 2219.99 794.786 M2219.99 791.175 Q2225.54 791.175 2228.71 794.786 Q2231.88 798.397 2231.88 804.786 Q2231.88 811.151 2228.71 814.786 Q2225.54 818.397 2219.99 818.397 Q2214.41 818.397 2211.24 814.786 Q2208.09 811.151 2208.09 804.786 Q2208.09 798.397 2211.24 794.786 Q2214.41 791.175 2219.99 791.175 Z" fill="#000000" fill-rule="nonzero" fill-opacity="1" /><path clip-path="url(#clip090)" d="M2260.49 802.077 L2260.49 817.725 L2256.24 817.725 L2256.24 802.216 Q2256.24 798.536 2254.8 796.707 Q2253.36 794.878 2250.49 794.878 Q2247.05 794.878 2245.05 797.077 Q2243.06 799.276 2243.06 803.073 L2243.06 817.725 L2238.78 817.725 L2238.78 791.8 L2243.06 791.8 L2243.06 795.827 Q2244.59 793.489 2246.65 792.332 Q2248.74 791.175 2251.44 791.175 Q2255.91 791.175 2258.2 793.952 Q2260.49 796.707 2260.49 802.077 Z" fill="#000000" fill-rule="nonzero" fill-opacity="1" /></svg>
