<?xml version="1.0" encoding="utf-8"?>
<svg xmlns="http://www.w3.org/2000/svg" xmlns:xlink="http://www.w3.org/1999/xlink" width="600" height="400" viewBox="0 0 2400 1600">
<defs>
  <clipPath id="clip830">
    <rect x="0" y="0" width="2400" height="1600"/>
  </clipPath>
</defs>
<path clip-path="url(#clip830)" d="M0 1600 L2400 1600 L2400 0 L0 0  Z" fill="#ffffff" fill-rule="evenodd" fill-opacity="1"/>
<defs>
  <clipPath id="clip831">
    <rect x="480" y="0" width="1681" height="1600"/>
  </clipPath>
</defs>
<path clip-path="url(#clip830)" d="M251.842 1410.9 L2352.76 1410.9 L2352.76 47.2441 L251.842 47.2441  Z" fill="#ffffff" fill-rule="evenodd" fill-opacity="1"/>
<defs>
  <clipPath id="clip832">
    <rect x="251" y="47" width="2102" height="1365"/>
  </clipPath>
</defs>
<polyline clip-path="url(#clip832)" style="stroke:#000000; stroke-linecap:round; stroke-linejoin:round; stroke-width:2; stroke-opacity:0.1; fill:none" points="298.837,1410.9 298.837,47.2441 "/>
<polyline clip-path="url(#clip832)" style="stroke:#000000; stroke-linecap:round; stroke-linejoin:round; stroke-width:2; stroke-opacity:0.1; fill:none" points="797.452,1410.9 797.452,47.2441 "/>
<polyline clip-path="url(#clip832)" style="stroke:#000000; stroke-linecap:round; stroke-linejoin:round; stroke-width:2; stroke-opacity:0.1; fill:none" points="1296.07,1410.9 1296.07,47.2441 "/>
<polyline clip-path="url(#clip832)" style="stroke:#000000; stroke-linecap:round; stroke-linejoin:round; stroke-width:2; stroke-opacity:0.1; fill:none" points="1794.68,1410.9 1794.68,47.2441 "/>
<polyline clip-path="url(#clip832)" style="stroke:#000000; stroke-linecap:round; stroke-linejoin:round; stroke-width:2; stroke-opacity:0.1; fill:none" points="2293.3,1410.9 2293.3,47.2441 "/>
<polyline clip-path="url(#clip832)" style="stroke:#000000; stroke-linecap:round; stroke-linejoin:round; stroke-width:2; stroke-opacity:0.1; fill:none" points="251.842,1065.59 2352.76,1065.59 "/>
<polyline clip-path="url(#clip832)" style="stroke:#000000; stroke-linecap:round; stroke-linejoin:round; stroke-width:2; stroke-opacity:0.1; fill:none" points="251.842,591.666 2352.76,591.666 "/>
<polyline clip-path="url(#clip832)" style="stroke:#000000; stroke-linecap:round; stroke-linejoin:round; stroke-width:2; stroke-opacity:0.1; fill:none" points="251.842,117.746 2352.76,117.746 "/>
<polyline clip-path="url(#clip830)" style="stroke:#000000; stroke-linecap:round; stroke-linejoin:round; stroke-width:4; stroke-opacity:1; fill:none" points="251.842,1410.9 2352.76,1410.9 "/>
<polyline clip-path="url(#clip830)" style="stroke:#000000; stroke-linecap:round; stroke-linejoin:round; stroke-width:4; stroke-opacity:1; fill:none" points="298.837,1410.9 298.837,1392 "/>
<polyline clip-path="url(#clip830)" style="stroke:#000000; stroke-linecap:round; stroke-linejoin:round; stroke-width:4; stroke-opacity:1; fill:none" points="797.452,1410.9 797.452,1392 "/>
<polyline clip-path="url(#clip830)" style="stroke:#000000; stroke-linecap:round; stroke-linejoin:round; stroke-width:4; stroke-opacity:1; fill:none" points="1296.07,1410.9 1296.07,1392 "/>
<polyline clip-path="url(#clip830)" style="stroke:#000000; stroke-linecap:round; stroke-linejoin:round; stroke-width:4; stroke-opacity:1; fill:none" points="1794.68,1410.9 1794.68,1392 "/>
<polyline clip-path="url(#clip830)" style="stroke:#000000; stroke-linecap:round; stroke-linejoin:round; stroke-width:4; stroke-opacity:1; fill:none" points="2293.3,1410.9 2293.3,1392 "/>
<path clip-path="url(#clip830)" d="M298.837 1441.82 Q295.226 1441.82 293.397 1445.38 Q291.591 1448.92 291.591 1456.05 Q291.591 1463.16 293.397 1466.72 Q295.226 1470.26 298.837 1470.26 Q302.471 1470.26 304.277 1466.72 Q306.105 1463.16 306.105 1456.05 Q306.105 1448.92 304.277 1445.38 Q302.471 1441.82 298.837 1441.82 M298.837 1438.11 Q304.647 1438.11 307.703 1442.72 Q310.781 1447.3 310.781 1456.05 Q310.781 1464.78 307.703 1469.38 Q304.647 1473.97 298.837 1473.97 Q293.027 1473.97 289.948 1469.38 Q286.892 1464.78 286.892 1456.05 Q286.892 1447.3 289.948 1442.72 Q293.027 1438.11 298.837 1438.11 Z" fill="#000000" fill-rule="nonzero" fill-opacity="1" /><path clip-path="url(#clip830)" d="M704.886 1485.02 L712.525 1485.02 L712.525 1458.66 L704.215 1460.32 L704.215 1456.06 L712.479 1454.4 L717.155 1454.4 L717.155 1485.02 L724.794 1485.02 L724.794 1488.96 L704.886 1488.96 L704.886 1485.02 Z" fill="#000000" fill-rule="nonzero" fill-opacity="1" /><path clip-path="url(#clip830)" d="M734.238 1483.08 L739.122 1483.08 L739.122 1488.96 L734.238 1488.96 L734.238 1483.08 Z" fill="#000000" fill-rule="nonzero" fill-opacity="1" /><path clip-path="url(#clip830)" d="M759.307 1457.48 Q755.696 1457.48 753.868 1461.04 Q752.062 1464.58 752.062 1471.71 Q752.062 1478.82 753.868 1482.38 Q755.696 1485.92 759.307 1485.92 Q762.942 1485.92 764.747 1482.38 Q766.576 1478.82 766.576 1471.71 Q766.576 1464.58 764.747 1461.04 Q762.942 1457.48 759.307 1457.48 M759.307 1453.77 Q765.117 1453.77 768.173 1458.38 Q771.252 1462.96 771.252 1471.71 Q771.252 1480.44 768.173 1485.04 Q765.117 1489.63 759.307 1489.63 Q753.497 1489.63 750.418 1485.04 Q747.363 1480.44 747.363 1471.71 Q747.363 1462.96 750.418 1458.38 Q753.497 1453.77 759.307 1453.77 Z" fill="#000000" fill-rule="nonzero" fill-opacity="1" /><path clip-path="url(#clip830)" d="M807.64 1463.49 L797.062 1474.12 L807.64 1484.7 L804.886 1487.5 L794.261 1476.87 L783.636 1487.5 L780.904 1484.7 L791.46 1474.12 L780.904 1463.49 L783.636 1460.69 L794.261 1471.32 L804.886 1460.69 L807.64 1463.49 Z" fill="#000000" fill-rule="nonzero" fill-opacity="1" /><path clip-path="url(#clip830)" d="M820.001 1485.02 L827.64 1485.02 L827.64 1458.66 L819.33 1460.32 L819.33 1456.06 L827.594 1454.4 L832.27 1454.4 L832.27 1485.02 L839.909 1485.02 L839.909 1488.96 L820.001 1488.96 L820.001 1485.02 Z" fill="#000000" fill-rule="nonzero" fill-opacity="1" /><path clip-path="url(#clip830)" d="M859.353 1457.48 Q855.742 1457.48 853.913 1461.04 Q852.108 1464.58 852.108 1471.71 Q852.108 1478.82 853.913 1482.38 Q855.742 1485.92 859.353 1485.92 Q862.987 1485.92 864.793 1482.38 Q866.622 1478.82 866.622 1471.71 Q866.622 1464.58 864.793 1461.04 Q862.987 1457.48 859.353 1457.48 M859.353 1453.77 Q865.163 1453.77 868.219 1458.38 Q871.297 1462.96 871.297 1471.71 Q871.297 1480.44 868.219 1485.04 Q865.163 1489.63 859.353 1489.63 Q853.543 1489.63 850.464 1485.04 Q847.409 1480.44 847.409 1471.71 Q847.409 1462.96 850.464 1458.38 Q853.543 1453.77 859.353 1453.77 Z" fill="#000000" fill-rule="nonzero" fill-opacity="1" /><path clip-path="url(#clip830)" d="M881.322 1445.99 Q878.764 1445.99 877.26 1447.74 Q875.774 1449.49 875.774 1452.54 Q875.774 1455.57 877.26 1457.33 Q878.764 1459.08 881.322 1459.08 Q883.88 1459.08 885.366 1457.33 Q886.87 1455.57 886.87 1452.54 Q886.87 1449.49 885.366 1447.74 Q883.88 1445.99 881.322 1445.99 M888.864 1434.09 L888.864 1437.55 Q887.435 1436.87 885.968 1436.51 Q884.519 1436.16 883.09 1436.16 Q879.328 1436.16 877.335 1438.69 Q875.36 1441.23 875.078 1446.37 Q876.187 1444.73 877.861 1443.87 Q879.535 1442.98 881.548 1442.98 Q885.779 1442.98 888.224 1445.56 Q890.688 1448.12 890.688 1452.54 Q890.688 1456.86 888.13 1459.48 Q885.573 1462.09 881.322 1462.09 Q876.451 1462.09 873.874 1458.37 Q871.297 1454.62 871.297 1447.53 Q871.297 1440.88 874.457 1436.93 Q877.617 1432.96 882.939 1432.96 Q884.369 1432.96 885.817 1433.24 Q887.284 1433.52 888.864 1434.09 Z" fill="#000000" fill-rule="nonzero" fill-opacity="1" /><path clip-path="url(#clip830)" d="M1207.59 1485.02 L1223.91 1485.02 L1223.91 1488.96 L1201.96 1488.96 L1201.96 1485.02 Q1204.62 1482.27 1209.21 1477.64 Q1213.81 1472.98 1214.99 1471.64 Q1217.24 1469.12 1218.12 1467.38 Q1219.02 1465.62 1219.02 1463.93 Q1219.02 1461.18 1217.08 1459.44 Q1215.16 1457.71 1212.05 1457.71 Q1209.86 1457.71 1207.4 1458.47 Q1204.97 1459.23 1202.19 1460.79 L1202.19 1456.06 Q1205.02 1454.93 1207.47 1454.35 Q1209.92 1453.77 1211.96 1453.77 Q1217.33 1453.77 1220.53 1456.46 Q1223.72 1459.14 1223.72 1463.63 Q1223.72 1465.76 1222.91 1467.68 Q1222.12 1469.58 1220.02 1472.17 Q1219.44 1472.85 1216.34 1476.06 Q1213.23 1479.26 1207.59 1485.02 Z" fill="#000000" fill-rule="nonzero" fill-opacity="1" /><path clip-path="url(#clip830)" d="M1233.72 1483.08 L1238.61 1483.08 L1238.61 1488.96 L1233.72 1488.96 L1233.72 1483.08 Z" fill="#000000" fill-rule="nonzero" fill-opacity="1" /><path clip-path="url(#clip830)" d="M1258.79 1457.48 Q1255.18 1457.48 1253.35 1461.04 Q1251.54 1464.58 1251.54 1471.71 Q1251.54 1478.82 1253.35 1482.38 Q1255.18 1485.92 1258.79 1485.92 Q1262.42 1485.92 1264.23 1482.38 Q1266.06 1478.82 1266.06 1471.71 Q1266.06 1464.58 1264.23 1461.04 Q1262.42 1457.48 1258.79 1457.48 M1258.79 1453.77 Q1264.6 1453.77 1267.66 1458.38 Q1270.73 1462.96 1270.73 1471.71 Q1270.73 1480.44 1267.66 1485.04 Q1264.6 1489.63 1258.79 1489.63 Q1252.98 1489.63 1249.9 1485.04 Q1246.85 1480.44 1246.85 1471.71 Q1246.85 1462.96 1249.9 1458.38 Q1252.98 1453.77 1258.79 1453.77 Z" fill="#000000" fill-rule="nonzero" fill-opacity="1" /><path clip-path="url(#clip830)" d="M1307.12 1463.49 L1296.54 1474.12 L1307.12 1484.7 L1304.37 1487.5 L1293.74 1476.87 L1283.12 1487.5 L1280.39 1484.7 L1290.94 1474.12 L1280.39 1463.49 L1283.12 1460.69 L1293.74 1471.32 L1304.37 1460.69 L1307.12 1463.49 Z" fill="#000000" fill-rule="nonzero" fill-opacity="1" /><path clip-path="url(#clip830)" d="M1319.48 1485.02 L1327.12 1485.02 L1327.12 1458.66 L1318.81 1460.32 L1318.81 1456.06 L1327.08 1454.4 L1331.75 1454.4 L1331.75 1485.02 L1339.39 1485.02 L1339.39 1488.96 L1319.48 1488.96 L1319.48 1485.02 Z" fill="#000000" fill-rule="nonzero" fill-opacity="1" /><path clip-path="url(#clip830)" d="M1358.84 1457.48 Q1355.22 1457.48 1353.4 1461.04 Q1351.59 1464.58 1351.59 1471.71 Q1351.59 1478.82 1353.4 1482.38 Q1355.22 1485.92 1358.84 1485.92 Q1362.47 1485.92 1364.28 1482.38 Q1366.1 1478.82 1366.1 1471.71 Q1366.1 1464.58 1364.28 1461.04 Q1362.47 1457.48 1358.84 1457.48 M1358.84 1453.77 Q1364.65 1453.77 1367.7 1458.38 Q1370.78 1462.96 1370.78 1471.71 Q1370.78 1480.44 1367.7 1485.04 Q1364.65 1489.63 1358.84 1489.63 Q1353.03 1489.63 1349.95 1485.04 Q1346.89 1480.44 1346.89 1471.71 Q1346.89 1462.96 1349.95 1458.38 Q1353.03 1453.77 1358.84 1453.77 Z" fill="#000000" fill-rule="nonzero" fill-opacity="1" /><path clip-path="url(#clip830)" d="M1380.8 1445.99 Q1378.25 1445.99 1376.74 1447.74 Q1375.26 1449.49 1375.26 1452.54 Q1375.26 1455.57 1376.74 1457.33 Q1378.25 1459.08 1380.8 1459.08 Q1383.36 1459.08 1384.85 1457.33 Q1386.35 1455.57 1386.35 1452.54 Q1386.35 1449.49 1384.85 1447.74 Q1383.36 1445.99 1380.8 1445.99 M1388.35 1434.09 L1388.35 1437.55 Q1386.92 1436.87 1385.45 1436.51 Q1384 1436.16 1382.57 1436.16 Q1378.81 1436.16 1376.82 1438.69 Q1374.84 1441.23 1374.56 1446.37 Q1375.67 1444.73 1377.34 1443.87 Q1379.02 1442.98 1381.03 1442.98 Q1385.26 1442.98 1387.71 1445.56 Q1390.17 1448.12 1390.17 1452.54 Q1390.17 1456.86 1387.61 1459.48 Q1385.06 1462.09 1380.8 1462.09 Q1375.93 1462.09 1373.36 1458.37 Q1370.78 1454.62 1370.78 1447.53 Q1370.78 1440.88 1373.94 1436.93 Q1377.1 1432.96 1382.42 1432.96 Q1383.85 1432.96 1385.3 1433.24 Q1386.77 1433.52 1388.35 1434.09 Z" fill="#000000" fill-rule="nonzero" fill-opacity="1" /><path clip-path="url(#clip830)" d="M1716.27 1470.32 Q1719.63 1471.04 1721.5 1473.31 Q1723.4 1475.58 1723.4 1478.91 Q1723.4 1484.03 1719.88 1486.83 Q1716.36 1489.63 1709.88 1489.63 Q1707.71 1489.63 1705.39 1489.19 Q1703.1 1488.77 1700.65 1487.91 L1700.65 1483.4 Q1702.59 1484.54 1704.91 1485.11 Q1707.22 1485.69 1709.74 1485.69 Q1714.14 1485.69 1716.43 1483.96 Q1718.75 1482.22 1718.75 1478.91 Q1718.75 1475.85 1716.6 1474.14 Q1714.47 1472.41 1710.65 1472.41 L1706.62 1472.41 L1706.62 1468.56 L1710.83 1468.56 Q1714.28 1468.56 1716.11 1467.2 Q1717.94 1465.81 1717.94 1463.22 Q1717.94 1460.55 1716.04 1459.14 Q1714.16 1457.71 1710.65 1457.71 Q1708.72 1457.71 1706.53 1458.12 Q1704.33 1458.54 1701.69 1459.42 L1701.69 1455.25 Q1704.35 1454.51 1706.66 1454.14 Q1709 1453.77 1711.06 1453.77 Q1716.39 1453.77 1719.49 1456.2 Q1722.59 1458.61 1722.59 1462.73 Q1722.59 1465.6 1720.95 1467.59 Q1719.3 1469.56 1716.27 1470.32 Z" fill="#000000" fill-rule="nonzero" fill-opacity="1" /><path clip-path="url(#clip830)" d="M1732.27 1483.08 L1737.15 1483.08 L1737.15 1488.96 L1732.27 1488.96 L1732.27 1483.08 Z" fill="#000000" fill-rule="nonzero" fill-opacity="1" /><path clip-path="url(#clip830)" d="M1757.34 1457.48 Q1753.72 1457.48 1751.9 1461.04 Q1750.09 1464.58 1750.09 1471.71 Q1750.09 1478.82 1751.9 1482.38 Q1753.72 1485.92 1757.34 1485.92 Q1760.97 1485.92 1762.78 1482.38 Q1764.6 1478.82 1764.6 1471.71 Q1764.6 1464.58 1762.78 1461.04 Q1760.97 1457.48 1757.34 1457.48 M1757.34 1453.77 Q1763.15 1453.77 1766.2 1458.38 Q1769.28 1462.96 1769.28 1471.71 Q1769.28 1480.44 1766.2 1485.04 Q1763.15 1489.63 1757.34 1489.63 Q1751.53 1489.63 1748.45 1485.04 Q1745.39 1480.44 1745.39 1471.71 Q1745.39 1462.96 1748.45 1458.38 Q1751.53 1453.77 1757.34 1453.77 Z" fill="#000000" fill-rule="nonzero" fill-opacity="1" /><path clip-path="url(#clip830)" d="M1805.67 1463.49 L1795.09 1474.12 L1805.67 1484.7 L1802.91 1487.5 L1792.29 1476.87 L1781.66 1487.5 L1778.93 1484.7 L1789.49 1474.12 L1778.93 1463.49 L1781.66 1460.69 L1792.29 1471.32 L1802.91 1460.69 L1805.67 1463.49 Z" fill="#000000" fill-rule="nonzero" fill-opacity="1" /><path clip-path="url(#clip830)" d="M1818.03 1485.02 L1825.67 1485.02 L1825.67 1458.66 L1817.36 1460.32 L1817.36 1456.06 L1825.62 1454.4 L1830.3 1454.4 L1830.3 1485.02 L1837.94 1485.02 L1837.94 1488.96 L1818.03 1488.96 L1818.03 1485.02 Z" fill="#000000" fill-rule="nonzero" fill-opacity="1" /><path clip-path="url(#clip830)" d="M1857.38 1457.48 Q1853.77 1457.48 1851.94 1461.04 Q1850.14 1464.58 1850.14 1471.71 Q1850.14 1478.82 1851.94 1482.38 Q1853.77 1485.92 1857.38 1485.92 Q1861.02 1485.92 1862.82 1482.38 Q1864.65 1478.82 1864.65 1471.71 Q1864.65 1464.58 1862.82 1461.04 Q1861.02 1457.48 1857.38 1457.48 M1857.38 1453.77 Q1863.19 1453.77 1866.25 1458.38 Q1869.33 1462.96 1869.33 1471.71 Q1869.33 1480.44 1866.25 1485.04 Q1863.19 1489.63 1857.38 1489.63 Q1851.57 1489.63 1848.49 1485.04 Q1845.44 1480.44 1845.44 1471.71 Q1845.44 1462.96 1848.49 1458.38 Q1851.57 1453.77 1857.38 1453.77 Z" fill="#000000" fill-rule="nonzero" fill-opacity="1" /><path clip-path="url(#clip830)" d="M1879.35 1445.99 Q1876.79 1445.99 1875.29 1447.74 Q1873.8 1449.49 1873.8 1452.54 Q1873.8 1455.57 1875.29 1457.33 Q1876.79 1459.08 1879.35 1459.08 Q1881.91 1459.08 1883.39 1457.33 Q1884.9 1455.57 1884.9 1452.54 Q1884.9 1449.49 1883.39 1447.74 Q1881.91 1445.99 1879.35 1445.99 M1886.89 1434.09 L1886.89 1437.55 Q1885.46 1436.87 1884 1436.51 Q1882.55 1436.16 1881.12 1436.16 Q1877.36 1436.16 1875.36 1438.69 Q1873.39 1441.23 1873.11 1446.37 Q1874.22 1444.73 1875.89 1443.87 Q1877.56 1442.98 1879.58 1442.98 Q1883.81 1442.98 1886.25 1445.56 Q1888.72 1448.12 1888.72 1452.54 Q1888.72 1456.86 1886.16 1459.48 Q1883.6 1462.09 1879.35 1462.09 Q1874.48 1462.09 1871.9 1458.37 Q1869.33 1454.62 1869.33 1447.53 Q1869.33 1440.88 1872.49 1436.93 Q1875.65 1432.96 1880.97 1432.96 Q1882.4 1432.96 1883.85 1433.24 Q1885.31 1433.52 1886.89 1434.09 Z" fill="#000000" fill-rule="nonzero" fill-opacity="1" /><path clip-path="url(#clip830)" d="M2214.21 1458.47 L2202.41 1476.92 L2214.21 1476.92 L2214.21 1458.47 M2212.99 1454.4 L2218.87 1454.4 L2218.87 1476.92 L2223.8 1476.92 L2223.8 1480.81 L2218.87 1480.81 L2218.87 1488.96 L2214.21 1488.96 L2214.21 1480.81 L2198.61 1480.81 L2198.61 1476.29 L2212.99 1454.4 Z" fill="#000000" fill-rule="nonzero" fill-opacity="1" /><path clip-path="url(#clip830)" d="M2231.53 1483.08 L2236.41 1483.08 L2236.41 1488.96 L2231.53 1488.96 L2231.53 1483.08 Z" fill="#000000" fill-rule="nonzero" fill-opacity="1" /><path clip-path="url(#clip830)" d="M2256.6 1457.48 Q2252.99 1457.48 2251.16 1461.04 Q2249.35 1464.58 2249.35 1471.71 Q2249.35 1478.82 2251.16 1482.38 Q2252.99 1485.92 2256.6 1485.92 Q2260.23 1485.92 2262.04 1482.38 Q2263.87 1478.82 2263.87 1471.71 Q2263.87 1464.58 2262.04 1461.04 Q2260.23 1457.48 2256.6 1457.48 M2256.6 1453.77 Q2262.41 1453.77 2265.46 1458.38 Q2268.54 1462.96 2268.54 1471.71 Q2268.54 1480.44 2265.46 1485.04 Q2262.41 1489.63 2256.6 1489.63 Q2250.79 1489.63 2247.71 1485.04 Q2244.65 1480.44 2244.65 1471.71 Q2244.65 1462.96 2247.71 1458.38 Q2250.79 1453.77 2256.6 1453.77 Z" fill="#000000" fill-rule="nonzero" fill-opacity="1" /><path clip-path="url(#clip830)" d="M2304.93 1463.49 L2294.35 1474.12 L2304.93 1484.7 L2302.18 1487.5 L2291.55 1476.87 L2280.93 1487.5 L2278.2 1484.7 L2288.75 1474.12 L2278.2 1463.49 L2280.93 1460.69 L2291.55 1471.32 L2302.18 1460.69 L2304.93 1463.49 Z" fill="#000000" fill-rule="nonzero" fill-opacity="1" /><path clip-path="url(#clip830)" d="M2317.29 1485.02 L2324.93 1485.02 L2324.93 1458.66 L2316.62 1460.32 L2316.62 1456.06 L2324.89 1454.4 L2329.56 1454.4 L2329.56 1485.02 L2337.2 1485.02 L2337.2 1488.96 L2317.29 1488.96 L2317.29 1485.02 Z" fill="#000000" fill-rule="nonzero" fill-opacity="1" /><path clip-path="url(#clip830)" d="M2356.64 1457.48 Q2353.03 1457.48 2351.2 1461.04 Q2349.4 1464.58 2349.4 1471.71 Q2349.4 1478.82 2351.2 1482.38 Q2353.03 1485.92 2356.64 1485.92 Q2360.28 1485.92 2362.08 1482.38 Q2363.91 1478.82 2363.91 1471.71 Q2363.91 1464.58 2362.08 1461.04 Q2360.28 1457.48 2356.64 1457.48 M2356.64 1453.77 Q2362.45 1453.77 2365.51 1458.38 Q2368.59 1462.96 2368.59 1471.71 Q2368.59 1480.44 2365.51 1485.04 Q2362.45 1489.63 2356.64 1489.63 Q2350.83 1489.63 2347.76 1485.04 Q2344.7 1480.44 2344.7 1471.71 Q2344.7 1462.96 2347.76 1458.38 Q2350.83 1453.77 2356.64 1453.77 Z" fill="#000000" fill-rule="nonzero" fill-opacity="1" /><path clip-path="url(#clip830)" d="M2378.61 1445.99 Q2376.06 1445.99 2374.55 1447.74 Q2373.06 1449.49 2373.06 1452.54 Q2373.06 1455.57 2374.55 1457.33 Q2376.06 1459.08 2378.61 1459.08 Q2381.17 1459.08 2382.66 1457.33 Q2384.16 1455.57 2384.16 1452.54 Q2384.16 1449.49 2382.66 1447.74 Q2381.17 1445.99 2378.61 1445.99 M2386.16 1434.09 L2386.16 1437.55 Q2384.73 1436.87 2383.26 1436.51 Q2381.81 1436.16 2380.38 1436.16 Q2376.62 1436.16 2374.63 1438.69 Q2372.65 1441.23 2372.37 1446.37 Q2373.48 1444.73 2375.15 1443.87 Q2376.83 1442.98 2378.84 1442.98 Q2383.07 1442.98 2385.52 1445.56 Q2387.98 1448.12 2387.98 1452.54 Q2387.98 1456.86 2385.42 1459.48 Q2382.86 1462.09 2378.61 1462.09 Q2373.74 1462.09 2371.17 1458.37 Q2368.59 1454.62 2368.59 1447.53 Q2368.59 1440.88 2371.75 1436.93 Q2374.91 1432.96 2380.23 1432.96 Q2381.66 1432.96 2383.11 1433.24 Q2384.58 1433.52 2386.16 1434.09 Z" fill="#000000" fill-rule="nonzero" fill-opacity="1" /><path clip-path="url(#clip830)" d="M1062.52 1526.67 L1089.83 1526.67 L1089.83 1532.08 L1068.95 1532.08 L1068.95 1546.08 L1087.79 1546.08 L1087.79 1551.49 L1068.95 1551.49 L1068.95 1574.19 L1062.52 1574.19 L1062.52 1526.67 Z" fill="#000000" fill-rule="nonzero" fill-opacity="1" /><path clip-path="url(#clip830)" d="M1115.67 1544.01 Q1114.69 1543.44 1113.51 1543.18 Q1112.36 1542.9 1110.96 1542.9 Q1106 1542.9 1103.32 1546.14 Q1100.68 1549.36 1100.68 1555.41 L1100.68 1574.19 L1094.79 1574.19 L1094.79 1538.54 L1100.68 1538.54 L1100.68 1544.08 Q1102.53 1540.83 1105.49 1539.27 Q1108.45 1537.68 1112.68 1537.68 Q1113.29 1537.68 1114.02 1537.77 Q1114.75 1537.84 1115.64 1538 L1115.67 1544.01 Z" fill="#000000" fill-rule="nonzero" fill-opacity="1" /><path clip-path="url(#clip830)" d="M1150.87 1554.9 L1150.87 1557.76 L1123.95 1557.76 Q1124.33 1563.81 1127.58 1566.99 Q1130.85 1570.14 1136.68 1570.14 Q1140.05 1570.14 1143.2 1569.32 Q1146.39 1568.49 1149.51 1566.83 L1149.51 1572.37 Q1146.36 1573.71 1143.05 1574.41 Q1139.73 1575.11 1136.33 1575.11 Q1127.8 1575.11 1122.8 1570.14 Q1117.84 1565.18 1117.84 1556.71 Q1117.84 1547.96 1122.55 1542.83 Q1127.29 1537.68 1135.31 1537.68 Q1142.5 1537.68 1146.67 1542.33 Q1150.87 1546.94 1150.87 1554.9 M1145.02 1553.18 Q1144.95 1548.37 1142.31 1545.51 Q1139.7 1542.64 1135.37 1542.64 Q1130.47 1542.64 1127.51 1545.41 Q1124.58 1548.18 1124.14 1553.21 L1145.02 1553.18 Z" fill="#000000" fill-rule="nonzero" fill-opacity="1" /><path clip-path="url(#clip830)" d="M1163.99 1556.39 Q1163.99 1562.85 1166.63 1566.55 Q1169.3 1570.21 1173.95 1570.21 Q1178.6 1570.21 1181.27 1566.55 Q1183.94 1562.85 1183.94 1556.39 Q1183.94 1549.93 1181.27 1546.27 Q1178.6 1542.58 1173.95 1542.58 Q1169.3 1542.58 1166.63 1546.27 Q1163.99 1549.93 1163.99 1556.39 M1183.94 1568.84 Q1182.1 1572.02 1179.27 1573.58 Q1176.47 1575.11 1172.52 1575.11 Q1166.06 1575.11 1161.98 1569.95 Q1157.94 1564.8 1157.94 1556.39 Q1157.94 1547.99 1161.98 1542.83 Q1166.06 1537.68 1172.52 1537.68 Q1176.47 1537.68 1179.27 1539.24 Q1182.1 1540.77 1183.94 1543.95 L1183.94 1538.54 L1189.8 1538.54 L1189.8 1587.74 L1183.94 1587.74 L1183.94 1568.84 Z" fill="#000000" fill-rule="nonzero" fill-opacity="1" /><path clip-path="url(#clip830)" d="M1201.26 1560.12 L1201.26 1538.54 L1207.12 1538.54 L1207.12 1559.89 Q1207.12 1564.96 1209.09 1567.5 Q1211.06 1570.02 1215.01 1570.02 Q1219.75 1570.02 1222.49 1566.99 Q1225.26 1563.97 1225.26 1558.75 L1225.26 1538.54 L1231.11 1538.54 L1231.11 1574.19 L1225.26 1574.19 L1225.26 1568.71 Q1223.13 1571.96 1220.29 1573.55 Q1217.49 1575.11 1213.77 1575.11 Q1207.63 1575.11 1204.44 1571.29 Q1201.26 1567.47 1201.26 1560.12 M1216 1537.68 L1216 1537.68 Z" fill="#000000" fill-rule="nonzero" fill-opacity="1" /><path clip-path="url(#clip830)" d="M1273.67 1554.9 L1273.67 1557.76 L1246.74 1557.76 Q1247.12 1563.81 1250.37 1566.99 Q1253.65 1570.14 1259.47 1570.14 Q1262.85 1570.14 1266 1569.32 Q1269.18 1568.49 1272.3 1566.83 L1272.3 1572.37 Q1269.15 1573.71 1265.84 1574.41 Q1262.53 1575.11 1259.12 1575.11 Q1250.59 1575.11 1245.6 1570.14 Q1240.63 1565.18 1240.63 1556.71 Q1240.63 1547.96 1245.34 1542.83 Q1250.08 1537.68 1258.11 1537.68 Q1265.3 1537.68 1269.47 1542.33 Q1273.67 1546.94 1273.67 1554.9 M1267.81 1553.18 Q1267.75 1548.37 1265.11 1545.51 Q1262.5 1542.64 1258.17 1542.64 Q1253.27 1542.64 1250.31 1545.41 Q1247.38 1548.18 1246.93 1553.21 L1267.81 1553.18 Z" fill="#000000" fill-rule="nonzero" fill-opacity="1" /><path clip-path="url(#clip830)" d="M1312.91 1552.67 L1312.91 1574.19 L1307.06 1574.19 L1307.06 1552.86 Q1307.06 1547.8 1305.08 1545.29 Q1303.11 1542.77 1299.16 1542.77 Q1294.42 1542.77 1291.68 1545.79 Q1288.95 1548.82 1288.95 1554.04 L1288.95 1574.19 L1283.06 1574.19 L1283.06 1538.54 L1288.95 1538.54 L1288.95 1544.08 Q1291.05 1540.86 1293.88 1539.27 Q1296.75 1537.68 1300.47 1537.68 Q1306.61 1537.68 1309.76 1541.5 Q1312.91 1545.29 1312.91 1552.67 Z" fill="#000000" fill-rule="nonzero" fill-opacity="1" /><path clip-path="url(#clip830)" d="M1350.25 1539.91 L1350.25 1545.38 Q1347.77 1544.01 1345.25 1543.34 Q1342.77 1542.64 1340.22 1542.64 Q1334.53 1542.64 1331.37 1546.27 Q1328.22 1549.87 1328.22 1556.39 Q1328.22 1562.92 1331.37 1566.55 Q1334.53 1570.14 1340.22 1570.14 Q1342.77 1570.14 1345.25 1569.47 Q1347.77 1568.77 1350.25 1567.41 L1350.25 1572.82 Q1347.8 1573.96 1345.16 1574.54 Q1342.55 1575.11 1339.59 1575.11 Q1331.53 1575.11 1326.79 1570.05 Q1322.05 1564.99 1322.05 1556.39 Q1322.05 1547.67 1326.82 1542.68 Q1331.63 1537.68 1339.97 1537.68 Q1342.67 1537.68 1345.25 1538.25 Q1347.83 1538.79 1350.25 1539.91 Z" fill="#000000" fill-rule="nonzero" fill-opacity="1" /><path clip-path="url(#clip830)" d="M1375.27 1577.5 Q1372.78 1583.86 1370.43 1585.8 Q1368.07 1587.74 1364.13 1587.74 L1359.45 1587.74 L1359.45 1582.84 L1362.88 1582.84 Q1365.3 1582.84 1366.64 1581.7 Q1367.98 1580.55 1369.6 1576.29 L1370.65 1573.61 L1356.23 1538.54 L1362.44 1538.54 L1373.58 1566.42 L1384.72 1538.54 L1390.93 1538.54 L1375.27 1577.5 Z" fill="#000000" fill-rule="nonzero" fill-opacity="1" /><path clip-path="url(#clip830)" d="M1419.19 1524.66 L1432.68 1524.66 L1432.68 1529.21 L1425.05 1529.21 L1425.05 1578.23 L1432.68 1578.23 L1432.68 1582.78 L1419.19 1582.78 L1419.19 1524.66 Z" fill="#000000" fill-rule="nonzero" fill-opacity="1" /><path clip-path="url(#clip830)" d="M1445.42 1526.67 L1451.85 1526.67 L1451.85 1546.14 L1475.21 1546.14 L1475.21 1526.67 L1481.64 1526.67 L1481.64 1574.19 L1475.21 1574.19 L1475.21 1551.56 L1451.85 1551.56 L1451.85 1574.19 L1445.42 1574.19 L1445.42 1526.67 Z" fill="#000000" fill-rule="nonzero" fill-opacity="1" /><path clip-path="url(#clip830)" d="M1491.63 1538.54 L1519.45 1538.54 L1519.45 1543.88 L1497.42 1569.51 L1519.45 1569.51 L1519.45 1574.19 L1490.84 1574.19 L1490.84 1568.84 L1512.86 1543.22 L1491.63 1543.22 L1491.63 1538.54 Z" fill="#000000" fill-rule="nonzero" fill-opacity="1" /><path clip-path="url(#clip830)" d="M1542.08 1524.66 L1542.08 1582.78 L1528.58 1582.78 L1528.58 1578.23 L1536.19 1578.23 L1536.19 1529.21 L1528.58 1529.21 L1528.58 1524.66 L1542.08 1524.66 Z" fill="#000000" fill-rule="nonzero" fill-opacity="1" /><polyline clip-path="url(#clip830)" style="stroke:#000000; stroke-linecap:round; stroke-linejoin:round; stroke-width:4; stroke-opacity:1; fill:none" points="251.842,1410.9 251.842,47.2441 "/>
<polyline clip-path="url(#clip830)" style="stroke:#000000; stroke-linecap:round; stroke-linejoin:round; stroke-width:4; stroke-opacity:1; fill:none" points="251.842,1065.59 270.74,1065.59 "/>
<polyline clip-path="url(#clip830)" style="stroke:#000000; stroke-linecap:round; stroke-linejoin:round; stroke-width:4; stroke-opacity:1; fill:none" points="251.842,591.666 270.74,591.666 "/>
<polyline clip-path="url(#clip830)" style="stroke:#000000; stroke-linecap:round; stroke-linejoin:round; stroke-width:4; stroke-opacity:1; fill:none" points="251.842,117.746 270.74,117.746 "/>
<path clip-path="url(#clip830)" d="M114.931 1085.38 L122.57 1085.38 L122.57 1059.01 L114.26 1060.68 L114.26 1056.42 L122.524 1054.75 L127.2 1054.75 L127.2 1085.38 L134.839 1085.38 L134.839 1089.31 L114.931 1089.31 L114.931 1085.38 Z" fill="#000000" fill-rule="nonzero" fill-opacity="1" /><path clip-path="url(#clip830)" d="M154.283 1057.83 Q150.672 1057.83 148.843 1061.4 Q147.038 1064.94 147.038 1072.07 Q147.038 1079.17 148.843 1082.74 Q150.672 1086.28 154.283 1086.28 Q157.917 1086.28 159.723 1082.74 Q161.552 1079.17 161.552 1072.07 Q161.552 1064.94 159.723 1061.4 Q157.917 1057.83 154.283 1057.83 M154.283 1054.13 Q160.093 1054.13 163.149 1058.73 Q166.227 1063.32 166.227 1072.07 Q166.227 1080.8 163.149 1085.4 Q160.093 1089.98 154.283 1089.98 Q148.473 1089.98 145.394 1085.4 Q142.339 1080.8 142.339 1072.07 Q142.339 1063.32 145.394 1058.73 Q148.473 1054.13 154.283 1054.13 Z" fill="#000000" fill-rule="nonzero" fill-opacity="1" /><path clip-path="url(#clip830)" d="M166.227 1048.23 L190.339 1048.23 L190.339 1051.43 L166.227 1051.43 L166.227 1048.23 Z" fill="#000000" fill-rule="nonzero" fill-opacity="1" /><path clip-path="url(#clip830)" d="M210.05 1046.76 Q212.777 1047.35 214.3 1049.19 Q215.842 1051.03 215.842 1053.74 Q215.842 1057.9 212.984 1060.17 Q210.125 1062.45 204.859 1062.45 Q203.091 1062.45 201.21 1062.09 Q199.348 1061.75 197.354 1061.06 L197.354 1057.39 Q198.934 1058.31 200.815 1058.78 Q202.696 1059.25 204.746 1059.25 Q208.319 1059.25 210.181 1057.84 Q212.062 1056.43 212.062 1053.74 Q212.062 1051.26 210.313 1049.87 Q208.583 1048.46 205.479 1048.46 L202.207 1048.46 L202.207 1045.33 L205.63 1045.33 Q208.432 1045.33 209.918 1044.22 Q211.404 1043.1 211.404 1040.99 Q211.404 1038.83 209.861 1037.68 Q208.338 1036.51 205.479 1036.51 Q203.918 1036.51 202.132 1036.85 Q200.345 1037.19 198.201 1037.9 L198.201 1034.52 Q200.364 1033.92 202.244 1033.62 Q204.144 1033.32 205.818 1033.32 Q210.144 1033.32 212.664 1035.29 Q215.184 1037.25 215.184 1040.59 Q215.184 1042.93 213.849 1044.54 Q212.513 1046.14 210.05 1046.76 Z" fill="#000000" fill-rule="nonzero" fill-opacity="1" /><path clip-path="url(#clip830)" d="M115.703 611.458 L123.341 611.458 L123.341 585.093 L115.031 586.759 L115.031 582.5 L123.295 580.833 L127.971 580.833 L127.971 611.458 L135.61 611.458 L135.61 615.393 L115.703 615.393 L115.703 611.458 Z" fill="#000000" fill-rule="nonzero" fill-opacity="1" /><path clip-path="url(#clip830)" d="M155.054 583.912 Q151.443 583.912 149.614 587.477 Q147.809 591.018 147.809 598.148 Q147.809 605.254 149.614 608.819 Q151.443 612.361 155.054 612.361 Q158.688 612.361 160.494 608.819 Q162.323 605.254 162.323 598.148 Q162.323 591.018 160.494 587.477 Q158.688 583.912 155.054 583.912 M155.054 580.208 Q160.864 580.208 163.92 584.815 Q166.999 589.398 166.999 598.148 Q166.999 606.875 163.92 611.481 Q160.864 616.065 155.054 616.065 Q149.244 616.065 146.165 611.481 Q143.11 606.875 143.11 598.148 Q143.11 589.398 146.165 584.815 Q149.244 580.208 155.054 580.208 Z" fill="#000000" fill-rule="nonzero" fill-opacity="1" /><path clip-path="url(#clip830)" d="M166.999 574.31 L191.11 574.31 L191.11 577.507 L166.999 577.507 L166.999 574.31 Z" fill="#000000" fill-rule="nonzero" fill-opacity="1" /><path clip-path="url(#clip830)" d="M202.583 584.786 L215.842 584.786 L215.842 587.983 L198.013 587.983 L198.013 584.786 Q200.175 582.547 203.899 578.786 Q207.642 575.006 208.601 573.915 Q210.426 571.865 211.14 570.454 Q211.874 569.025 211.874 567.652 Q211.874 565.414 210.294 564.003 Q208.733 562.592 206.213 562.592 Q204.426 562.592 202.432 563.213 Q200.458 563.834 198.201 565.094 L198.201 561.257 Q200.495 560.336 202.489 559.865 Q204.482 559.395 206.138 559.395 Q210.501 559.395 213.096 561.577 Q215.692 563.759 215.692 567.407 Q215.692 569.138 215.034 570.699 Q214.394 572.241 212.683 574.347 Q212.212 574.893 209.692 577.507 Q207.172 580.102 202.583 584.786 Z" fill="#000000" fill-rule="nonzero" fill-opacity="1" /><path clip-path="url(#clip830)" d="M115.402 137.538 L123.04 137.538 L123.04 111.172 L114.73 112.839 L114.73 108.58 L122.994 106.913 L127.67 106.913 L127.67 137.538 L135.309 137.538 L135.309 141.473 L115.402 141.473 L115.402 137.538 Z" fill="#000000" fill-rule="nonzero" fill-opacity="1" /><path clip-path="url(#clip830)" d="M154.753 109.992 Q151.142 109.992 149.313 113.557 Q147.508 117.098 147.508 124.228 Q147.508 131.334 149.313 134.899 Q151.142 138.441 154.753 138.441 Q158.388 138.441 160.193 134.899 Q162.022 131.334 162.022 124.228 Q162.022 117.098 160.193 113.557 Q158.388 109.992 154.753 109.992 M154.753 106.288 Q160.563 106.288 163.619 110.895 Q166.698 115.478 166.698 124.228 Q166.698 132.955 163.619 137.561 Q160.563 142.144 154.753 142.144 Q148.943 142.144 145.864 137.561 Q142.809 132.955 142.809 124.228 Q142.809 115.478 145.864 110.895 Q148.943 106.288 154.753 106.288 Z" fill="#000000" fill-rule="nonzero" fill-opacity="1" /><path clip-path="url(#clip830)" d="M166.698 100.39 L190.809 100.39 L190.809 103.587 L166.698 103.587 L166.698 100.39 Z" fill="#000000" fill-rule="nonzero" fill-opacity="1" /><path clip-path="url(#clip830)" d="M199.668 110.865 L205.874 110.865 L205.874 89.4434 L199.122 90.7976 L199.122 87.3369 L205.837 85.9828 L209.636 85.9828 L209.636 110.865 L215.842 110.865 L215.842 114.063 L199.668 114.063 L199.668 110.865 Z" fill="#000000" fill-rule="nonzero" fill-opacity="1" /><path clip-path="url(#clip830)" d="M16.4842 896.807 L16.4842 887.226 L48.8219 875.1 L16.4842 862.909 L16.4842 853.329 L64.0042 853.329 L64.0042 859.599 L22.277 859.599 L54.8694 871.853 L54.8694 878.314 L22.277 890.568 L64.0042 890.568 L64.0042 896.807 L16.4842 896.807 Z" fill="#000000" fill-rule="nonzero" fill-opacity="1" /><path clip-path="url(#clip830)" d="M46.0847 824.62 Q46.0847 831.717 47.7079 834.455 Q49.3312 837.192 53.2461 837.192 Q56.3653 837.192 58.2114 835.155 Q60.0256 833.086 60.0256 829.553 Q60.0256 824.683 56.5881 821.755 Q53.1188 818.795 47.3897 818.795 L46.0847 818.795 L46.0847 824.62 M43.6657 812.939 L64.0042 812.939 L64.0042 818.795 L58.5933 818.795 Q61.8398 820.8 63.3994 823.792 Q64.9272 826.784 64.9272 831.113 Q64.9272 836.587 61.8716 839.834 Q58.7843 843.048 53.6281 843.048 Q47.6125 843.048 44.5569 839.038 Q41.5014 834.996 41.5014 827.007 L41.5014 818.795 L40.9285 818.795 Q36.8862 818.795 34.6901 821.469 Q32.4621 824.11 32.4621 828.916 Q32.4621 831.972 33.1941 834.868 Q33.9262 837.765 35.3903 840.438 L29.9795 840.438 Q28.7381 837.224 28.1334 834.2 Q27.4968 831.176 27.4968 828.312 Q27.4968 820.577 31.5072 816.758 Q35.5176 812.939 43.6657 812.939 Z" fill="#000000" fill-rule="nonzero" fill-opacity="1" /><path clip-path="url(#clip830)" d="M45.7664 777.418 Q39.4007 777.418 35.8996 780.06 Q32.3984 782.67 32.3984 787.412 Q32.3984 792.123 35.8996 794.764 Q39.4007 797.374 45.7664 797.374 Q52.1003 797.374 55.6014 794.764 Q59.1026 792.123 59.1026 787.412 Q59.1026 782.67 55.6014 780.06 Q52.1003 777.418 45.7664 777.418 M59.58 771.561 Q68.683 771.561 73.1071 775.604 Q77.5631 779.646 77.5631 787.985 Q77.5631 791.072 77.0857 793.81 Q76.6401 796.547 75.6852 799.125 L69.9879 799.125 Q71.3884 796.547 72.0568 794.032 Q72.7252 791.518 72.7252 788.908 Q72.7252 783.147 69.7015 780.282 Q66.7096 777.418 60.6303 777.418 L57.7339 777.418 Q60.885 779.232 62.4446 782.065 Q64.0042 784.898 64.0042 788.844 Q64.0042 795.401 59.0071 799.411 Q54.01 803.422 45.7664 803.422 Q37.491 803.422 32.4939 799.411 Q27.4968 795.401 27.4968 788.844 Q27.4968 784.898 29.0564 782.065 Q30.616 779.232 33.7671 777.418 L28.3562 777.418 L28.3562 771.561 L59.58 771.561 Z" fill="#000000" fill-rule="nonzero" fill-opacity="1" /><path clip-path="url(#clip830)" d="M42.4881 729.866 L64.0042 729.866 L64.0042 735.723 L42.679 735.723 Q37.6183 735.723 35.1038 737.696 Q32.5894 739.669 32.5894 743.616 Q32.5894 748.358 35.6131 751.096 Q38.6368 753.833 43.8567 753.833 L64.0042 753.833 L64.0042 759.721 L28.3562 759.721 L28.3562 753.833 L33.8944 753.833 Q30.6797 751.732 29.0883 748.9 Q27.4968 746.035 27.4968 742.311 Q27.4968 736.168 31.3163 733.017 Q35.1038 729.866 42.4881 729.866 Z" fill="#000000" fill-rule="nonzero" fill-opacity="1" /><path clip-path="url(#clip830)" d="M28.3562 718.185 L28.3562 712.329 L64.0042 712.329 L64.0042 718.185 L28.3562 718.185 M14.479 718.185 L14.479 712.329 L21.895 712.329 L21.895 718.185 L14.479 718.185 Z" fill="#000000" fill-rule="nonzero" fill-opacity="1" /><path clip-path="url(#clip830)" d="M18.2347 694.282 L28.3562 694.282 L28.3562 682.219 L32.9077 682.219 L32.9077 694.282 L52.2594 694.282 Q56.6199 694.282 57.8613 693.104 Q59.1026 691.895 59.1026 688.234 L59.1026 682.219 L64.0042 682.219 L64.0042 688.234 Q64.0042 695.014 61.4897 697.592 Q58.9434 700.17 52.2594 700.17 L32.9077 700.17 L32.9077 704.467 L28.3562 704.467 L28.3562 700.17 L18.2347 700.17 L18.2347 694.282 Z" fill="#000000" fill-rule="nonzero" fill-opacity="1" /><path clip-path="url(#clip830)" d="M49.9359 675.121 L28.3562 675.121 L28.3562 669.265 L49.7131 669.265 Q54.7739 669.265 57.3202 667.291 Q59.8346 665.318 59.8346 661.371 Q59.8346 656.629 56.8109 653.891 Q53.7872 651.122 48.5673 651.122 L28.3562 651.122 L28.3562 645.266 L64.0042 645.266 L64.0042 651.122 L58.5296 651.122 Q61.7762 653.255 63.3676 656.088 Q64.9272 658.888 64.9272 662.612 Q64.9272 668.755 61.1078 671.938 Q57.2883 675.121 49.9359 675.121 M27.4968 660.384 L27.4968 660.384 Z" fill="#000000" fill-rule="nonzero" fill-opacity="1" /><path clip-path="url(#clip830)" d="M33.7671 609.745 L14.479 609.745 L14.479 603.889 L64.0042 603.889 L64.0042 609.745 L58.657 609.745 Q61.8398 611.591 63.3994 614.424 Q64.9272 617.225 64.9272 621.172 Q64.9272 627.633 59.771 631.707 Q54.6147 635.749 46.212 635.749 Q37.8093 635.749 32.6531 631.707 Q27.4968 627.633 27.4968 621.172 Q27.4968 617.225 29.0564 614.424 Q30.5842 611.591 33.7671 609.745 M46.212 629.702 Q52.6732 629.702 56.3653 627.06 Q60.0256 624.386 60.0256 619.739 Q60.0256 615.092 56.3653 612.419 Q52.6732 609.745 46.212 609.745 Q39.7508 609.745 36.0905 612.419 Q32.3984 615.092 32.3984 619.739 Q32.3984 624.386 36.0905 627.06 Q39.7508 629.702 46.212 629.702 Z" fill="#000000" fill-rule="nonzero" fill-opacity="1" /><path clip-path="url(#clip830)" d="M44.7161 561.334 L47.5806 561.334 L47.5806 588.261 Q53.6281 587.879 56.8109 584.632 Q59.9619 581.354 59.9619 575.53 Q59.9619 572.156 59.1344 569.005 Q58.3069 565.822 56.6518 562.703 L62.1899 562.703 Q63.5267 565.854 64.227 569.164 Q64.9272 572.474 64.9272 575.88 Q64.9272 584.41 59.9619 589.407 Q54.9967 594.372 46.5303 594.372 Q37.7774 594.372 32.6531 589.661 Q27.4968 584.919 27.4968 576.898 Q27.4968 569.705 32.1438 565.535 Q36.7589 561.334 44.7161 561.334 M42.9973 567.19 Q38.1912 567.254 35.3266 569.896 Q32.4621 572.506 32.4621 576.834 Q32.4621 581.736 35.2312 584.696 Q38.0002 587.624 43.0292 588.07 L42.9973 567.19 Z" fill="#000000" fill-rule="nonzero" fill-opacity="1" /><polyline clip-path="url(#clip832)" style="stroke:#0000ff; stroke-linecap:round; stroke-linejoin:round; stroke-width:4; stroke-opacity:1; fill:none" points="311.302,1078.43 323.768,1014.66 336.233,920.581 348.698,854.785 361.164,798.191 373.629,756.515 386.094,785.378 398.56,735.32 411.025,701.397 423.491,678.696 435.956,647.939 448.421,655.255 460.887,624.533 473.352,602.007 485.817,581.924 498.283,565.164 510.748,551.349 523.213,532.132 535.679,514.876 548.144,499.659 560.61,483.456 573.075,465.997 585.54,448.763 598.006,431.294 610.471,413.386 622.936,394.815 635.402,375.491 647.867,355.346 660.333,334.413 672.798,312.899 685.263,290.601 697.729,266.164 710.194,237.306 722.659,202.43 735.125,160.035 747.59,114.127 760.056,85.838 772.521,112.993 784.986,184.137 797.452,263.314 809.917,335.639 822.382,386.123 834.848,391.314 847.313,353.312 859.778,302.946 872.244,256.38 884.709,219.118 897.175,188.354 909.64,166.466 922.105,171.782 934.571,204.892 947.036,249.58 959.501,295.7 971.967,340.335 984.432,383.602 996.898,426.896 1009.36,470.445 1021.83,513.201 1034.29,549.663 1046.76,568.611 1059.22,558.254 1071.69,523.45 1084.16,478.303 1096.62,431.825 1109.09,386.939 1121.55,343.535 1134.02,300.707 1146.48,258.378 1158.95,217.344 1171.41,179.291 1183.88,147.069 1196.34,125.451 1208.81,117.429 1221.27,122.113 1233.74,135.709 1246.2,153.795 1258.67,172.95 1271.14,191.511 1283.6,209.237 1296.07,226.004 1308.53,241.639 1321,255.957 1333.46,268.718 1345.93,279.568 1358.39,288.382 1370.86,295.981 1383.32,303.875 1395.79,312.462 1408.25,321.254 1420.72,329.838 1433.19,338.071 1445.65,345.918 1458.12,353.24 1470.58,360.019 1483.05,366.093 1495.51,371.217 1507.98,375.233 1520.44,378.203 1532.91,380.808 1545.37,383.993 1557.84,388.124 1570.3,393.073 1582.77,398.463 1595.24,403.976 1607.7,409.45 1620.17,414.758 1632.63,419.944 1645.1,424.938 1657.56,429.779 1670.03,434.519 1682.49,439.121 1694.96,443.589 1707.42,447.967 1719.89,452.175 1732.35,456.256 1744.82,460.186 1757.29,463.991 1769.75,467.663 1782.22,471.208 1794.68,474.626 1807.15,477.904 1819.61,481.094 1832.08,484.169 1844.54,487.147 1857.01,490.088 1869.47,492.945 1881.94,495.732 1894.4,498.464 1906.87,501.12 1919.33,503.745 1931.8,506.254 1944.27,508.712 1956.73,511.133 1969.2,513.48 1981.66,515.761 1994.13,517.992 2006.59,520.214 2019.06,522.337 2031.52,524.458 2043.99,526.55 2056.45,528.581 2068.92,530.537 2081.38,532.436 2093.85,534.291 2106.32,536.073 2118.78,537.808 2131.25,539.565 2143.71,541.364 2156.18,543.243 2168.64,545.209 2181.11,547.21 2193.57,549.254 2206.04,551.245 2218.5,553.146 2230.97,554.997 2243.43,556.77 2255.9,558.606 2268.37,560.437 2280.83,562.294 2293.3,564.137 "/>
<polyline clip-path="url(#clip832)" style="stroke:#ff8c00; stroke-linecap:round; stroke-linejoin:round; stroke-width:4; stroke-opacity:1; fill:none" points="311.302,1088.58 323.768,998.315 336.233,927.958 348.698,873.25 361.164,828.901 373.629,791.619 386.094,759.372 398.56,730.85 411.025,705.163 423.491,681.685 435.956,659.952 448.421,639.616 460.887,620.403 473.352,602.094 485.817,584.51 498.283,567.496 510.748,550.921 523.213,534.665 535.679,518.62 548.144,502.682 560.61,486.748 573.075,470.714 585.54,454.471 598.006,437.898 610.471,420.859 622.936,403.196 635.402,384.719 647.867,365.191 660.333,344.312 672.798,321.687 685.263,296.791 697.729,268.91 710.194,237.094 722.659,200.199 735.125,157.577 747.59,112.809 760.056,86.3826 772.521,113.771 784.986,183.745 797.452,261.488 809.917,331.15 822.382,379.024 834.848,388.068 847.313,360.042 859.778,314.082 872.244,263.671 884.709,216.004 897.175,179.485 909.64,165.54 922.105,178.671 934.571,210.173 947.036,249.18 959.501,290.063 971.967,331.162 984.432,372.582 996.898,415.055 1009.36,459.326 1021.83,505.216 1034.29,549.035 1046.76,578.423 1059.22,575.188 1071.69,539.617 1084.16,490.055 1096.62,438.764 1109.09,389.483 1121.55,342.592 1134.02,297.701 1146.48,254.583 1158.95,213.668 1171.41,176.509 1183.88,146.1 1196.34,126.241 1208.81,119.308 1221.27,124.153 1233.74,136.94 1246.2,153.699 1258.67,171.723 1271.14,189.548 1283.6,206.508 1296.07,222.363 1308.53,237.076 1321,250.705 1333.46,263.338 1345.93,275.075 1358.39,286.011 1370.86,296.233 1383.32,305.817 1395.79,314.833 1408.25,323.338 1420.72,331.385 1433.19,339.018 1445.65,346.277 1458.12,353.196 1470.58,359.805 1483.05,366.131 1495.51,372.196 1507.98,378.022 1520.44,383.628 1532.91,389.029 1545.37,394.241 1557.84,399.277 1570.3,404.148 1582.77,408.866 1595.24,413.441 1607.7,417.881 1620.17,422.194 1632.63,426.388 1645.1,430.47 1657.56,434.446 1670.03,438.322 1682.49,442.102 1694.96,445.793 1707.42,449.398 1719.89,452.921 1732.35,456.367 1744.82,459.739 1757.29,463.041 1769.75,466.275 1782.22,469.445 1794.68,472.554 1807.15,475.603 1819.61,478.596 1832.08,481.534 1844.54,484.421 1857.01,487.257 1869.47,490.045 1881.94,492.787 1894.4,495.483 1906.87,498.137 1919.33,500.749 1931.8,503.321 1944.27,505.854 1956.73,508.35 1969.2,510.809 1981.66,513.234 1994.13,515.624 2006.59,517.982 2019.06,520.307 2031.52,522.602 2043.99,524.867 2056.45,527.103 2068.92,529.311 2081.38,531.491 2093.85,533.644 2106.32,535.772 2118.78,537.875 2131.25,539.953 2143.71,542.007 2156.18,544.038 2168.64,546.046 2181.11,548.033 2193.57,549.997 2206.04,551.942 2218.5,553.865 2230.97,555.769 2243.43,557.653 2255.9,559.519 2268.37,561.365 2280.83,563.194 2293.3,565.005 "/>
<polyline clip-path="url(#clip832)" style="stroke:#008000; stroke-linecap:round; stroke-linejoin:round; stroke-width:4; stroke-opacity:1; fill:none" points="311.302,1230.44 323.768,1159.74 336.233,1156.47 348.698,1153.13 361.164,1139.94 373.629,1034.61 386.094,1131.52 398.56,1160.27 411.025,1186.59 423.491,1188.61 435.956,1227.34 448.421,1145.63 460.887,1141.42 473.352,1145.3 485.817,1157.68 498.283,1211.6 510.748,1146.03 523.213,1125.57 535.679,1125.1 548.144,1158.67 560.61,1103.96 573.075,1084.7 585.54,1070.37 598.006,1055.12 610.471,1038.84 622.936,1020.66 635.402,1001.54 647.867,981.913 660.333,963.589 672.798,951.698 685.263,951.208 697.729,965.4 710.194,989.737 722.659,1032.31 735.125,1065.85 747.59,1091.13 760.056,1143.69 772.521,1213.1 784.986,1181.56 797.452,1162.42 809.917,1113.54 822.382,1058.18 834.848,999.336 847.313,942.228 859.778,908.231 872.244,875.816 884.709,838.37 897.175,830.881 909.64,842.117 922.105,864.793 934.571,887.321 947.036,907.292 959.501,931.549 971.967,954.77 984.432,980.262 996.898,998.715 1009.36,1014.65 1021.83,1030.51 1034.29,1047.24 1046.76,1054.22 1059.22,1056.77 1071.69,1054.86 1084.16,1048.09 1096.62,1038.4 1109.09,1030.4 1121.55,1028.82 1134.02,1032.57 1146.48,1038.92 1158.95,1042.19 1171.41,1043.65 1183.88,1058.49 1196.34,1071.1 1208.81,1071.18 1221.27,1055.89 1233.74,1040.94 1246.2,1042.02 1258.67,1054.84 1271.14,1061.29 1283.6,1054.36 1296.07,1039.21 1308.53,1021.91 1321,1005.27 1333.46,990.725 1345.93,982.861 1358.39,985.583 1370.86,1008.06 1383.32,1053.02 1395.79,1111.25 1408.25,1173.86 1420.72,1235.22 1433.19,1279.09 1445.65,1277.29 1458.12,1235.59 1470.58,1181.13 1483.05,1128.86 1495.51,1081.04 1507.98,1039.78 1520.44,1008.78 1532.91,990.23 1545.37,985.041 1557.84,989.235 1570.3,1000.05 1582.77,1014.51 1595.24,1030.15 1607.7,1046.41 1620.17,1061.82 1632.63,1076.85 1645.1,1090.78 1657.56,1104.15 1670.03,1117.83 1682.49,1131.8 1694.96,1145.33 1707.42,1159.64 1719.89,1174.57 1732.35,1189.33 1744.82,1204.42 1757.29,1221.46 1769.75,1237.25 1782.22,1252.53 1794.68,1269.88 1807.15,1286.32 1819.61,1301.72 1832.08,1317.17 1844.54,1331.32 1857.01,1342.24 1869.47,1352.77 1881.94,1360.84 1894.4,1366.79 1906.87,1371.12 1919.33,1370.83 1931.8,1372.3 1944.27,1371.2 1956.73,1366.96 1969.2,1363.56 1981.66,1359.51 1994.13,1354.6 2006.59,1347.5 2019.06,1342.42 2031.52,1335.61 2043.99,1326.94 2056.45,1318.92 2068.92,1311.97 2081.38,1305.5 2093.85,1300.43 2106.32,1295.43 2118.78,1292.79 2131.25,1293.44 2143.71,1297.25 2156.18,1302.59 2168.64,1307.61 2181.11,1309.8 2193.57,1308.01 2206.04,1303.41 2218.5,1296.42 2230.97,1291.01 2243.43,1285.93 2255.9,1282.4 2268.37,1278.39 2280.83,1275.03 2293.3,1269.61 "/>
<path clip-path="url(#clip830)" d="M1858.93 852.285 L2282.73 852.285 L2282.73 644.925 L1858.93 644.925  Z" fill="#ffffff" fill-rule="evenodd" fill-opacity="1"/>
<polyline clip-path="url(#clip830)" style="stroke:#000000; stroke-linecap:round; stroke-linejoin:round; stroke-width:4; stroke-opacity:1; fill:none" points="1858.93,852.285 2282.73,852.285 2282.73,644.925 1858.93,644.925 1858.93,852.285 "/>
<polyline clip-path="url(#clip830)" style="stroke:#0000ff; stroke-linecap:round; stroke-linejoin:round; stroke-width:4; stroke-opacity:1; fill:none" points="1882.28,696.765 2022.34,696.765 "/>
<path clip-path="url(#clip830)" d="M2062.18 678.027 L2062.18 681.569 L2058.11 681.569 Q2055.82 681.569 2054.92 682.495 Q2054.04 683.421 2054.04 685.828 L2054.04 688.12 L2061.05 688.12 L2061.05 691.43 L2054.04 691.43 L2054.04 714.045 L2049.75 714.045 L2049.75 691.43 L2045.68 691.43 L2045.68 688.12 L2049.75 688.12 L2049.75 686.314 Q2049.75 681.985 2051.77 680.018 Q2053.78 678.027 2058.16 678.027 L2062.18 678.027 Z" fill="#000000" fill-rule="nonzero" fill-opacity="1" /><path clip-path="url(#clip830)" d="M2075.98 678.073 Q2072.88 683.397 2071.37 688.606 Q2069.87 693.814 2069.87 699.161 Q2069.87 704.508 2071.37 709.763 Q2072.9 714.995 2075.98 720.295 L2072.28 720.295 Q2068.8 714.856 2067.07 709.601 Q2065.36 704.346 2065.36 699.161 Q2065.36 693.999 2067.07 688.768 Q2068.78 683.536 2072.28 678.073 L2075.98 678.073 Z" fill="#000000" fill-rule="nonzero" fill-opacity="1" /><path clip-path="url(#clip830)" d="M2100.77 688.884 L2100.77 692.911 Q2098.97 691.985 2097.02 691.522 Q2095.08 691.059 2092.99 691.059 Q2089.82 691.059 2088.23 692.032 Q2086.65 693.004 2086.65 694.948 Q2086.65 696.43 2087.79 697.286 Q2088.92 698.12 2092.35 698.883 L2093.8 699.208 Q2098.34 700.18 2100.24 701.962 Q2102.16 703.721 2102.16 706.893 Q2102.16 710.504 2099.29 712.61 Q2096.44 714.717 2091.44 714.717 Q2089.36 714.717 2087.09 714.3 Q2084.85 713.907 2082.35 713.096 L2082.35 708.698 Q2084.71 709.925 2087 710.55 Q2089.29 711.152 2091.54 711.152 Q2094.54 711.152 2096.17 710.133 Q2097.79 709.092 2097.79 707.217 Q2097.79 705.481 2096.61 704.555 Q2095.45 703.629 2091.49 702.772 L2090.01 702.425 Q2086.05 701.592 2084.29 699.879 Q2082.53 698.143 2082.53 695.134 Q2082.53 691.476 2085.12 689.485 Q2087.72 687.495 2092.48 687.495 Q2094.85 687.495 2096.93 687.842 Q2099.01 688.189 2100.77 688.884 Z" fill="#000000" fill-rule="nonzero" fill-opacity="1" /><path clip-path="url(#clip830)" d="M2108.27 678.073 L2111.98 678.073 Q2115.45 683.536 2117.16 688.768 Q2118.9 693.999 2118.9 699.161 Q2118.9 704.346 2117.16 709.601 Q2115.45 714.856 2111.98 720.295 L2108.27 720.295 Q2111.35 714.995 2112.85 709.763 Q2114.38 704.508 2114.38 699.161 Q2114.38 693.814 2112.85 688.606 Q2111.35 683.397 2108.27 678.073 Z" fill="#000000" fill-rule="nonzero" fill-opacity="1" /><polyline clip-path="url(#clip830)" style="stroke:#ff8c00; stroke-linecap:round; stroke-linejoin:round; stroke-width:4; stroke-opacity:1; fill:none" points="1882.28,748.605 2022.34,748.605 "/>
<path clip-path="url(#clip830)" d="M2062.18 729.867 L2062.18 733.409 L2058.11 733.409 Q2055.82 733.409 2054.92 734.335 Q2054.04 735.261 2054.04 737.668 L2054.04 739.96 L2061.05 739.96 L2061.05 743.27 L2054.04 743.27 L2054.04 765.885 L2049.75 765.885 L2049.75 743.27 L2045.68 743.27 L2045.68 739.96 L2049.75 739.96 L2049.75 738.154 Q2049.75 733.825 2051.77 731.858 Q2053.78 729.867 2058.16 729.867 L2062.18 729.867 Z" fill="#000000" fill-rule="nonzero" fill-opacity="1" /><path clip-path="url(#clip830)" d="M2065.75 739.96 L2070.01 739.96 L2070.01 765.885 L2065.75 765.885 L2065.75 739.96 M2065.75 729.867 L2070.01 729.867 L2070.01 735.261 L2065.75 735.261 L2065.75 729.867 Z" fill="#000000" fill-rule="nonzero" fill-opacity="1" /><path clip-path="url(#clip830)" d="M2083.13 732.599 L2083.13 739.96 L2091.91 739.96 L2091.91 743.27 L2083.13 743.27 L2083.13 757.344 Q2083.13 760.515 2083.99 761.418 Q2084.87 762.321 2087.53 762.321 L2091.91 762.321 L2091.91 765.885 L2087.53 765.885 Q2082.6 765.885 2080.73 764.057 Q2078.85 762.205 2078.85 757.344 L2078.85 743.27 L2075.73 743.27 L2075.73 739.96 L2078.85 739.96 L2078.85 732.599 L2083.13 732.599 Z" fill="#000000" fill-rule="nonzero" fill-opacity="1" /><path clip-path="url(#clip830)" d="M2101.72 732.599 L2101.72 739.96 L2110.49 739.96 L2110.49 743.27 L2101.72 743.27 L2101.72 757.344 Q2101.72 760.515 2102.58 761.418 Q2103.46 762.321 2106.12 762.321 L2110.49 762.321 L2110.49 765.885 L2106.12 765.885 Q2101.19 765.885 2099.31 764.057 Q2097.44 762.205 2097.44 757.344 L2097.44 743.27 L2094.31 743.27 L2094.31 739.96 L2097.44 739.96 L2097.44 732.599 L2101.72 732.599 Z" fill="#000000" fill-rule="nonzero" fill-opacity="1" /><path clip-path="url(#clip830)" d="M2138.27 751.858 L2138.27 753.941 L2118.69 753.941 Q2118.97 758.339 2121.33 760.654 Q2123.71 762.946 2127.95 762.946 Q2130.4 762.946 2132.69 762.344 Q2135.01 761.742 2137.28 760.538 L2137.28 764.566 Q2134.98 765.538 2132.58 766.047 Q2130.17 766.557 2127.69 766.557 Q2121.49 766.557 2117.85 762.946 Q2114.24 759.335 2114.24 753.177 Q2114.24 746.811 2117.67 743.085 Q2121.12 739.335 2126.95 739.335 Q2132.18 739.335 2135.22 742.714 Q2138.27 746.071 2138.27 751.858 M2134.01 750.608 Q2133.97 747.112 2132.04 745.029 Q2130.15 742.946 2127 742.946 Q2123.43 742.946 2121.28 744.96 Q2119.15 746.974 2118.83 750.631 L2134.01 750.608 Z" fill="#000000" fill-rule="nonzero" fill-opacity="1" /><path clip-path="url(#clip830)" d="M2162.32 743.895 L2162.32 729.867 L2166.58 729.867 L2166.58 765.885 L2162.32 765.885 L2162.32 761.997 Q2160.98 764.311 2158.92 765.446 Q2156.88 766.557 2154.01 766.557 Q2149.31 766.557 2146.35 762.807 Q2143.41 759.057 2143.41 752.946 Q2143.41 746.835 2146.35 743.085 Q2149.31 739.335 2154.01 739.335 Q2156.88 739.335 2158.92 740.469 Q2160.98 741.58 2162.32 743.895 M2147.81 752.946 Q2147.81 757.645 2149.73 760.33 Q2151.67 762.992 2155.05 762.992 Q2158.43 762.992 2160.38 760.33 Q2162.32 757.645 2162.32 752.946 Q2162.32 748.247 2160.38 745.585 Q2158.43 742.899 2155.05 742.899 Q2151.67 742.899 2149.73 745.585 Q2147.81 748.247 2147.81 752.946 Z" fill="#000000" fill-rule="nonzero" fill-opacity="1" /><polyline clip-path="url(#clip830)" style="stroke:#008000; stroke-linecap:round; stroke-linejoin:round; stroke-width:4; stroke-opacity:1; fill:none" points="1882.28,800.445 2022.34,800.445 "/>
<path clip-path="url(#clip830)" d="M2064.59 795.735 L2064.59 781.707 L2068.85 781.707 L2068.85 817.725 L2064.59 817.725 L2064.59 813.837 Q2063.25 816.151 2061.19 817.286 Q2059.15 818.397 2056.28 818.397 Q2051.58 818.397 2048.62 814.647 Q2045.68 810.897 2045.68 804.786 Q2045.68 798.675 2048.62 794.925 Q2051.58 791.175 2056.28 791.175 Q2059.15 791.175 2061.19 792.309 Q2063.25 793.42 2064.59 795.735 M2050.08 804.786 Q2050.08 809.485 2052 812.17 Q2053.94 814.832 2057.32 814.832 Q2060.7 814.832 2062.65 812.17 Q2064.59 809.485 2064.59 804.786 Q2064.59 800.087 2062.65 797.425 Q2060.7 794.739 2057.32 794.739 Q2053.94 794.739 2052 797.425 Q2050.08 800.087 2050.08 804.786 Z" fill="#000000" fill-rule="nonzero" fill-opacity="1" /><path clip-path="url(#clip830)" d="M2099.8 803.698 L2099.8 805.781 L2080.22 805.781 Q2080.49 810.179 2082.86 812.494 Q2085.24 814.786 2089.48 814.786 Q2091.93 814.786 2094.22 814.184 Q2096.54 813.582 2098.8 812.378 L2098.8 816.406 Q2096.51 817.378 2094.11 817.887 Q2091.7 818.397 2089.22 818.397 Q2083.02 818.397 2079.38 814.786 Q2075.77 811.175 2075.77 805.017 Q2075.77 798.651 2079.2 794.925 Q2082.65 791.175 2088.48 791.175 Q2093.71 791.175 2096.74 794.554 Q2099.8 797.911 2099.8 803.698 M2095.54 802.448 Q2095.49 798.952 2093.57 796.869 Q2091.67 794.786 2088.53 794.786 Q2084.96 794.786 2082.81 796.8 Q2080.68 798.814 2080.36 802.471 L2095.54 802.448 Z" fill="#000000" fill-rule="nonzero" fill-opacity="1" /><path clip-path="url(#clip830)" d="M2103.73 791.8 L2108.25 791.8 L2116.35 813.559 L2124.45 791.8 L2128.97 791.8 L2119.24 817.725 L2113.46 817.725 L2103.73 791.8 Z" fill="#000000" fill-rule="nonzero" fill-opacity="1" /><path clip-path="url(#clip830)" d="M2134.85 791.8 L2139.1 791.8 L2139.1 817.725 L2134.85 817.725 L2134.85 791.8 M2134.85 781.707 L2139.1 781.707 L2139.1 787.101 L2134.85 787.101 L2134.85 781.707 Z" fill="#000000" fill-rule="nonzero" fill-opacity="1" /><path clip-path="url(#clip830)" d="M2159.8 804.693 Q2154.64 804.693 2152.65 805.874 Q2150.66 807.054 2150.66 809.901 Q2150.66 812.17 2152.14 813.513 Q2153.64 814.832 2156.21 814.832 Q2159.75 814.832 2161.88 812.332 Q2164.04 809.809 2164.04 805.642 L2164.04 804.693 L2159.8 804.693 M2168.29 802.934 L2168.29 817.725 L2164.04 817.725 L2164.04 813.79 Q2162.58 816.151 2160.4 817.286 Q2158.23 818.397 2155.08 818.397 Q2151.1 818.397 2148.73 816.175 Q2146.4 813.929 2146.4 810.179 Q2146.4 805.804 2149.31 803.582 Q2152.25 801.36 2158.06 801.36 L2164.04 801.36 L2164.04 800.943 Q2164.04 798.003 2162.09 796.406 Q2160.17 794.786 2156.67 794.786 Q2154.45 794.786 2152.35 795.318 Q2150.24 795.851 2148.29 796.915 L2148.29 792.98 Q2150.63 792.077 2152.83 791.638 Q2155.03 791.175 2157.11 791.175 Q2162.74 791.175 2165.52 794.091 Q2168.29 797.008 2168.29 802.934 Z" fill="#000000" fill-rule="nonzero" fill-opacity="1" /><path clip-path="url(#clip830)" d="M2181.28 784.439 L2181.28 791.8 L2190.05 791.8 L2190.05 795.11 L2181.28 795.11 L2181.28 809.184 Q2181.28 812.355 2182.14 813.258 Q2183.02 814.161 2185.68 814.161 L2190.05 814.161 L2190.05 817.725 L2185.68 817.725 Q2180.75 817.725 2178.87 815.897 Q2177 814.045 2177 809.184 L2177 795.11 L2173.87 795.11 L2173.87 791.8 L2177 791.8 L2177 784.439 L2181.28 784.439 Z" fill="#000000" fill-rule="nonzero" fill-opacity="1" /><path clip-path="url(#clip830)" d="M2195.66 791.8 L2199.91 791.8 L2199.91 817.725 L2195.66 817.725 L2195.66 791.8 M2195.66 781.707 L2199.91 781.707 L2199.91 787.101 L2195.66 787.101 L2195.66 781.707 Z" fill="#000000" fill-rule="nonzero" fill-opacity="1" /><path clip-path="url(#clip830)" d="M2218.87 794.786 Q2215.45 794.786 2213.46 797.471 Q2211.47 800.133 2211.47 804.786 Q2211.47 809.438 2213.43 812.124 Q2215.42 814.786 2218.87 814.786 Q2222.28 814.786 2224.27 812.1 Q2226.26 809.415 2226.26 804.786 Q2226.26 800.179 2224.27 797.494 Q2222.28 794.786 2218.87 794.786 M2218.87 791.175 Q2224.43 791.175 2227.6 794.786 Q2230.77 798.397 2230.77 804.786 Q2230.77 811.151 2227.6 814.786 Q2224.43 818.397 2218.87 818.397 Q2213.29 818.397 2210.12 814.786 Q2206.97 811.151 2206.97 804.786 Q2206.97 798.397 2210.12 794.786 Q2213.29 791.175 2218.87 791.175 Z" fill="#000000" fill-rule="nonzero" fill-opacity="1" /><path clip-path="url(#clip830)" d="M2259.38 802.077 L2259.38 817.725 L2255.12 817.725 L2255.12 802.216 Q2255.12 798.536 2253.69 796.707 Q2252.25 794.878 2249.38 794.878 Q2245.93 794.878 2243.94 797.077 Q2241.95 799.276 2241.95 803.073 L2241.95 817.725 L2237.67 817.725 L2237.67 791.8 L2241.95 791.8 L2241.95 795.827 Q2243.48 793.489 2245.54 792.332 Q2247.62 791.175 2250.33 791.175 Q2254.8 791.175 2257.09 793.952 Q2259.38 796.707 2259.38 802.077 Z" fill="#000000" fill-rule="nonzero" fill-opacity="1" /></svg>
