<?xml version="1.0" encoding="utf-8"?>
<svg xmlns="http://www.w3.org/2000/svg" xmlns:xlink="http://www.w3.org/1999/xlink" width="600" height="400" viewBox="0 0 2400 1600">
<defs>
  <clipPath id="clip860">
    <rect x="0" y="0" width="2400" height="1600"/>
  </clipPath>
</defs>
<path clip-path="url(#clip860)" d="M0 1600 L2400 1600 L2400 0 L0 0  Z" fill="#ffffff" fill-rule="evenodd" fill-opacity="1"/>
<defs>
  <clipPath id="clip861">
    <rect x="480" y="0" width="1681" height="1600"/>
  </clipPath>
</defs>
<path clip-path="url(#clip860)" d="M242.135 1410.9 L2352.76 1410.9 L2352.76 47.2441 L242.135 47.2441  Z" fill="#ffffff" fill-rule="evenodd" fill-opacity="1"/>
<defs>
  <clipPath id="clip862">
    <rect x="242" y="47" width="2112" height="1365"/>
  </clipPath>
</defs>
<polyline clip-path="url(#clip862)" style="stroke:#000000; stroke-linecap:round; stroke-linejoin:round; stroke-width:2; stroke-opacity:0.1; fill:none" points="289.346,1410.9 289.346,47.2441 "/>
<polyline clip-path="url(#clip862)" style="stroke:#000000; stroke-linecap:round; stroke-linejoin:round; stroke-width:2; stroke-opacity:0.1; fill:none" points="790.265,1410.9 790.265,47.2441 "/>
<polyline clip-path="url(#clip862)" style="stroke:#000000; stroke-linecap:round; stroke-linejoin:round; stroke-width:2; stroke-opacity:0.1; fill:none" points="1291.18,1410.9 1291.18,47.2441 "/>
<polyline clip-path="url(#clip862)" style="stroke:#000000; stroke-linecap:round; stroke-linejoin:round; stroke-width:2; stroke-opacity:0.1; fill:none" points="1792.1,1410.9 1792.1,47.2441 "/>
<polyline clip-path="url(#clip862)" style="stroke:#000000; stroke-linecap:round; stroke-linejoin:round; stroke-width:2; stroke-opacity:0.1; fill:none" points="2293.02,1410.9 2293.02,47.2441 "/>
<polyline clip-path="url(#clip862)" style="stroke:#000000; stroke-linecap:round; stroke-linejoin:round; stroke-width:2; stroke-opacity:0.1; fill:none" points="242.135,1261.69 2352.76,1261.69 "/>
<polyline clip-path="url(#clip862)" style="stroke:#000000; stroke-linecap:round; stroke-linejoin:round; stroke-width:2; stroke-opacity:0.1; fill:none" points="242.135,1081.96 2352.76,1081.96 "/>
<polyline clip-path="url(#clip862)" style="stroke:#000000; stroke-linecap:round; stroke-linejoin:round; stroke-width:2; stroke-opacity:0.1; fill:none" points="242.135,902.227 2352.76,902.227 "/>
<polyline clip-path="url(#clip862)" style="stroke:#000000; stroke-linecap:round; stroke-linejoin:round; stroke-width:2; stroke-opacity:0.1; fill:none" points="242.135,722.497 2352.76,722.497 "/>
<polyline clip-path="url(#clip862)" style="stroke:#000000; stroke-linecap:round; stroke-linejoin:round; stroke-width:2; stroke-opacity:0.1; fill:none" points="242.135,542.766 2352.76,542.766 "/>
<polyline clip-path="url(#clip862)" style="stroke:#000000; stroke-linecap:round; stroke-linejoin:round; stroke-width:2; stroke-opacity:0.1; fill:none" points="242.135,363.035 2352.76,363.035 "/>
<polyline clip-path="url(#clip862)" style="stroke:#000000; stroke-linecap:round; stroke-linejoin:round; stroke-width:2; stroke-opacity:0.1; fill:none" points="242.135,183.305 2352.76,183.305 "/>
<polyline clip-path="url(#clip860)" style="stroke:#000000; stroke-linecap:round; stroke-linejoin:round; stroke-width:4; stroke-opacity:1; fill:none" points="242.135,1410.9 2352.76,1410.9 "/>
<polyline clip-path="url(#clip860)" style="stroke:#000000; stroke-linecap:round; stroke-linejoin:round; stroke-width:4; stroke-opacity:1; fill:none" points="289.346,1410.9 289.346,1392 "/>
<polyline clip-path="url(#clip860)" style="stroke:#000000; stroke-linecap:round; stroke-linejoin:round; stroke-width:4; stroke-opacity:1; fill:none" points="790.265,1410.9 790.265,1392 "/>
<polyline clip-path="url(#clip860)" style="stroke:#000000; stroke-linecap:round; stroke-linejoin:round; stroke-width:4; stroke-opacity:1; fill:none" points="1291.18,1410.9 1291.18,1392 "/>
<polyline clip-path="url(#clip860)" style="stroke:#000000; stroke-linecap:round; stroke-linejoin:round; stroke-width:4; stroke-opacity:1; fill:none" points="1792.1,1410.9 1792.1,1392 "/>
<polyline clip-path="url(#clip860)" style="stroke:#000000; stroke-linecap:round; stroke-linejoin:round; stroke-width:4; stroke-opacity:1; fill:none" points="2293.02,1410.9 2293.02,1392 "/>
<path clip-path="url(#clip860)" d="M289.346 1441.82 Q285.735 1441.82 283.906 1445.38 Q282.101 1448.92 282.101 1456.05 Q282.101 1463.16 283.906 1466.72 Q285.735 1470.26 289.346 1470.26 Q292.98 1470.26 294.786 1466.72 Q296.615 1463.16 296.615 1456.05 Q296.615 1448.92 294.786 1445.38 Q292.98 1441.82 289.346 1441.82 M289.346 1438.11 Q295.156 1438.11 298.212 1442.72 Q301.291 1447.3 301.291 1456.05 Q301.291 1464.78 298.212 1469.38 Q295.156 1473.97 289.346 1473.97 Q283.536 1473.97 280.457 1469.38 Q277.402 1464.78 277.402 1456.05 Q277.402 1447.3 280.457 1442.72 Q283.536 1438.11 289.346 1438.11 Z" fill="#000000" fill-rule="nonzero" fill-opacity="1" /><path clip-path="url(#clip860)" d="M697.7 1485.02 L705.339 1485.02 L705.339 1458.66 L697.028 1460.32 L697.028 1456.06 L705.292 1454.4 L709.968 1454.4 L709.968 1485.02 L717.607 1485.02 L717.607 1488.96 L697.7 1488.96 L697.7 1485.02 Z" fill="#000000" fill-rule="nonzero" fill-opacity="1" /><path clip-path="url(#clip860)" d="M727.051 1483.08 L731.936 1483.08 L731.936 1488.96 L727.051 1488.96 L727.051 1483.08 Z" fill="#000000" fill-rule="nonzero" fill-opacity="1" /><path clip-path="url(#clip860)" d="M752.121 1457.48 Q748.51 1457.48 746.681 1461.04 Q744.875 1464.58 744.875 1471.71 Q744.875 1478.82 746.681 1482.38 Q748.51 1485.92 752.121 1485.92 Q755.755 1485.92 757.56 1482.38 Q759.389 1478.82 759.389 1471.71 Q759.389 1464.58 757.56 1461.04 Q755.755 1457.48 752.121 1457.48 M752.121 1453.77 Q757.931 1453.77 760.986 1458.38 Q764.065 1462.96 764.065 1471.71 Q764.065 1480.44 760.986 1485.04 Q757.931 1489.63 752.121 1489.63 Q746.311 1489.63 743.232 1485.04 Q740.176 1480.44 740.176 1471.71 Q740.176 1462.96 743.232 1458.38 Q746.311 1453.77 752.121 1453.77 Z" fill="#000000" fill-rule="nonzero" fill-opacity="1" /><path clip-path="url(#clip860)" d="M800.454 1463.49 L789.875 1474.12 L800.454 1484.7 L797.699 1487.5 L787.074 1476.87 L776.449 1487.5 L773.718 1484.7 L784.273 1474.12 L773.718 1463.49 L776.449 1460.69 L787.074 1471.32 L797.699 1460.69 L800.454 1463.49 Z" fill="#000000" fill-rule="nonzero" fill-opacity="1" /><path clip-path="url(#clip860)" d="M812.815 1485.02 L820.454 1485.02 L820.454 1458.66 L812.144 1460.32 L812.144 1456.06 L820.407 1454.4 L825.083 1454.4 L825.083 1485.02 L832.722 1485.02 L832.722 1488.96 L812.815 1488.96 L812.815 1485.02 Z" fill="#000000" fill-rule="nonzero" fill-opacity="1" /><path clip-path="url(#clip860)" d="M852.166 1457.48 Q848.555 1457.48 846.727 1461.04 Q844.921 1464.58 844.921 1471.71 Q844.921 1478.82 846.727 1482.38 Q848.555 1485.92 852.166 1485.92 Q855.801 1485.92 857.606 1482.38 Q859.435 1478.82 859.435 1471.71 Q859.435 1464.58 857.606 1461.04 Q855.801 1457.48 852.166 1457.48 M852.166 1453.77 Q857.977 1453.77 861.032 1458.38 Q864.111 1462.96 864.111 1471.71 Q864.111 1480.44 861.032 1485.04 Q857.977 1489.63 852.166 1489.63 Q846.356 1489.63 843.278 1485.04 Q840.222 1480.44 840.222 1471.71 Q840.222 1462.96 843.278 1458.38 Q846.356 1453.77 852.166 1453.77 Z" fill="#000000" fill-rule="nonzero" fill-opacity="1" /><path clip-path="url(#clip860)" d="M874.135 1445.99 Q871.578 1445.99 870.073 1447.74 Q868.587 1449.49 868.587 1452.54 Q868.587 1455.57 870.073 1457.33 Q871.578 1459.08 874.135 1459.08 Q876.693 1459.08 878.179 1457.33 Q879.684 1455.57 879.684 1452.54 Q879.684 1449.49 878.179 1447.74 Q876.693 1445.99 874.135 1445.99 M881.677 1434.09 L881.677 1437.55 Q880.248 1436.87 878.781 1436.51 Q877.333 1436.16 875.903 1436.16 Q872.142 1436.16 870.148 1438.69 Q868.173 1441.23 867.891 1446.37 Q869.001 1444.73 870.675 1443.87 Q872.349 1442.98 874.361 1442.98 Q878.593 1442.98 881.038 1445.56 Q883.502 1448.12 883.502 1452.54 Q883.502 1456.86 880.944 1459.48 Q878.386 1462.09 874.135 1462.09 Q869.264 1462.09 866.688 1458.37 Q864.111 1454.62 864.111 1447.53 Q864.111 1440.88 867.271 1436.93 Q870.43 1432.96 875.753 1432.96 Q877.182 1432.96 878.63 1433.24 Q880.097 1433.52 881.677 1434.09 Z" fill="#000000" fill-rule="nonzero" fill-opacity="1" /><path clip-path="url(#clip860)" d="M1202.7 1485.02 L1219.02 1485.02 L1219.02 1488.96 L1197.08 1488.96 L1197.08 1485.02 Q1199.74 1482.27 1204.32 1477.64 Q1208.93 1472.98 1210.11 1471.64 Q1212.36 1469.12 1213.24 1467.38 Q1214.14 1465.62 1214.14 1463.93 Q1214.14 1461.18 1212.19 1459.44 Q1210.27 1457.71 1207.17 1457.71 Q1204.97 1457.71 1202.52 1458.47 Q1200.09 1459.23 1197.31 1460.79 L1197.31 1456.06 Q1200.13 1454.93 1202.59 1454.35 Q1205.04 1453.77 1207.08 1453.77 Q1212.45 1453.77 1215.64 1456.46 Q1218.84 1459.14 1218.84 1463.63 Q1218.84 1465.76 1218.03 1467.68 Q1217.24 1469.58 1215.13 1472.17 Q1214.56 1472.85 1211.45 1476.06 Q1208.35 1479.26 1202.7 1485.02 Z" fill="#000000" fill-rule="nonzero" fill-opacity="1" /><path clip-path="url(#clip860)" d="M1228.84 1483.08 L1233.72 1483.08 L1233.72 1488.96 L1228.84 1488.96 L1228.84 1483.08 Z" fill="#000000" fill-rule="nonzero" fill-opacity="1" /><path clip-path="url(#clip860)" d="M1253.91 1457.48 Q1250.3 1457.48 1248.47 1461.04 Q1246.66 1464.58 1246.66 1471.71 Q1246.66 1478.82 1248.47 1482.38 Q1250.3 1485.92 1253.91 1485.92 Q1257.54 1485.92 1259.35 1482.38 Q1261.18 1478.82 1261.18 1471.71 Q1261.18 1464.58 1259.35 1461.04 Q1257.54 1457.48 1253.91 1457.48 M1253.91 1453.77 Q1259.72 1453.77 1262.77 1458.38 Q1265.85 1462.96 1265.85 1471.71 Q1265.85 1480.44 1262.77 1485.04 Q1259.72 1489.63 1253.91 1489.63 Q1248.1 1489.63 1245.02 1485.04 Q1241.96 1480.44 1241.96 1471.71 Q1241.96 1462.96 1245.02 1458.38 Q1248.1 1453.77 1253.91 1453.77 Z" fill="#000000" fill-rule="nonzero" fill-opacity="1" /><path clip-path="url(#clip860)" d="M1302.24 1463.49 L1291.66 1474.12 L1302.24 1484.7 L1299.49 1487.5 L1288.86 1476.87 L1278.24 1487.5 L1275.5 1484.7 L1286.06 1474.12 L1275.5 1463.49 L1278.24 1460.69 L1288.86 1471.32 L1299.49 1460.69 L1302.24 1463.49 Z" fill="#000000" fill-rule="nonzero" fill-opacity="1" /><path clip-path="url(#clip860)" d="M1314.6 1485.02 L1322.24 1485.02 L1322.24 1458.66 L1313.93 1460.32 L1313.93 1456.06 L1322.19 1454.4 L1326.87 1454.4 L1326.87 1485.02 L1334.51 1485.02 L1334.51 1488.96 L1314.6 1488.96 L1314.6 1485.02 Z" fill="#000000" fill-rule="nonzero" fill-opacity="1" /><path clip-path="url(#clip860)" d="M1353.95 1457.48 Q1350.34 1457.48 1348.51 1461.04 Q1346.71 1464.58 1346.71 1471.71 Q1346.71 1478.82 1348.51 1482.38 Q1350.34 1485.92 1353.95 1485.92 Q1357.59 1485.92 1359.39 1482.38 Q1361.22 1478.82 1361.22 1471.71 Q1361.22 1464.58 1359.39 1461.04 Q1357.59 1457.48 1353.95 1457.48 M1353.95 1453.77 Q1359.76 1453.77 1362.82 1458.38 Q1365.9 1462.96 1365.9 1471.71 Q1365.9 1480.44 1362.82 1485.04 Q1359.76 1489.63 1353.95 1489.63 Q1348.14 1489.63 1345.06 1485.04 Q1342.01 1480.44 1342.01 1471.71 Q1342.01 1462.96 1345.06 1458.38 Q1348.14 1453.77 1353.95 1453.77 Z" fill="#000000" fill-rule="nonzero" fill-opacity="1" /><path clip-path="url(#clip860)" d="M1375.92 1445.99 Q1373.36 1445.99 1371.86 1447.74 Q1370.37 1449.49 1370.37 1452.54 Q1370.37 1455.57 1371.86 1457.33 Q1373.36 1459.08 1375.92 1459.08 Q1378.48 1459.08 1379.97 1457.33 Q1381.47 1455.57 1381.47 1452.54 Q1381.47 1449.49 1379.97 1447.74 Q1378.48 1445.99 1375.92 1445.99 M1383.46 1434.09 L1383.46 1437.55 Q1382.03 1436.87 1380.57 1436.51 Q1379.12 1436.16 1377.69 1436.16 Q1373.93 1436.16 1371.93 1438.69 Q1369.96 1441.23 1369.68 1446.37 Q1370.79 1444.73 1372.46 1443.87 Q1374.14 1442.98 1376.15 1442.98 Q1380.38 1442.98 1382.82 1445.56 Q1385.29 1448.12 1385.29 1452.54 Q1385.29 1456.86 1382.73 1459.48 Q1380.17 1462.09 1375.92 1462.09 Q1371.05 1462.09 1368.47 1458.37 Q1365.9 1454.62 1365.9 1447.53 Q1365.9 1440.88 1369.06 1436.93 Q1372.22 1432.96 1377.54 1432.96 Q1378.97 1432.96 1380.42 1433.24 Q1381.88 1433.52 1383.46 1434.09 Z" fill="#000000" fill-rule="nonzero" fill-opacity="1" /><path clip-path="url(#clip860)" d="M1713.69 1470.32 Q1717.05 1471.04 1718.92 1473.31 Q1720.82 1475.58 1720.82 1478.91 Q1720.82 1484.03 1717.3 1486.83 Q1713.78 1489.63 1707.3 1489.63 Q1705.13 1489.63 1702.81 1489.19 Q1700.52 1488.77 1698.07 1487.91 L1698.07 1483.4 Q1700.01 1484.54 1702.33 1485.11 Q1704.64 1485.69 1707.16 1485.69 Q1711.56 1485.69 1713.85 1483.96 Q1716.17 1482.22 1716.17 1478.91 Q1716.17 1475.85 1714.02 1474.14 Q1711.89 1472.41 1708.07 1472.41 L1704.04 1472.41 L1704.04 1468.56 L1708.25 1468.56 Q1711.7 1468.56 1713.53 1467.2 Q1715.36 1465.81 1715.36 1463.22 Q1715.36 1460.55 1713.46 1459.14 Q1711.59 1457.71 1708.07 1457.71 Q1706.15 1457.71 1703.95 1458.12 Q1701.75 1458.54 1699.11 1459.42 L1699.11 1455.25 Q1701.77 1454.51 1704.09 1454.14 Q1706.42 1453.77 1708.48 1453.77 Q1713.81 1453.77 1716.91 1456.2 Q1720.01 1458.61 1720.01 1462.73 Q1720.01 1465.6 1718.37 1467.59 Q1716.72 1469.56 1713.69 1470.32 Z" fill="#000000" fill-rule="nonzero" fill-opacity="1" /><path clip-path="url(#clip860)" d="M1729.69 1483.08 L1734.57 1483.08 L1734.57 1488.96 L1729.69 1488.96 L1729.69 1483.08 Z" fill="#000000" fill-rule="nonzero" fill-opacity="1" /><path clip-path="url(#clip860)" d="M1754.76 1457.48 Q1751.15 1457.48 1749.32 1461.04 Q1747.51 1464.58 1747.51 1471.71 Q1747.51 1478.82 1749.32 1482.38 Q1751.15 1485.92 1754.76 1485.92 Q1758.39 1485.92 1760.2 1482.38 Q1762.03 1478.82 1762.03 1471.71 Q1762.03 1464.58 1760.2 1461.04 Q1758.39 1457.48 1754.76 1457.48 M1754.76 1453.77 Q1760.57 1453.77 1763.62 1458.38 Q1766.7 1462.96 1766.7 1471.71 Q1766.7 1480.44 1763.62 1485.04 Q1760.57 1489.63 1754.76 1489.63 Q1748.95 1489.63 1745.87 1485.04 Q1742.81 1480.44 1742.81 1471.71 Q1742.81 1462.96 1745.87 1458.38 Q1748.95 1453.77 1754.76 1453.77 Z" fill="#000000" fill-rule="nonzero" fill-opacity="1" /><path clip-path="url(#clip860)" d="M1803.09 1463.49 L1792.51 1474.12 L1803.09 1484.7 L1800.34 1487.5 L1789.71 1476.87 L1779.09 1487.5 L1776.35 1484.7 L1786.91 1474.12 L1776.35 1463.49 L1779.09 1460.69 L1789.71 1471.32 L1800.34 1460.69 L1803.09 1463.49 Z" fill="#000000" fill-rule="nonzero" fill-opacity="1" /><path clip-path="url(#clip860)" d="M1815.45 1485.02 L1823.09 1485.02 L1823.09 1458.66 L1814.78 1460.32 L1814.78 1456.06 L1823.04 1454.4 L1827.72 1454.4 L1827.72 1485.02 L1835.36 1485.02 L1835.36 1488.96 L1815.45 1488.96 L1815.45 1485.02 Z" fill="#000000" fill-rule="nonzero" fill-opacity="1" /><path clip-path="url(#clip860)" d="M1854.8 1457.48 Q1851.19 1457.48 1849.36 1461.04 Q1847.56 1464.58 1847.56 1471.71 Q1847.56 1478.82 1849.36 1482.38 Q1851.19 1485.92 1854.8 1485.92 Q1858.44 1485.92 1860.24 1482.38 Q1862.07 1478.82 1862.07 1471.71 Q1862.07 1464.58 1860.24 1461.04 Q1858.44 1457.48 1854.8 1457.48 M1854.8 1453.77 Q1860.61 1453.77 1863.67 1458.38 Q1866.75 1462.96 1866.75 1471.71 Q1866.75 1480.44 1863.67 1485.04 Q1860.61 1489.63 1854.8 1489.63 Q1848.99 1489.63 1845.91 1485.04 Q1842.86 1480.44 1842.86 1471.71 Q1842.86 1462.96 1845.91 1458.38 Q1848.99 1453.77 1854.8 1453.77 Z" fill="#000000" fill-rule="nonzero" fill-opacity="1" /><path clip-path="url(#clip860)" d="M1876.77 1445.99 Q1874.21 1445.99 1872.71 1447.74 Q1871.22 1449.49 1871.22 1452.54 Q1871.22 1455.57 1872.71 1457.33 Q1874.21 1459.08 1876.77 1459.08 Q1879.33 1459.08 1880.82 1457.33 Q1882.32 1455.57 1882.32 1452.54 Q1882.32 1449.49 1880.82 1447.74 Q1879.33 1445.99 1876.77 1445.99 M1884.31 1434.09 L1884.31 1437.55 Q1882.88 1436.87 1881.42 1436.51 Q1879.97 1436.16 1878.54 1436.16 Q1874.78 1436.16 1872.78 1438.69 Q1870.81 1441.23 1870.53 1446.37 Q1871.64 1444.73 1873.31 1443.87 Q1874.98 1442.98 1877 1442.98 Q1881.23 1442.98 1883.67 1445.56 Q1886.14 1448.12 1886.14 1452.54 Q1886.14 1456.86 1883.58 1459.48 Q1881.02 1462.09 1876.77 1462.09 Q1871.9 1462.09 1869.32 1458.37 Q1866.75 1454.62 1866.75 1447.53 Q1866.75 1440.88 1869.91 1436.93 Q1873.07 1432.96 1878.39 1432.96 Q1879.82 1432.96 1881.27 1433.24 Q1882.73 1433.52 1884.31 1434.09 Z" fill="#000000" fill-rule="nonzero" fill-opacity="1" /><path clip-path="url(#clip860)" d="M2213.94 1458.47 L2202.13 1476.92 L2213.94 1476.92 L2213.94 1458.47 M2212.71 1454.4 L2218.59 1454.4 L2218.59 1476.92 L2223.52 1476.92 L2223.52 1480.81 L2218.59 1480.81 L2218.59 1488.96 L2213.94 1488.96 L2213.94 1480.81 L2198.34 1480.81 L2198.34 1476.29 L2212.71 1454.4 Z" fill="#000000" fill-rule="nonzero" fill-opacity="1" /><path clip-path="url(#clip860)" d="M2231.25 1483.08 L2236.14 1483.08 L2236.14 1488.96 L2231.25 1488.96 L2231.25 1483.08 Z" fill="#000000" fill-rule="nonzero" fill-opacity="1" /><path clip-path="url(#clip860)" d="M2256.32 1457.48 Q2252.71 1457.48 2250.88 1461.04 Q2249.08 1464.58 2249.08 1471.71 Q2249.08 1478.82 2250.88 1482.38 Q2252.71 1485.92 2256.32 1485.92 Q2259.96 1485.92 2261.76 1482.38 Q2263.59 1478.82 2263.59 1471.71 Q2263.59 1464.58 2261.76 1461.04 Q2259.96 1457.48 2256.32 1457.48 M2256.32 1453.77 Q2262.13 1453.77 2265.19 1458.38 Q2268.27 1462.96 2268.27 1471.71 Q2268.27 1480.44 2265.19 1485.04 Q2262.13 1489.63 2256.32 1489.63 Q2250.51 1489.63 2247.43 1485.04 Q2244.38 1480.44 2244.38 1471.71 Q2244.38 1462.96 2247.43 1458.38 Q2250.51 1453.77 2256.32 1453.77 Z" fill="#000000" fill-rule="nonzero" fill-opacity="1" /><path clip-path="url(#clip860)" d="M2304.66 1463.49 L2294.08 1474.12 L2304.66 1484.7 L2301.9 1487.5 L2291.28 1476.87 L2280.65 1487.5 L2277.92 1484.7 L2288.48 1474.12 L2277.92 1463.49 L2280.65 1460.69 L2291.28 1471.32 L2301.9 1460.69 L2304.66 1463.49 Z" fill="#000000" fill-rule="nonzero" fill-opacity="1" /><path clip-path="url(#clip860)" d="M2317.02 1485.02 L2324.66 1485.02 L2324.66 1458.66 L2316.35 1460.32 L2316.35 1456.06 L2324.61 1454.4 L2329.29 1454.4 L2329.29 1485.02 L2336.93 1485.02 L2336.93 1488.96 L2317.02 1488.96 L2317.02 1485.02 Z" fill="#000000" fill-rule="nonzero" fill-opacity="1" /><path clip-path="url(#clip860)" d="M2356.37 1457.48 Q2352.76 1457.48 2350.93 1461.04 Q2349.12 1464.58 2349.12 1471.71 Q2349.12 1478.82 2350.93 1482.38 Q2352.76 1485.92 2356.37 1485.92 Q2360 1485.92 2361.81 1482.38 Q2363.64 1478.82 2363.64 1471.71 Q2363.64 1464.58 2361.81 1461.04 Q2360 1457.48 2356.37 1457.48 M2356.37 1453.77 Q2362.18 1453.77 2365.24 1458.38 Q2368.31 1462.96 2368.31 1471.71 Q2368.31 1480.44 2365.24 1485.04 Q2362.18 1489.63 2356.37 1489.63 Q2350.56 1489.63 2347.48 1485.04 Q2344.43 1480.44 2344.43 1471.71 Q2344.43 1462.96 2347.48 1458.38 Q2350.56 1453.77 2356.37 1453.77 Z" fill="#000000" fill-rule="nonzero" fill-opacity="1" /><path clip-path="url(#clip860)" d="M2378.34 1445.99 Q2375.78 1445.99 2374.28 1447.74 Q2372.79 1449.49 2372.79 1452.54 Q2372.79 1455.57 2374.28 1457.33 Q2375.78 1459.08 2378.34 1459.08 Q2380.9 1459.08 2382.38 1457.33 Q2383.89 1455.57 2383.89 1452.54 Q2383.89 1449.49 2382.38 1447.74 Q2380.9 1445.99 2378.34 1445.99 M2385.88 1434.09 L2385.88 1437.55 Q2384.45 1436.87 2382.98 1436.51 Q2381.54 1436.16 2380.11 1436.16 Q2376.34 1436.16 2374.35 1438.69 Q2372.38 1441.23 2372.09 1446.37 Q2373.2 1444.73 2374.88 1443.87 Q2376.55 1442.98 2378.56 1442.98 Q2382.8 1442.98 2385.24 1445.56 Q2387.7 1448.12 2387.7 1452.54 Q2387.7 1456.86 2385.15 1459.48 Q2382.59 1462.09 2378.34 1462.09 Q2373.47 1462.09 2370.89 1458.37 Q2368.31 1454.62 2368.31 1447.53 Q2368.31 1440.88 2371.47 1436.93 Q2374.63 1432.96 2379.96 1432.96 Q2381.39 1432.96 2382.83 1433.24 Q2384.3 1433.52 2385.88 1434.09 Z" fill="#000000" fill-rule="nonzero" fill-opacity="1" /><path clip-path="url(#clip860)" d="M1057.67 1526.67 L1084.97 1526.67 L1084.97 1532.08 L1064.09 1532.08 L1064.09 1546.08 L1082.94 1546.08 L1082.94 1551.49 L1064.09 1551.49 L1064.09 1574.19 L1057.67 1574.19 L1057.67 1526.67 Z" fill="#000000" fill-rule="nonzero" fill-opacity="1" /><path clip-path="url(#clip860)" d="M1110.82 1544.01 Q1109.83 1543.44 1108.65 1543.18 Q1107.51 1542.9 1106.11 1542.9 Q1101.14 1542.9 1098.47 1546.14 Q1095.83 1549.36 1095.83 1555.41 L1095.83 1574.19 L1089.94 1574.19 L1089.94 1538.54 L1095.83 1538.54 L1095.83 1544.08 Q1097.67 1540.83 1100.63 1539.27 Q1103.59 1537.68 1107.83 1537.68 Q1108.43 1537.68 1109.16 1537.77 Q1109.9 1537.84 1110.79 1538 L1110.82 1544.01 Z" fill="#000000" fill-rule="nonzero" fill-opacity="1" /><path clip-path="url(#clip860)" d="M1146.02 1554.9 L1146.02 1557.76 L1119.09 1557.76 Q1119.48 1563.81 1122.72 1566.99 Q1126 1570.14 1131.83 1570.14 Q1135.2 1570.14 1138.35 1569.32 Q1141.53 1568.49 1144.65 1566.83 L1144.65 1572.37 Q1141.5 1573.71 1138.19 1574.41 Q1134.88 1575.11 1131.48 1575.11 Q1122.95 1575.11 1117.95 1570.14 Q1112.98 1565.18 1112.98 1556.71 Q1112.98 1547.96 1117.69 1542.83 Q1122.44 1537.68 1130.46 1537.68 Q1137.65 1537.68 1141.82 1542.33 Q1146.02 1546.94 1146.02 1554.9 M1140.16 1553.18 Q1140.1 1548.37 1137.46 1545.51 Q1134.85 1542.64 1130.52 1542.64 Q1125.62 1542.64 1122.66 1545.41 Q1119.73 1548.18 1119.29 1553.21 L1140.16 1553.18 Z" fill="#000000" fill-rule="nonzero" fill-opacity="1" /><path clip-path="url(#clip860)" d="M1159.13 1556.39 Q1159.13 1562.85 1161.78 1566.55 Q1164.45 1570.21 1169.1 1570.21 Q1173.74 1570.21 1176.42 1566.55 Q1179.09 1562.85 1179.09 1556.39 Q1179.09 1549.93 1176.42 1546.27 Q1173.74 1542.58 1169.1 1542.58 Q1164.45 1542.58 1161.78 1546.27 Q1159.13 1549.93 1159.13 1556.39 M1179.09 1568.84 Q1177.24 1572.02 1174.41 1573.58 Q1171.61 1575.11 1167.66 1575.11 Q1161.2 1575.11 1157.13 1569.95 Q1153.09 1564.8 1153.09 1556.39 Q1153.09 1547.99 1157.13 1542.83 Q1161.2 1537.68 1167.66 1537.68 Q1171.61 1537.68 1174.41 1539.24 Q1177.24 1540.77 1179.09 1543.95 L1179.09 1538.54 L1184.95 1538.54 L1184.95 1587.74 L1179.09 1587.74 L1179.09 1568.84 Z" fill="#000000" fill-rule="nonzero" fill-opacity="1" /><path clip-path="url(#clip860)" d="M1196.41 1560.12 L1196.41 1538.54 L1202.26 1538.54 L1202.26 1559.89 Q1202.26 1564.96 1204.24 1567.5 Q1206.21 1570.02 1210.16 1570.02 Q1214.9 1570.02 1217.64 1566.99 Q1220.4 1563.97 1220.4 1558.75 L1220.4 1538.54 L1226.26 1538.54 L1226.26 1574.19 L1220.4 1574.19 L1220.4 1568.71 Q1218.27 1571.96 1215.44 1573.55 Q1212.64 1575.11 1208.91 1575.11 Q1202.77 1575.11 1199.59 1571.29 Q1196.41 1567.47 1196.41 1560.12 M1211.14 1537.68 L1211.14 1537.68 Z" fill="#000000" fill-rule="nonzero" fill-opacity="1" /><path clip-path="url(#clip860)" d="M1268.82 1554.9 L1268.82 1557.76 L1241.89 1557.76 Q1242.27 1563.81 1245.52 1566.99 Q1248.8 1570.14 1254.62 1570.14 Q1257.99 1570.14 1261.14 1569.32 Q1264.33 1568.49 1267.45 1566.83 L1267.45 1572.37 Q1264.3 1573.71 1260.99 1574.41 Q1257.68 1575.11 1254.27 1575.11 Q1245.74 1575.11 1240.74 1570.14 Q1235.78 1565.18 1235.78 1556.71 Q1235.78 1547.96 1240.49 1542.83 Q1245.23 1537.68 1253.25 1537.68 Q1260.44 1537.68 1264.61 1542.33 Q1268.82 1546.94 1268.82 1554.9 M1262.96 1553.18 Q1262.9 1548.37 1260.25 1545.51 Q1257.64 1542.64 1253.32 1542.64 Q1248.41 1542.64 1245.45 1545.41 Q1242.53 1548.18 1242.08 1553.21 L1262.96 1553.18 Z" fill="#000000" fill-rule="nonzero" fill-opacity="1" /><path clip-path="url(#clip860)" d="M1308.06 1552.67 L1308.06 1574.19 L1302.2 1574.19 L1302.2 1552.86 Q1302.2 1547.8 1300.23 1545.29 Q1298.26 1542.77 1294.31 1542.77 Q1289.57 1542.77 1286.83 1545.79 Q1284.09 1548.82 1284.09 1554.04 L1284.09 1574.19 L1278.2 1574.19 L1278.2 1538.54 L1284.09 1538.54 L1284.09 1544.08 Q1286.19 1540.86 1289.03 1539.27 Q1291.89 1537.68 1295.62 1537.68 Q1301.76 1537.68 1304.91 1541.5 Q1308.06 1545.29 1308.06 1552.67 Z" fill="#000000" fill-rule="nonzero" fill-opacity="1" /><path clip-path="url(#clip860)" d="M1345.39 1539.91 L1345.39 1545.38 Q1342.91 1544.01 1340.4 1543.34 Q1337.92 1542.64 1335.37 1542.64 Q1329.67 1542.64 1326.52 1546.27 Q1323.37 1549.87 1323.37 1556.39 Q1323.37 1562.92 1326.52 1566.55 Q1329.67 1570.14 1335.37 1570.14 Q1337.92 1570.14 1340.4 1569.47 Q1342.91 1568.77 1345.39 1567.41 L1345.39 1572.82 Q1342.94 1573.96 1340.3 1574.54 Q1337.69 1575.11 1334.73 1575.11 Q1326.68 1575.11 1321.94 1570.05 Q1317.19 1564.99 1317.19 1556.39 Q1317.19 1547.67 1321.97 1542.68 Q1326.78 1537.68 1335.11 1537.68 Q1337.82 1537.68 1340.4 1538.25 Q1342.98 1538.79 1345.39 1539.91 Z" fill="#000000" fill-rule="nonzero" fill-opacity="1" /><path clip-path="url(#clip860)" d="M1370.41 1577.5 Q1367.93 1583.86 1365.57 1585.8 Q1363.22 1587.74 1359.27 1587.74 L1354.59 1587.74 L1354.59 1582.84 L1358.03 1582.84 Q1360.45 1582.84 1361.79 1581.7 Q1363.12 1580.55 1364.75 1576.29 L1365.8 1573.61 L1351.38 1538.54 L1357.59 1538.54 L1368.73 1566.42 L1379.87 1538.54 L1386.07 1538.54 L1370.41 1577.5 Z" fill="#000000" fill-rule="nonzero" fill-opacity="1" /><path clip-path="url(#clip860)" d="M1414.34 1524.66 L1427.83 1524.66 L1427.83 1529.21 L1420.19 1529.21 L1420.19 1578.23 L1427.83 1578.23 L1427.83 1582.78 L1414.34 1582.78 L1414.34 1524.66 Z" fill="#000000" fill-rule="nonzero" fill-opacity="1" /><path clip-path="url(#clip860)" d="M1440.56 1526.67 L1446.99 1526.67 L1446.99 1546.14 L1470.35 1546.14 L1470.35 1526.67 L1476.78 1526.67 L1476.78 1574.19 L1470.35 1574.19 L1470.35 1551.56 L1446.99 1551.56 L1446.99 1574.19 L1440.56 1574.19 L1440.56 1526.67 Z" fill="#000000" fill-rule="nonzero" fill-opacity="1" /><path clip-path="url(#clip860)" d="M1486.78 1538.54 L1514.6 1538.54 L1514.6 1543.88 L1492.57 1569.51 L1514.6 1569.51 L1514.6 1574.19 L1485.98 1574.19 L1485.98 1568.84 L1508.01 1543.22 L1486.78 1543.22 L1486.78 1538.54 Z" fill="#000000" fill-rule="nonzero" fill-opacity="1" /><path clip-path="url(#clip860)" d="M1537.23 1524.66 L1537.23 1582.78 L1523.73 1582.78 L1523.73 1578.23 L1531.34 1578.23 L1531.34 1529.21 L1523.73 1529.21 L1523.73 1524.66 L1537.23 1524.66 Z" fill="#000000" fill-rule="nonzero" fill-opacity="1" /><polyline clip-path="url(#clip860)" style="stroke:#000000; stroke-linecap:round; stroke-linejoin:round; stroke-width:4; stroke-opacity:1; fill:none" points="242.135,1410.9 242.135,47.2441 "/>
<polyline clip-path="url(#clip860)" style="stroke:#000000; stroke-linecap:round; stroke-linejoin:round; stroke-width:4; stroke-opacity:1; fill:none" points="242.135,1261.69 261.032,1261.69 "/>
<polyline clip-path="url(#clip860)" style="stroke:#000000; stroke-linecap:round; stroke-linejoin:round; stroke-width:4; stroke-opacity:1; fill:none" points="242.135,1081.96 261.032,1081.96 "/>
<polyline clip-path="url(#clip860)" style="stroke:#000000; stroke-linecap:round; stroke-linejoin:round; stroke-width:4; stroke-opacity:1; fill:none" points="242.135,902.227 261.032,902.227 "/>
<polyline clip-path="url(#clip860)" style="stroke:#000000; stroke-linecap:round; stroke-linejoin:round; stroke-width:4; stroke-opacity:1; fill:none" points="242.135,722.497 261.032,722.497 "/>
<polyline clip-path="url(#clip860)" style="stroke:#000000; stroke-linecap:round; stroke-linejoin:round; stroke-width:4; stroke-opacity:1; fill:none" points="242.135,542.766 261.032,542.766 "/>
<polyline clip-path="url(#clip860)" style="stroke:#000000; stroke-linecap:round; stroke-linejoin:round; stroke-width:4; stroke-opacity:1; fill:none" points="242.135,363.035 261.032,363.035 "/>
<polyline clip-path="url(#clip860)" style="stroke:#000000; stroke-linecap:round; stroke-linejoin:round; stroke-width:4; stroke-opacity:1; fill:none" points="242.135,183.305 261.032,183.305 "/>
<path clip-path="url(#clip860)" d="M115.256 1262.14 L144.931 1262.14 L144.931 1266.08 L115.256 1266.08 L115.256 1262.14 Z" fill="#000000" fill-rule="nonzero" fill-opacity="1" /><path clip-path="url(#clip860)" d="M153.843 1244.41 L176.065 1244.41 L176.065 1246.4 L163.519 1278.97 L158.635 1278.97 L170.44 1248.34 L153.843 1248.34 L153.843 1244.41 Z" fill="#000000" fill-rule="nonzero" fill-opacity="1" /><path clip-path="url(#clip860)" d="M185.232 1244.41 L203.588 1244.41 L203.588 1248.34 L189.514 1248.34 L189.514 1256.82 Q190.533 1256.47 191.551 1256.31 Q192.57 1256.12 193.588 1256.12 Q199.375 1256.12 202.755 1259.29 Q206.135 1262.46 206.135 1267.88 Q206.135 1273.46 202.662 1276.56 Q199.19 1279.64 192.871 1279.64 Q190.695 1279.64 188.426 1279.27 Q186.181 1278.9 183.774 1278.16 L183.774 1273.46 Q185.857 1274.59 188.079 1275.15 Q190.301 1275.7 192.778 1275.7 Q196.783 1275.7 199.121 1273.6 Q201.459 1271.49 201.459 1267.88 Q201.459 1264.27 199.121 1262.16 Q196.783 1260.06 192.778 1260.06 Q190.903 1260.06 189.028 1260.47 Q187.176 1260.89 185.232 1261.77 L185.232 1244.41 Z" fill="#000000" fill-rule="nonzero" fill-opacity="1" /><path clip-path="url(#clip860)" d="M114.26 1082.41 L143.936 1082.41 L143.936 1086.34 L114.26 1086.34 L114.26 1082.41 Z" fill="#000000" fill-rule="nonzero" fill-opacity="1" /><path clip-path="url(#clip860)" d="M154.075 1064.68 L172.431 1064.68 L172.431 1068.61 L158.357 1068.61 L158.357 1077.09 Q159.376 1076.74 160.394 1076.58 Q161.413 1076.39 162.431 1076.39 Q168.218 1076.39 171.598 1079.56 Q174.977 1082.73 174.977 1088.15 Q174.977 1093.73 171.505 1096.83 Q168.033 1099.91 161.714 1099.91 Q159.538 1099.91 157.269 1099.54 Q155.024 1099.17 152.616 1098.43 L152.616 1093.73 Q154.7 1094.86 156.922 1095.42 Q159.144 1095.97 161.621 1095.97 Q165.626 1095.97 167.964 1093.87 Q170.302 1091.76 170.302 1088.15 Q170.302 1084.54 167.964 1082.43 Q165.626 1080.33 161.621 1080.33 Q159.746 1080.33 157.871 1080.74 Q156.019 1081.16 154.075 1082.04 L154.075 1064.68 Z" fill="#000000" fill-rule="nonzero" fill-opacity="1" /><path clip-path="url(#clip860)" d="M194.19 1067.76 Q190.579 1067.76 188.75 1071.32 Q186.945 1074.86 186.945 1081.99 Q186.945 1089.1 188.75 1092.66 Q190.579 1096.21 194.19 1096.21 Q197.825 1096.21 199.63 1092.66 Q201.459 1089.1 201.459 1081.99 Q201.459 1074.86 199.63 1071.32 Q197.825 1067.76 194.19 1067.76 M194.19 1064.05 Q200 1064.05 203.056 1068.66 Q206.135 1073.24 206.135 1081.99 Q206.135 1090.72 203.056 1095.33 Q200 1099.91 194.19 1099.91 Q188.38 1099.91 185.301 1095.33 Q182.246 1090.72 182.246 1081.99 Q182.246 1073.24 185.301 1068.66 Q188.38 1064.05 194.19 1064.05 Z" fill="#000000" fill-rule="nonzero" fill-opacity="1" /><path clip-path="url(#clip860)" d="M115.256 902.679 L144.931 902.679 L144.931 906.614 L115.256 906.614 L115.256 902.679 Z" fill="#000000" fill-rule="nonzero" fill-opacity="1" /><path clip-path="url(#clip860)" d="M159.052 915.572 L175.371 915.572 L175.371 919.507 L153.427 919.507 L153.427 915.572 Q156.089 912.818 160.672 908.188 Q165.278 903.535 166.459 902.193 Q168.704 899.669 169.584 897.933 Q170.487 896.174 170.487 894.484 Q170.487 891.73 168.542 889.994 Q166.621 888.258 163.519 888.258 Q161.32 888.258 158.866 889.021 Q156.436 889.785 153.658 891.336 L153.658 886.614 Q156.482 885.48 158.936 884.901 Q161.39 884.322 163.427 884.322 Q168.797 884.322 171.991 887.008 Q175.186 889.693 175.186 894.183 Q175.186 896.313 174.376 898.234 Q173.589 900.132 171.482 902.725 Q170.903 903.396 167.802 906.614 Q164.7 909.808 159.052 915.572 Z" fill="#000000" fill-rule="nonzero" fill-opacity="1" /><path clip-path="url(#clip860)" d="M185.232 884.947 L203.588 884.947 L203.588 888.883 L189.514 888.883 L189.514 897.355 Q190.533 897.007 191.551 896.845 Q192.57 896.66 193.588 896.66 Q199.375 896.66 202.755 899.832 Q206.135 903.003 206.135 908.419 Q206.135 913.998 202.662 917.1 Q199.19 920.179 192.871 920.179 Q190.695 920.179 188.426 919.808 Q186.181 919.438 183.774 918.697 L183.774 913.998 Q185.857 915.132 188.079 915.688 Q190.301 916.243 192.778 916.243 Q196.783 916.243 199.121 914.137 Q201.459 912.031 201.459 908.419 Q201.459 904.808 199.121 902.702 Q196.783 900.595 192.778 900.595 Q190.903 900.595 189.028 901.012 Q187.176 901.429 185.232 902.308 L185.232 884.947 Z" fill="#000000" fill-rule="nonzero" fill-opacity="1" /><path clip-path="url(#clip860)" d="M194.19 708.295 Q190.579 708.295 188.75 711.86 Q186.945 715.402 186.945 722.531 Q186.945 729.638 188.75 733.203 Q190.579 736.744 194.19 736.744 Q197.825 736.744 199.63 733.203 Q201.459 729.638 201.459 722.531 Q201.459 715.402 199.63 711.86 Q197.825 708.295 194.19 708.295 M194.19 704.592 Q200 704.592 203.056 709.198 Q206.135 713.781 206.135 722.531 Q206.135 731.258 203.056 735.865 Q200 740.448 194.19 740.448 Q188.38 740.448 185.301 735.865 Q182.246 731.258 182.246 722.531 Q182.246 713.781 185.301 709.198 Q188.38 704.592 194.19 704.592 Z" fill="#000000" fill-rule="nonzero" fill-opacity="1" /><path clip-path="url(#clip860)" d="M159.052 556.111 L175.371 556.111 L175.371 560.046 L153.427 560.046 L153.427 556.111 Q156.089 553.356 160.672 548.727 Q165.278 544.074 166.459 542.731 Q168.704 540.208 169.584 538.472 Q170.487 536.713 170.487 535.023 Q170.487 532.268 168.542 530.532 Q166.621 528.796 163.519 528.796 Q161.32 528.796 158.866 529.56 Q156.436 530.324 153.658 531.875 L153.658 527.153 Q156.482 526.018 158.936 525.44 Q161.39 524.861 163.427 524.861 Q168.797 524.861 171.991 527.546 Q175.186 530.231 175.186 534.722 Q175.186 536.852 174.376 538.773 Q173.589 540.671 171.482 543.264 Q170.903 543.935 167.802 547.153 Q164.7 550.347 159.052 556.111 Z" fill="#000000" fill-rule="nonzero" fill-opacity="1" /><path clip-path="url(#clip860)" d="M185.232 525.486 L203.588 525.486 L203.588 529.421 L189.514 529.421 L189.514 537.893 Q190.533 537.546 191.551 537.384 Q192.57 537.199 193.588 537.199 Q199.375 537.199 202.755 540.37 Q206.135 543.541 206.135 548.958 Q206.135 554.537 202.662 557.639 Q199.19 560.717 192.871 560.717 Q190.695 560.717 188.426 560.347 Q186.181 559.977 183.774 559.236 L183.774 554.537 Q185.857 555.671 188.079 556.227 Q190.301 556.782 192.778 556.782 Q196.783 556.782 199.121 554.676 Q201.459 552.569 201.459 548.958 Q201.459 545.347 199.121 543.241 Q196.783 541.134 192.778 541.134 Q190.903 541.134 189.028 541.551 Q187.176 541.967 185.232 542.847 L185.232 525.486 Z" fill="#000000" fill-rule="nonzero" fill-opacity="1" /><path clip-path="url(#clip860)" d="M154.075 345.755 L172.431 345.755 L172.431 349.69 L158.357 349.69 L158.357 358.163 Q159.376 357.815 160.394 357.653 Q161.413 357.468 162.431 357.468 Q168.218 357.468 171.598 360.639 Q174.977 363.811 174.977 369.227 Q174.977 374.806 171.505 377.908 Q168.033 380.987 161.714 380.987 Q159.538 380.987 157.269 380.616 Q155.024 380.246 152.616 379.505 L152.616 374.806 Q154.7 375.94 156.922 376.496 Q159.144 377.051 161.621 377.051 Q165.626 377.051 167.964 374.945 Q170.302 372.838 170.302 369.227 Q170.302 365.616 167.964 363.51 Q165.626 361.403 161.621 361.403 Q159.746 361.403 157.871 361.82 Q156.019 362.237 154.075 363.116 L154.075 345.755 Z" fill="#000000" fill-rule="nonzero" fill-opacity="1" /><path clip-path="url(#clip860)" d="M194.19 348.834 Q190.579 348.834 188.75 352.399 Q186.945 355.94 186.945 363.07 Q186.945 370.176 188.75 373.741 Q190.579 377.283 194.19 377.283 Q197.825 377.283 199.63 373.741 Q201.459 370.176 201.459 363.07 Q201.459 355.94 199.63 352.399 Q197.825 348.834 194.19 348.834 M194.19 345.13 Q200 345.13 203.056 349.737 Q206.135 354.32 206.135 363.07 Q206.135 371.797 203.056 376.403 Q200 380.987 194.19 380.987 Q188.38 380.987 185.301 376.403 Q182.246 371.797 182.246 363.07 Q182.246 354.32 185.301 349.737 Q188.38 345.13 194.19 345.13 Z" fill="#000000" fill-rule="nonzero" fill-opacity="1" /><path clip-path="url(#clip860)" d="M153.843 166.025 L176.065 166.025 L176.065 168.015 L163.519 200.585 L158.635 200.585 L170.44 169.96 L153.843 169.96 L153.843 166.025 Z" fill="#000000" fill-rule="nonzero" fill-opacity="1" /><path clip-path="url(#clip860)" d="M185.232 166.025 L203.588 166.025 L203.588 169.96 L189.514 169.96 L189.514 178.432 Q190.533 178.085 191.551 177.923 Q192.57 177.738 193.588 177.738 Q199.375 177.738 202.755 180.909 Q206.135 184.08 206.135 189.497 Q206.135 195.075 202.662 198.177 Q199.19 201.256 192.871 201.256 Q190.695 201.256 188.426 200.886 Q186.181 200.515 183.774 199.774 L183.774 195.075 Q185.857 196.21 188.079 196.765 Q190.301 197.321 192.778 197.321 Q196.783 197.321 199.121 195.214 Q201.459 193.108 201.459 189.497 Q201.459 185.886 199.121 183.779 Q196.783 181.673 192.778 181.673 Q190.903 181.673 189.028 182.089 Q187.176 182.506 185.232 183.386 L185.232 166.025 Z" fill="#000000" fill-rule="nonzero" fill-opacity="1" /><path clip-path="url(#clip860)" d="M21.7677 1011.96 L39.6235 1011.96 L39.6235 1003.88 Q39.6235 999.39 37.3 996.939 Q34.9765 994.489 30.6797 994.489 Q26.4147 994.489 24.0912 996.939 Q21.7677 999.39 21.7677 1003.88 L21.7677 1011.96 M16.4842 1018.39 L16.4842 1003.88 Q16.4842 995.889 20.1126 991.815 Q23.7092 987.709 30.6797 987.709 Q37.7138 987.709 41.3104 991.815 Q44.907 995.889 44.907 1003.88 L44.907 1011.96 L64.0042 1011.96 L64.0042 1018.39 L16.4842 1018.39 Z" fill="#000000" fill-rule="nonzero" fill-opacity="1" /><path clip-path="url(#clip860)" d="M42.4881 949.706 L64.0042 949.706 L64.0042 955.562 L42.679 955.562 Q37.6183 955.562 35.1038 957.536 Q32.5894 959.509 32.5894 963.456 Q32.5894 968.198 35.6131 970.935 Q38.6368 973.673 43.8567 973.673 L64.0042 973.673 L64.0042 979.561 L14.479 979.561 L14.479 973.673 L33.8944 973.673 Q30.6797 971.572 29.0883 968.739 Q27.4968 965.875 27.4968 962.151 Q27.4968 956.008 31.3163 952.857 Q35.1038 949.706 42.4881 949.706 Z" fill="#000000" fill-rule="nonzero" fill-opacity="1" /><path clip-path="url(#clip860)" d="M46.0847 921.824 Q46.0847 928.922 47.7079 931.659 Q49.3312 934.396 53.2461 934.396 Q56.3653 934.396 58.2114 932.359 Q60.0256 930.29 60.0256 926.757 Q60.0256 921.888 56.5881 918.959 Q53.1188 915.999 47.3897 915.999 L46.0847 915.999 L46.0847 921.824 M43.6657 910.143 L64.0042 910.143 L64.0042 915.999 L58.5933 915.999 Q61.8398 918.005 63.3994 920.996 Q64.9272 923.988 64.9272 928.317 Q64.9272 933.791 61.8716 937.038 Q58.7843 940.253 53.6281 940.253 Q47.6125 940.253 44.5569 936.242 Q41.5014 932.2 41.5014 924.211 L41.5014 915.999 L40.9285 915.999 Q36.8862 915.999 34.6901 918.673 Q32.4621 921.315 32.4621 926.121 Q32.4621 929.176 33.1941 932.073 Q33.9262 934.969 35.3903 937.643 L29.9795 937.643 Q28.7381 934.428 28.1334 931.404 Q27.4968 928.381 27.4968 925.516 Q27.4968 917.782 31.5072 913.962 Q35.5176 910.143 43.6657 910.143 Z" fill="#000000" fill-rule="nonzero" fill-opacity="1" /><path clip-path="url(#clip860)" d="M29.4065 875.354 L34.9447 875.354 Q33.6716 877.837 33.035 880.511 Q32.3984 883.184 32.3984 886.049 Q32.3984 890.409 33.7352 892.605 Q35.072 894.77 37.7456 894.77 Q39.7826 894.77 40.9603 893.21 Q42.1061 891.651 43.1565 886.94 L43.6021 884.935 Q44.9389 878.696 47.3897 876.086 Q49.8086 873.445 54.1691 873.445 Q59.1344 873.445 62.0308 877.391 Q64.9272 881.306 64.9272 888.181 Q64.9272 891.046 64.3543 894.165 Q63.8132 897.252 62.6992 900.69 L56.6518 900.69 Q58.3387 897.443 59.198 894.292 Q60.0256 891.141 60.0256 888.054 Q60.0256 883.916 58.6251 881.688 Q57.1929 879.46 54.6147 879.46 Q52.2276 879.46 50.9545 881.083 Q49.6813 882.675 48.5037 888.118 L48.0262 890.155 Q46.8804 895.597 44.5251 898.016 Q42.138 900.435 38.0002 900.435 Q32.9713 900.435 30.2341 896.87 Q27.4968 893.306 27.4968 886.749 Q27.4968 883.502 27.9743 880.638 Q28.4517 877.773 29.4065 875.354 Z" fill="#000000" fill-rule="nonzero" fill-opacity="1" /><path clip-path="url(#clip860)" d="M44.7161 833.627 L47.5806 833.627 L47.5806 860.554 Q53.6281 860.172 56.8109 856.926 Q59.9619 853.647 59.9619 847.823 Q59.9619 844.449 59.1344 841.298 Q58.3069 838.115 56.6518 834.996 L62.1899 834.996 Q63.5267 838.147 64.227 841.457 Q64.9272 844.767 64.9272 848.173 Q64.9272 856.703 59.9619 861.7 Q54.9967 866.665 46.5303 866.665 Q37.7774 866.665 32.6531 861.954 Q27.4968 857.212 27.4968 849.191 Q27.4968 841.998 32.1438 837.828 Q36.7589 833.627 44.7161 833.627 M42.9973 839.484 Q38.1912 839.547 35.3266 842.189 Q32.4621 844.799 32.4621 849.128 Q32.4621 854.029 35.2312 856.989 Q38.0002 859.917 43.0292 860.363 L42.9973 839.484 Z" fill="#000000" fill-rule="nonzero" fill-opacity="1" /><path clip-path="url(#clip860)" d="M46.0847 787.094 Q46.0847 794.192 47.7079 796.929 Q49.3312 799.666 53.2461 799.666 Q56.3653 799.666 58.2114 797.629 Q60.0256 795.56 60.0256 792.027 Q60.0256 787.157 56.5881 784.229 Q53.1188 781.269 47.3897 781.269 L46.0847 781.269 L46.0847 787.094 M43.6657 775.413 L64.0042 775.413 L64.0042 781.269 L58.5933 781.269 Q61.8398 783.274 63.3994 786.266 Q64.9272 789.258 64.9272 793.587 Q64.9272 799.061 61.8716 802.308 Q58.7843 805.523 53.6281 805.523 Q47.6125 805.523 44.5569 801.512 Q41.5014 797.47 41.5014 789.481 L41.5014 781.269 L40.9285 781.269 Q36.8862 781.269 34.6901 783.943 Q32.4621 786.585 32.4621 791.391 Q32.4621 794.446 33.1941 797.343 Q33.9262 800.239 35.3903 802.913 L29.9795 802.913 Q28.7381 799.698 28.1334 796.674 Q27.4968 793.65 27.4968 790.786 Q27.4968 783.052 31.5072 779.232 Q35.5176 775.413 43.6657 775.413 Z" fill="#000000" fill-rule="nonzero" fill-opacity="1" /><path clip-path="url(#clip860)" d="M42.4881 733.717 L64.0042 733.717 L64.0042 739.574 L42.679 739.574 Q37.6183 739.574 35.1038 741.547 Q32.5894 743.521 32.5894 747.467 Q32.5894 752.21 35.6131 754.947 Q38.6368 757.684 43.8567 757.684 L64.0042 757.684 L64.0042 763.572 L28.3562 763.572 L28.3562 757.684 L33.8944 757.684 Q30.6797 755.584 29.0883 752.751 Q27.4968 749.886 27.4968 746.162 Q27.4968 740.019 31.3163 736.868 Q35.1038 733.717 42.4881 733.717 Z" fill="#000000" fill-rule="nonzero" fill-opacity="1" /><path clip-path="url(#clip860)" d="M45.7664 698.579 Q39.4007 698.579 35.8996 701.22 Q32.3984 703.83 32.3984 708.573 Q32.3984 713.283 35.8996 715.925 Q39.4007 718.535 45.7664 718.535 Q52.1003 718.535 55.6014 715.925 Q59.1026 713.283 59.1026 708.573 Q59.1026 703.83 55.6014 701.22 Q52.1003 698.579 45.7664 698.579 M59.58 692.722 Q68.683 692.722 73.1071 696.764 Q77.5631 700.807 77.5631 709.146 Q77.5631 712.233 77.0857 714.97 Q76.6401 717.708 75.6852 720.286 L69.9879 720.286 Q71.3884 717.708 72.0568 715.193 Q72.7252 712.679 72.7252 710.069 Q72.7252 704.308 69.7015 701.443 Q66.7096 698.579 60.6303 698.579 L57.7339 698.579 Q60.885 700.393 62.4446 703.226 Q64.0042 706.058 64.0042 710.005 Q64.0042 716.562 59.0071 720.572 Q54.01 724.583 45.7664 724.583 Q37.491 724.583 32.4939 720.572 Q27.4968 716.562 27.4968 710.005 Q27.4968 706.058 29.0564 703.226 Q30.616 700.393 33.7671 698.579 L28.3562 698.579 L28.3562 692.722 L59.58 692.722 Z" fill="#000000" fill-rule="nonzero" fill-opacity="1" /><path clip-path="url(#clip860)" d="M14.479 680.659 L14.479 674.803 L64.0042 674.803 L64.0042 680.659 L14.479 680.659 Z" fill="#000000" fill-rule="nonzero" fill-opacity="1" /><path clip-path="url(#clip860)" d="M44.7161 632.057 L47.5806 632.057 L47.5806 658.984 Q53.6281 658.602 56.8109 655.355 Q59.9619 652.077 59.9619 646.253 Q59.9619 642.879 59.1344 639.728 Q58.3069 636.545 56.6518 633.426 L62.1899 633.426 Q63.5267 636.577 64.227 639.887 Q64.9272 643.197 64.9272 646.603 Q64.9272 655.133 59.9619 660.13 Q54.9967 665.095 46.5303 665.095 Q37.7774 665.095 32.6531 660.384 Q27.4968 655.642 27.4968 647.621 Q27.4968 640.428 32.1438 636.258 Q36.7589 632.057 44.7161 632.057 M42.9973 637.913 Q38.1912 637.977 35.3266 640.619 Q32.4621 643.229 32.4621 647.557 Q32.4621 652.459 35.2312 655.419 Q38.0002 658.347 43.0292 658.793 L42.9973 637.913 Z" fill="#000000" fill-rule="nonzero" fill-opacity="1" /><path clip-path="url(#clip860)" d="M14.479 602.265 L14.479 588.77 L19.0304 588.77 L19.0304 596.409 L68.0464 596.409 L68.0464 588.77 L72.5979 588.77 L72.5979 602.265 L14.479 602.265 Z" fill="#000000" fill-rule="nonzero" fill-opacity="1" /><path clip-path="url(#clip860)" d="M33.7671 552.836 L14.479 552.836 L14.479 546.979 L64.0042 546.979 L64.0042 552.836 L58.657 552.836 Q61.8398 554.682 63.3994 557.515 Q64.9272 560.315 64.9272 564.262 Q64.9272 570.723 59.771 574.797 Q54.6147 578.84 46.212 578.84 Q37.8093 578.84 32.6531 574.797 Q27.4968 570.723 27.4968 564.262 Q27.4968 560.315 29.0564 557.515 Q30.5842 554.682 33.7671 552.836 M46.212 572.792 Q52.6732 572.792 56.3653 570.151 Q60.0256 567.477 60.0256 562.83 Q60.0256 558.183 56.3653 555.509 Q52.6732 552.836 46.212 552.836 Q39.7508 552.836 36.0905 555.509 Q32.3984 558.183 32.3984 562.83 Q32.3984 567.477 36.0905 570.151 Q39.7508 572.792 46.212 572.792 Z" fill="#000000" fill-rule="nonzero" fill-opacity="1" /><path clip-path="url(#clip860)" d="M44.7161 504.425 L47.5806 504.425 L47.5806 531.352 Q53.6281 530.97 56.8109 527.723 Q59.9619 524.445 59.9619 518.62 Q59.9619 515.246 59.1344 512.095 Q58.3069 508.912 56.6518 505.793 L62.1899 505.793 Q63.5267 508.944 64.227 512.254 Q64.9272 515.565 64.9272 518.97 Q64.9272 527.5 59.9619 532.497 Q54.9967 537.463 46.5303 537.463 Q37.7774 537.463 32.6531 532.752 Q27.4968 528.01 27.4968 519.989 Q27.4968 512.795 32.1438 508.626 Q36.7589 504.425 44.7161 504.425 M42.9973 510.281 Q38.1912 510.345 35.3266 512.986 Q32.4621 515.596 32.4621 519.925 Q32.4621 524.827 35.2312 527.787 Q38.0002 530.715 43.0292 531.161 L42.9973 510.281 Z" fill="#000000" fill-rule="nonzero" fill-opacity="1" /><path clip-path="url(#clip860)" d="M45.7664 471.355 Q39.4007 471.355 35.8996 473.997 Q32.3984 476.606 32.3984 481.349 Q32.3984 486.06 35.8996 488.701 Q39.4007 491.311 45.7664 491.311 Q52.1003 491.311 55.6014 488.701 Q59.1026 486.06 59.1026 481.349 Q59.1026 476.606 55.6014 473.997 Q52.1003 471.355 45.7664 471.355 M59.58 465.498 Q68.683 465.498 73.1071 469.541 Q77.5631 473.583 77.5631 481.922 Q77.5631 485.009 77.0857 487.746 Q76.6401 490.484 75.6852 493.062 L69.9879 493.062 Q71.3884 490.484 72.0568 487.969 Q72.7252 485.455 72.7252 482.845 Q72.7252 477.084 69.7015 474.219 Q66.7096 471.355 60.6303 471.355 L57.7339 471.355 Q60.885 473.169 62.4446 476.002 Q64.0042 478.834 64.0042 482.781 Q64.0042 489.338 59.0071 493.348 Q54.01 497.359 45.7664 497.359 Q37.491 497.359 32.4939 493.348 Q27.4968 489.338 27.4968 482.781 Q27.4968 478.834 29.0564 476.002 Q30.616 473.169 33.7671 471.355 L28.3562 471.355 L28.3562 465.498 L59.58 465.498 Z" fill="#000000" fill-rule="nonzero" fill-opacity="1" /><path clip-path="url(#clip860)" d="M14.479 439.749 L72.5979 439.749 L72.5979 453.244 L68.0464 453.244 L68.0464 445.637 L19.0304 445.637 L19.0304 453.244 L14.479 453.244 L14.479 439.749 Z" fill="#000000" fill-rule="nonzero" fill-opacity="1" /><polyline clip-path="url(#clip862)" style="stroke:#0000ff; stroke-linecap:round; stroke-linejoin:round; stroke-width:4; stroke-opacity:1; fill:none" points="301.869,211.667 314.392,85.838 326.915,87.4105 339.438,93.9324 351.961,110.904 364.484,248.422 377.007,97.2089 389.53,89.5446 402.053,97.1825 414.576,98.0588 427.099,121.665 439.622,109.064 452.145,94.7292 464.668,96.5756 477.191,100.855 489.714,108.248 502.237,102.943 514.76,103.748 527.283,107.149 539.806,112.622 552.329,110.566 564.852,113.299 577.375,116.916 589.898,121.102 602.42,126.08 614.943,132.158 627.466,139.777 639.989,149.369 652.512,161.405 665.035,176.051 677.558,192.405 690.081,209.828 702.604,231 715.127,261.799 727.65,315.911 740.173,415.549 752.696,586.24 765.219,783.822 777.742,908.336 790.265,946.186 802.788,912.267 815.311,810.018 827.834,672.696 840.357,576.563 852.88,549.733 865.403,569.713 877.926,622.608 890.449,694.044 902.972,801.075 915.495,931.895 928.018,1039.86 940.541,1108.37 953.064,1145.05 965.587,1160.42 978.11,1159.66 990.633,1143.58 1003.16,1108.96 1015.68,1049.65 1028.2,956.779 1040.72,828.425 1053.25,691.268 1065.77,581.768 1078.29,510.898 1090.82,470.917 1103.34,451.887 1115.86,447.654 1128.39,456.64 1140.91,479.783 1153.43,518.983 1165.95,575.99 1178.48,652.025 1191,743.963 1203.52,841.451 1216.05,932.35 1228.57,1008.89 1241.09,1068.83 1253.61,1114.47 1266.14,1149.9 1278.66,1177.78 1291.18,1199.54 1303.71,1216.22 1316.23,1228.61 1328.75,1237.55 1341.28,1244.2 1353.8,1250.39 1366.32,1258.5 1378.84,1268.33 1391.37,1277.57 1403.89,1285.1 1416.41,1291.08 1428.94,1295.71 1441.46,1299.13 1453.98,1301.52 1466.51,1302.91 1479.03,1303.45 1491.55,1303.41 1504.07,1303.54 1516.6,1305.22 1529.12,1309.43 1541.64,1315.88 1554.17,1323.04 1566.69,1329.62 1579.21,1335.2 1591.74,1339.75 1604.26,1343.37 1616.78,1346.3 1629.3,1348.81 1641.83,1350.91 1654.35,1352.7 1666.87,1354.22 1679.4,1355.45 1691.92,1356.49 1704.44,1357.31 1716.96,1357.88 1729.49,1358.32 1742.01,1358.6 1754.53,1358.68 1767.06,1358.73 1779.58,1358.74 1792.1,1358.6 1804.63,1358.49 1817.15,1358.36 1829.67,1358.23 1842.19,1358.14 1854.72,1358.05 1867.24,1357.92 1879.76,1357.83 1892.29,1357.66 1904.81,1357.5 1917.33,1357.3 1929.86,1357.15 1942.38,1356.97 1954.9,1356.78 1967.42,1356.66 1979.95,1356.53 1992.47,1356.41 2004.99,1356.29 2017.52,1356.22 2030.04,1356.14 2042.56,1356 2055.08,1355.88 2067.61,1355.79 2080.13,1355.74 2092.65,1355.77 2105.18,1355.82 2117.7,1356.03 2130.22,1356.44 2142.75,1357.03 2155.27,1357.69 2167.79,1358.28 2180.31,1358.71 2192.84,1358.91 2205.36,1358.97 2217.88,1358.91 2230.41,1358.92 2242.93,1358.95 2255.45,1359.03 2267.98,1359.07 2280.5,1359.11 2293.02,1359.01 "/>
<polyline clip-path="url(#clip862)" style="stroke:#ff8c00; stroke-linecap:round; stroke-linejoin:round; stroke-width:4; stroke-opacity:1; fill:none" points="301.869,414.403 314.392,280.513 326.915,220.476 339.438,188.242 351.961,168.663 364.484,155.788 377.007,146.873 389.53,140.488 402.053,135.823 414.576,132.385 427.099,129.861 439.622,128.042 452.145,126.786 464.668,125.993 477.191,125.596 489.714,125.547 502.237,125.814 514.76,126.379 527.283,127.235 539.806,128.384 552.329,129.841 564.852,131.631 577.375,133.794 589.898,136.386 602.42,139.49 614.943,143.222 627.466,147.747 639.989,153.306 652.512,160.262 665.035,169.172 677.558,180.937 690.081,197.086 702.604,220.369 715.127,256.065 727.65,314.904 740.173,417.944 752.696,588.397 765.219,782.617 777.742,905.199 790.265,942.491 802.788,909.847 815.311,816.114 827.834,692.985 840.357,596.365 852.88,551.424 865.403,555.066 877.926,603.415 890.449,694.89 902.972,816.387 915.495,936.214 928.018,1029.01 940.541,1091.54 953.064,1130.39 965.587,1151.63 978.11,1158.45 990.633,1151.13 1003.16,1126.75 1015.68,1078.21 1028.2,993.433 1040.72,863.117 1053.25,708.628 1065.77,580.221 1078.29,498.473 1090.82,453.866 1103.34,434.425 1115.86,433.058 1128.39,446.631 1140.91,474.592 1153.43,518.019 1165.95,578.575 1178.48,656.53 1191,747.823 1203.52,842.871 1216.05,930.623 1228.57,1004.44 1241.09,1063.33 1253.61,1109.38 1266.14,1145.38 1278.66,1173.82 1291.18,1196.61 1303.71,1215.14 1316.23,1230.44 1328.75,1243.25 1341.28,1254.09 1353.8,1263.39 1366.32,1271.44 1378.84,1278.48 1391.37,1284.68 1403.89,1290.19 1416.41,1295.11 1428.94,1299.54 1441.46,1303.54 1453.98,1307.18 1466.51,1310.51 1479.03,1313.57 1491.55,1316.39 1504.07,1318.99 1516.6,1321.41 1529.12,1323.66 1541.64,1325.77 1554.17,1327.74 1566.69,1329.59 1579.21,1331.34 1591.74,1332.99 1604.26,1334.55 1616.78,1336.02 1629.3,1337.43 1641.83,1338.76 1654.35,1340.04 1666.87,1341.25 1679.4,1342.42 1691.92,1343.53 1704.44,1344.6 1716.96,1345.63 1729.49,1346.62 1742.01,1347.57 1754.53,1348.49 1767.06,1349.38 1779.58,1350.23 1792.1,1351.06 1804.63,1351.87 1817.15,1352.64 1829.67,1353.4 1842.19,1354.13 1854.72,1354.84 1867.24,1355.54 1879.76,1356.21 1892.29,1356.87 1904.81,1357.51 1917.33,1358.14 1929.86,1358.75 1942.38,1359.35 1954.9,1359.93 1967.42,1360.5 1979.95,1361.06 1992.47,1361.61 2004.99,1362.14 2017.52,1362.67 2030.04,1363.18 2042.56,1363.69 2055.08,1364.19 2067.61,1364.68 2080.13,1365.16 2092.65,1365.63 2105.18,1366.09 2117.7,1366.55 2130.22,1367 2142.75,1367.44 2155.27,1367.88 2167.79,1368.3 2180.31,1368.73 2192.84,1369.15 2205.36,1369.56 2217.88,1369.97 2230.41,1370.37 2242.93,1370.76 2255.45,1371.16 2267.98,1371.54 2280.5,1371.92 2293.02,1372.3 "/>
<path clip-path="url(#clip860)" d="M1950.44 826.365 L2282.4 826.365 L2282.4 670.845 L1950.44 670.845  Z" fill="#ffffff" fill-rule="evenodd" fill-opacity="1"/>
<polyline clip-path="url(#clip860)" style="stroke:#000000; stroke-linecap:round; stroke-linejoin:round; stroke-width:4; stroke-opacity:1; fill:none" points="1950.44,826.365 2282.4,826.365 2282.4,670.845 1950.44,670.845 1950.44,826.365 "/>
<polyline clip-path="url(#clip860)" style="stroke:#0000ff; stroke-linecap:round; stroke-linejoin:round; stroke-width:4; stroke-opacity:1; fill:none" points="1973.89,722.685 2114.6,722.685 "/>
<path clip-path="url(#clip860)" d="M2154.55 703.947 L2154.55 707.489 L2150.48 707.489 Q2148.19 707.489 2147.28 708.415 Q2146.4 709.341 2146.4 711.748 L2146.4 714.04 L2153.42 714.04 L2153.42 717.35 L2146.4 717.35 L2146.4 739.965 L2142.12 739.965 L2142.12 717.35 L2138.05 717.35 L2138.05 714.04 L2142.12 714.04 L2142.12 712.234 Q2142.12 707.905 2144.14 705.938 Q2146.15 703.947 2150.53 703.947 L2154.55 703.947 Z" fill="#000000" fill-rule="nonzero" fill-opacity="1" /><path clip-path="url(#clip860)" d="M2168.35 703.993 Q2165.25 709.317 2163.74 714.526 Q2162.24 719.734 2162.24 725.081 Q2162.24 730.428 2163.74 735.683 Q2165.27 740.915 2168.35 746.215 L2164.65 746.215 Q2161.17 740.776 2159.44 735.521 Q2157.72 730.266 2157.72 725.081 Q2157.72 719.919 2159.44 714.688 Q2161.15 709.456 2164.65 703.993 L2168.35 703.993 Z" fill="#000000" fill-rule="nonzero" fill-opacity="1" /><path clip-path="url(#clip860)" d="M2193.14 714.804 L2193.14 718.831 Q2191.34 717.905 2189.39 717.442 Q2187.45 716.979 2185.36 716.979 Q2182.19 716.979 2180.59 717.952 Q2179.02 718.924 2179.02 720.868 Q2179.02 722.35 2180.15 723.206 Q2181.29 724.04 2184.71 724.803 L2186.17 725.128 Q2190.71 726.1 2192.61 727.882 Q2194.53 729.641 2194.53 732.813 Q2194.53 736.424 2191.66 738.53 Q2188.81 740.637 2183.81 740.637 Q2181.73 740.637 2179.46 740.22 Q2177.21 739.827 2174.71 739.016 L2174.71 734.618 Q2177.08 735.845 2179.37 736.47 Q2181.66 737.072 2183.9 737.072 Q2186.91 737.072 2188.53 736.053 Q2190.15 735.012 2190.15 733.137 Q2190.15 731.401 2188.97 730.475 Q2187.82 729.549 2183.86 728.692 L2182.38 728.345 Q2178.42 727.512 2176.66 725.799 Q2174.9 724.063 2174.9 721.054 Q2174.9 717.396 2177.49 715.405 Q2180.09 713.415 2184.85 713.415 Q2187.21 713.415 2189.3 713.762 Q2191.38 714.109 2193.14 714.804 Z" fill="#000000" fill-rule="nonzero" fill-opacity="1" /><path clip-path="url(#clip860)" d="M2200.64 703.993 L2204.34 703.993 Q2207.82 709.456 2209.53 714.688 Q2211.27 719.919 2211.27 725.081 Q2211.27 730.266 2209.53 735.521 Q2207.82 740.776 2204.34 746.215 L2200.64 746.215 Q2203.72 740.915 2205.22 735.683 Q2206.75 730.428 2206.75 725.081 Q2206.75 719.734 2205.22 714.526 Q2203.72 709.317 2200.64 703.993 Z" fill="#000000" fill-rule="nonzero" fill-opacity="1" /><polyline clip-path="url(#clip860)" style="stroke:#ff8c00; stroke-linecap:round; stroke-linejoin:round; stroke-width:4; stroke-opacity:1; fill:none" points="1973.89,774.525 2114.6,774.525 "/>
<path clip-path="url(#clip860)" d="M2154.55 755.787 L2154.55 759.329 L2150.48 759.329 Q2148.19 759.329 2147.28 760.255 Q2146.4 761.181 2146.4 763.588 L2146.4 765.88 L2153.42 765.88 L2153.42 769.19 L2146.4 769.19 L2146.4 791.805 L2142.12 791.805 L2142.12 769.19 L2138.05 769.19 L2138.05 765.88 L2142.12 765.88 L2142.12 764.074 Q2142.12 759.745 2144.14 757.778 Q2146.15 755.787 2150.53 755.787 L2154.55 755.787 Z" fill="#000000" fill-rule="nonzero" fill-opacity="1" /><path clip-path="url(#clip860)" d="M2158.12 765.88 L2162.38 765.88 L2162.38 791.805 L2158.12 791.805 L2158.12 765.88 M2158.12 755.787 L2162.38 755.787 L2162.38 761.181 L2158.12 761.181 L2158.12 755.787 Z" fill="#000000" fill-rule="nonzero" fill-opacity="1" /><path clip-path="url(#clip860)" d="M2175.5 758.519 L2175.5 765.88 L2184.27 765.88 L2184.27 769.19 L2175.5 769.19 L2175.5 783.264 Q2175.5 786.435 2176.36 787.338 Q2177.24 788.241 2179.9 788.241 L2184.27 788.241 L2184.27 791.805 L2179.9 791.805 Q2174.97 791.805 2173.09 789.977 Q2171.22 788.125 2171.22 783.264 L2171.22 769.19 L2168.09 769.19 L2168.09 765.88 L2171.22 765.88 L2171.22 758.519 L2175.5 758.519 Z" fill="#000000" fill-rule="nonzero" fill-opacity="1" /><path clip-path="url(#clip860)" d="M2194.09 758.519 L2194.09 765.88 L2202.86 765.88 L2202.86 769.19 L2194.09 769.19 L2194.09 783.264 Q2194.09 786.435 2194.95 787.338 Q2195.83 788.241 2198.49 788.241 L2202.86 788.241 L2202.86 791.805 L2198.49 791.805 Q2193.56 791.805 2191.68 789.977 Q2189.81 788.125 2189.81 783.264 L2189.81 769.19 L2186.68 769.19 L2186.68 765.88 L2189.81 765.88 L2189.81 758.519 L2194.09 758.519 Z" fill="#000000" fill-rule="nonzero" fill-opacity="1" /><path clip-path="url(#clip860)" d="M2230.64 777.778 L2230.64 779.861 L2211.06 779.861 Q2211.34 784.259 2213.7 786.574 Q2216.08 788.866 2220.32 788.866 Q2222.77 788.866 2225.06 788.264 Q2227.38 787.662 2229.65 786.458 L2229.65 790.486 Q2227.35 791.458 2224.95 791.967 Q2222.54 792.477 2220.06 792.477 Q2213.86 792.477 2210.22 788.866 Q2206.61 785.255 2206.61 779.097 Q2206.61 772.731 2210.04 769.005 Q2213.49 765.255 2219.32 765.255 Q2224.55 765.255 2227.58 768.634 Q2230.64 771.991 2230.64 777.778 M2226.38 776.528 Q2226.33 773.032 2224.41 770.949 Q2222.52 768.866 2219.37 768.866 Q2215.8 768.866 2213.65 770.88 Q2211.52 772.894 2211.2 776.551 L2226.38 776.528 Z" fill="#000000" fill-rule="nonzero" fill-opacity="1" /><path clip-path="url(#clip860)" d="M2254.69 769.815 L2254.69 755.787 L2258.95 755.787 L2258.95 791.805 L2254.69 791.805 L2254.69 787.917 Q2253.35 790.231 2251.29 791.366 Q2249.25 792.477 2246.38 792.477 Q2241.68 792.477 2238.72 788.727 Q2235.78 784.977 2235.78 778.866 Q2235.78 772.755 2238.72 769.005 Q2241.68 765.255 2246.38 765.255 Q2249.25 765.255 2251.29 766.389 Q2253.35 767.5 2254.69 769.815 M2240.18 778.866 Q2240.18 783.565 2242.1 786.25 Q2244.04 788.912 2247.42 788.912 Q2250.8 788.912 2252.75 786.25 Q2254.69 783.565 2254.69 778.866 Q2254.69 774.167 2252.75 771.505 Q2250.8 768.819 2247.42 768.819 Q2244.04 768.819 2242.1 771.505 Q2240.18 774.167 2240.18 778.866 Z" fill="#000000" fill-rule="nonzero" fill-opacity="1" /></svg>
